Cr-Udom.ufo
<glyph name="parenleft" format="1">
  <advance width="268"/>
  <unicode hex="0028"/>
  <outline>
    <contour>
      <point x="301" y="-53" type="line" smooth="yes"/>
      <point x="294" y="-53" type="line" smooth="yes"/>
      <point x="288" y="-53" type="line" smooth="yes"/>
      <point x="260" y="-52" type="line" smooth="yes"/>
      <point x="231" y="-48" type="line" smooth="yes"/>
      <point x="207" y="-42" type="line" smooth="yes"/>
      <point x="183" y="-35" type="line" smooth="yes"/>
      <point x="158" y="-24" type="line" smooth="yes"/>
      <point x="137" y="-8" type="line" smooth="yes"/>
      <point x="118" y="5" type="line" smooth="yes"/>
      <point x="106" y="17" type="line" smooth="yes"/>
      <point x="95" y="27" type="line" smooth="yes"/>
      <point x="77" y="49" type="line" smooth="yes"/>
      <point x="63" y="73" type="line" smooth="yes"/>
      <point x="52" y="96" type="line" smooth="yes"/>
      <point x="48" y="106" type="line" smooth="yes"/>
      <point x="44" y="119" type="line" smooth="yes"/>
      <point x="40" y="141" type="line" smooth="yes"/>
      <point x="38" y="156" type="line" smooth="yes"/>
      <point x="37" y="183" type="line" smooth="yes"/>
      <point x="40" y="217" type="line" smooth="yes"/>
      <point x="47" y="250" type="line" smooth="yes"/>
      <point x="56" y="277" type="line" smooth="yes"/>
      <point x="77" y="316" type="line" smooth="yes"/>
      <point x="97" y="341" type="line" smooth="yes"/>
      <point x="130" y="371" type="line" smooth="yes"/>
      <point x="149" y="385" type="line" smooth="yes"/>
      <point x="164" y="393" type="line" smooth="yes"/>
      <point x="200" y="408" type="line" smooth="yes"/>
      <point x="226" y="414" type="line" smooth="yes"/>
      <point x="260" y="418" type="line" smooth="yes"/>
      <point x="301" y="419" type="line" smooth="yes"/>
      <point x="265" y="408" type="line" smooth="yes"/>
      <point x="255" y="408"/>
      <point x="237" y="402"/>
      <point x="211" y="390" type="curve" smooth="yes"/>
      <point x="169" y="372"/>
      <point x="138" y="351"/>
      <point x="118" y="325" type="curve" smooth="yes"/>
      <point x="106" y="309"/>
      <point x="96" y="287"/>
      <point x="86" y="259" type="curve" smooth="yes"/>
      <point x="84" y="248"/>
      <point x="82" y="235"/>
      <point x="79" y="220" type="curve" smooth="yes"/>
      <point x="77" y="206"/>
      <point x="76" y="193"/>
      <point x="76" y="179" type="curve" smooth="yes"/>
      <point x="76" y="152"/>
      <point x="80" y="125"/>
      <point x="88" y="98" type="curve" smooth="yes"/>
      <point x="96" y="72"/>
      <point x="108" y="50"/>
      <point x="126" y="32" type="curve" smooth="yes"/>
      <point x="134" y="22"/>
      <point x="145" y="13"/>
      <point x="160" y="3" type="curve" smooth="yes"/>
      <point x="174" y="-5"/>
      <point x="205" y="-19"/>
      <point x="253" y="-39" type="curve" smooth="yes"/>
      <point x="278" y="-46" type="line" smooth="yes"/>
    </contour>
  </outline>
</glyph>
<glyph name="period" format="1">
  <advance width="216"/>
  <unicode hex="002E"/>
  <outline>
    <contour>
      <point x="37" y="65" type="line" smooth="yes"/>
      <point x="45" y="65"/>
      <point x="52" y="62"/>
      <point x="58" y="56" type="curve" smooth="yes"/>
      <point x="64" y="51"/>
      <point x="68" y="43"/>
      <point x="70" y="32" type="curve" smooth="yes"/>
      <point x="70" y="24"/>
      <point x="68" y="17"/>
      <point x="62" y="11" type="curve" smooth="yes"/>
      <point x="54" y="4" type="line" smooth="yes"/>
      <point x="37" y="0" type="line" smooth="yes"/>
      <point x="29" y="0"/>
      <point x="22" y="2"/>
      <point x="14" y="8" type="curve" smooth="yes"/>
      <point x="10" y="12"/>
      <point x="7" y="20"/>
      <point x="4" y="32" type="curve" smooth="yes"/>
      <point x="4" y="41"/>
      <point x="6" y="48"/>
      <point x="11" y="54" type="curve" smooth="yes"/>
      <point x="22" y="61" type="line" smooth="yes"/>
    </contour>
  </outline>
</glyph>
<glyph name="slash" format="1">
  <advance width="381"/>
  <unicode hex="002F"/>
  <outline>
    <contour>
      <point x="269" y="391" type="line" smooth="yes"/>
      <point x="-2" y="-57" type="line" smooth="yes"/>
      <point x="22" y="-57" type="line" smooth="yes"/>
      <point x="294" y="391" type="line" smooth="yes"/>
    </contour>
  </outline>
</glyph>
<glyph name="yacute" format="2">
  <advance width="100"/>
  <unicode hex="00FD"/>
  <outline>
    <contour>
      <point x="36" y="682" type="line"/>
      <point x="21" y="663"/>
      <point x="21" y="663"/>
      <point x="21" y="644" type="curve" smooth="yes"/>
      <point x="21" y="629"/>
      <point x="21" y="629"/>
      <point x="38" y="601" type="curve" smooth="yes"/>
      <point x="47" y="586"/>
      <point x="47" y="586"/>
      <point x="47" y="580" type="curve" smooth="yes"/>
      <point x="47" y="570"/>
      <point x="47" y="570"/>
      <point x="37.5" y="563.5" type="curve" smooth="yes"/>
      <point x="28" y="557"/>
      <point x="28" y="557"/>
      <point x="15" y="557" type="curve" smooth="yes"/>
      <point x="3" y="557"/>
      <point x="3" y="557"/>
      <point x="-23" y="570" type="curve" smooth="yes"/>
      <point x="-37" y="577"/>
      <point x="-37" y="577"/>
      <point x="-41" y="577" type="curve" smooth="yes"/>
      <point x="-47" y="577"/>
      <point x="-47" y="577"/>
      <point x="-51.5" y="572.5" type="curve" smooth="yes"/>
      <point x="-56" y="568"/>
      <point x="-56" y="568"/>
      <point x="-56" y="557" type="curve" smooth="yes"/>
      <point x="-56" y="546"/>
      <point x="-56" y="546"/>
      <point x="-51.5" y="531" type="curve" smooth="yes"/>
      <point x="-47" y="516"/>
      <point x="-47" y="516"/>
      <point x="-41" y="507" type="curve" smooth="yes"/>
      <point x="-52" y="519" type="line" smooth="yes"/>
      <point x="-61" y="533"/>
      <point x="-61" y="533"/>
      <point x="-68.5" y="548.5" type="curve" smooth="yes"/>
      <point x="-76" y="564"/>
      <point x="-76" y="564"/>
      <point x="-76" y="574" type="curve" smooth="yes"/>
      <point x="-76" y="586"/>
      <point x="-76" y="586"/>
      <point x="-68.5" y="592" type="curve" smooth="yes"/>
      <point x="-61" y="598"/>
      <point x="-61" y="598"/>
      <point x="-50" y="598" type="curve" smooth="yes"/>
      <point x="-39" y="598"/>
      <point x="-39" y="598"/>
      <point x="-20" y="586.5" type="curve" smooth="yes"/>
      <point x="-1" y="575"/>
      <point x="-1" y="575"/>
      <point x="5" y="575" type="curve" smooth="yes"/>
      <point x="12" y="575"/>
      <point x="12" y="575"/>
      <point x="17.5" y="580.5" type="curve" smooth="yes"/>
      <point x="23" y="586"/>
      <point x="23" y="586"/>
      <point x="23" y="592" type="curve" smooth="yes"/>
      <point x="23" y="599"/>
      <point x="23" y="599"/>
      <point x="13.5" y="616" type="curve" smooth="yes"/>
      <point x="4" y="633"/>
      <point x="4" y="633"/>
      <point x="4" y="643" type="curve" smooth="yes"/>
      <point x="4" y="653"/>
      <point x="4" y="653"/>
      <point x="12" y="664" type="curve"/>
    </contour>
    <contour>
      <point x="-27" y="448" type="curve" smooth="yes"/>
      <point x="-28" y="427" type="line"/>
      <point x="-32" y="402" type="line" smooth="yes"/>
      <point x="-35" y="384"/>
      <point x="-35" y="384"/>
      <point x="-41" y="375" type="curve"/>
      <point x="-43" y="414" type="line" smooth="yes"/>
      <point x="-47" y="456"/>
      <point x="-47" y="456"/>
      <point x="-54.5" y="468" type="curve" smooth="yes"/>
      <point x="-62" y="480"/>
      <point x="-62" y="480"/>
      <point x="-69" y="491" type="curve" smooth="yes"/>
      <point x="-79" y="506"/>
      <point x="-79" y="506"/>
      <point x="-85" y="512" type="curve" smooth="yes"/>
      <point x="-102" y="528"/>
      <point x="-102" y="528"/>
      <point x="-129" y="528" type="curve" smooth="yes"/>
      <point x="-153" y="528"/>
      <point x="-153" y="528"/>
      <point x="-168" y="519" type="curve" smooth="yes"/>
      <point x="-176" y="515"/>
      <point x="-176" y="515"/>
      <point x="-182" y="503" type="curve"/>
      <point x="-169" y="506" type="line"/>
      <point x="-149" y="507" type="line" smooth="yes"/>
      <point x="-134" y="507"/>
      <point x="-134" y="507"/>
      <point x="-128" y="504" type="curve" smooth="yes"/>
      <point x="-98" y="492"/>
      <point x="-98" y="492"/>
      <point x="-93" y="462" type="curve" smooth="yes"/>
      <point x="-92" y="451" type="line" smooth="yes"/>
      <point x="-92" y="423"/>
      <point x="-92" y="423"/>
      <point x="-114.5" y="407" type="curve" smooth="yes"/>
      <point x="-137" y="391"/>
      <point x="-137" y="391"/>
      <point x="-166" y="391" type="curve" smooth="yes"/>
      <point x="-186" y="391"/>
      <point x="-186" y="391"/>
      <point x="-197" y="399" type="curve" smooth="yes"/>
      <point x="-208" y="407"/>
      <point x="-208" y="407"/>
      <point x="-214" y="426" type="curve" smooth="yes"/>
      <point x="-216" y="443"/>
      <point x="-216" y="443"/>
      <point x="-206.5" y="455" type="curve" smooth="yes"/>
      <point x="-197" y="467"/>
      <point x="-197" y="467"/>
      <point x="-184" y="467" type="curve" smooth="yes"/>
      <point x="-173" y="464"/>
      <point x="-173" y="464"/>
      <point x="-165" y="458.5" type="curve" smooth="yes"/>
      <point x="-157" y="453"/>
      <point x="-157" y="453"/>
      <point x="-157" y="440" type="curve" smooth="yes"/>
      <point x="-157" y="422"/>
      <point x="-157" y="422"/>
      <point x="-190" y="416" type="curve"/>
      <point x="-196" y="418" type="line"/>
      <point x="-184" y="425" type="line" smooth="yes"/>
      <point x="-180" y="430"/>
      <point x="-180" y="430"/>
      <point x="-180" y="432" type="curve" smooth="yes"/>
      <point x="-182" y="441"/>
      <point x="-182" y="441"/>
      <point x="-188" y="444" type="curve" smooth="yes"/>
      <point x="-193" y="444"/>
      <point x="-193" y="444"/>
      <point x="-196.5" y="438.5" type="curve" smooth="yes"/>
      <point x="-200" y="433"/>
      <point x="-200" y="433"/>
      <point x="-198" y="426" type="curve" smooth="yes"/>
      <point x="-189" y="411"/>
      <point x="-189" y="411"/>
      <point x="-170" y="411" type="curve" smooth="yes"/>
      <point x="-157" y="411" type="line" smooth="yes"/>
      <point x="-137" y="414"/>
      <point x="-137" y="414"/>
      <point x="-130" y="419" type="curve" smooth="yes"/>
      <point x="-119" y="429"/>
      <point x="-119" y="429"/>
      <point x="-119" y="444" type="curve" smooth="yes"/>
      <point x="-120" y="457" type="line"/>
      <point x="-125" y="468"/>
      <point x="-125" y="468"/>
      <point x="-128" y="470" type="curve" smooth="yes"/>
      <point x="-144" y="480" type="line" smooth="yes"/>
      <point x="-152" y="485"/>
      <point x="-152" y="485"/>
      <point x="-168" y="485" type="curve" smooth="yes"/>
      <point x="-203" y="480" type="line"/>
      <point x="-210" y="478" type="line"/>
      <point x="-208" y="484" type="line"/>
      <point x="-200" y="507" type="line" smooth="yes"/>
      <point x="-190" y="530"/>
      <point x="-190" y="530"/>
      <point x="-170" y="539" type="curve" smooth="yes"/>
      <point x="-152" y="550"/>
      <point x="-152" y="550"/>
      <point x="-124" y="550" type="curve" smooth="yes"/>
      <point x="-87" y="550"/>
      <point x="-87" y="550"/>
      <point x="-64" y="530" type="curve" smooth="yes"/>
      <point x="-44" y="513"/>
      <point x="-44" y="513"/>
      <point x="-32" y="479" type="curve" smooth="yes"/>
      <point x="-27" y="468"/>
      <point x="-27" y="468"/>
    </contour>
  </outline>
</glyph>
<glyph name="u0E5B" format="2">
  <advance width="1289"/>
  <unicode hex="0E5B"/>
  <outline>
    <contour>
      <point x="434" y="201" type="curve" smooth="yes"/>
      <point x="434" y="237"/>
      <point x="432" y="263"/>
      <point x="426" y="281" type="curve" smooth="yes"/>
      <point x="418" y="311"/>
      <point x="403" y="326"/>
      <point x="379" y="327" type="curve" smooth="yes"/>
      <point x="357" y="327"/>
      <point x="340" y="312"/>
      <point x="327" y="280" type="curve" smooth="yes"/>
      <point x="315" y="249"/>
      <point x="309" y="215"/>
      <point x="309" y="178" type="curve" smooth="yes"/>
      <point x="309" y="138"/>
      <point x="315" y="104"/>
      <point x="327" y="76" type="curve" smooth="yes"/>
      <point x="342" y="42"/>
      <point x="363" y="25"/>
      <point x="391" y="24" type="curve" smooth="yes"/>
      <point x="427" y="24"/>
      <point x="457" y="43"/>
      <point x="482" y="81" type="curve" smooth="yes"/>
      <point x="501" y="114"/>
      <point x="510" y="154"/>
      <point x="511" y="201" type="curve" smooth="yes"/>
      <point x="511" y="258"/>
      <point x="502" y="304"/>
      <point x="482" y="341" type="curve" smooth="yes"/>
      <point x="458" y="385"/>
      <point x="422" y="407"/>
      <point x="374" y="408" type="curve" smooth="yes"/>
      <point x="334" y="408"/>
      <point x="300" y="386"/>
      <point x="271" y="340" type="curve" smooth="yes"/>
      <point x="258" y="320"/>
      <point x="248" y="296"/>
      <point x="239" y="266" type="curve" smooth="yes"/>
      <point x="236" y="254"/>
      <point x="234" y="241"/>
      <point x="231" y="225" type="curve" smooth="yes"/>
      <point x="229" y="211"/>
      <point x="228" y="196"/>
      <point x="228" y="178" type="curve" smooth="yes"/>
      <point x="228" y="108"/>
      <point x="242" y="51"/>
      <point x="270" y="7" type="curve" smooth="yes"/>
      <point x="298" y="-36"/>
      <point x="336" y="-57"/>
      <point x="386" y="-58" type="curve" smooth="yes"/>
      <point x="420" y="-58"/>
      <point x="452" y="-49"/>
      <point x="482" y="-30" type="curve" smooth="yes"/>
      <point x="512" y="-12"/>
      <point x="535" y="10"/>
      <point x="551" y="37" type="curve" smooth="yes"/>
      <point x="567" y="64"/>
      <point x="579" y="96"/>
      <point x="588" y="133" type="curve" smooth="yes"/>
      <point x="593" y="178" type="line" smooth="yes"/>
      <point x="620" y="136" type="line" smooth="yes"/>
      <point x="638" y="112"/>
      <point x="648" y="100"/>
      <point x="651" y="99" type="curve" smooth="yes"/>
      <point x="703" y="201" type="line" smooth="yes"/>
      <point x="731" y="163" type="line" smooth="yes"/>
      <point x="759" y="130" type="line" smooth="yes"/>
      <point x="765" y="124" type="line" smooth="yes"/>
      <point x="790" y="151" type="line" smooth="yes"/>
      <point x="808" y="169"/>
      <point x="821" y="178"/>
      <point x="829" y="178" type="curve" smooth="yes"/>
      <point x="846" y="171" type="line" smooth="yes"/>
      <point x="880" y="161" type="line" smooth="yes"/>
      <point x="890" y="160"/>
      <point x="899" y="162"/>
      <point x="908" y="169" type="curve" smooth="yes"/>
      <point x="916" y="175"/>
      <point x="939" y="181"/>
      <point x="977" y="187" type="curve" smooth="yes"/>
      <point x="975" y="192" type="line" smooth="yes"/>
      <point x="957" y="198"/>
      <point x="940" y="201"/>
      <point x="923" y="201" type="curve" smooth="yes"/>
      <point x="919" y="201"/>
      <point x="913" y="199"/>
      <point x="903" y="195" type="curve" smooth="yes"/>
      <point x="880" y="187" type="line" smooth="yes"/>
      <point x="872" y="187"/>
      <point x="864" y="190"/>
      <point x="856" y="197" type="curve" smooth="yes"/>
      <point x="840" y="211"/>
      <point x="828" y="219"/>
      <point x="820" y="222" type="curve" smooth="yes"/>
      <point x="813" y="218" type="line" smooth="yes"/>
      <point x="793" y="205" type="line" smooth="yes"/>
      <point x="770" y="187" type="line" smooth="yes"/>
      <point x="761" y="197" type="line" smooth="yes"/>
      <point x="735" y="229" type="line" smooth="yes"/>
      <point x="703" y="272" type="line" smooth="yes"/>
      <point x="695" y="262" type="line" smooth="yes"/>
      <point x="672" y="230" type="line" smooth="yes"/>
      <point x="644" y="187" type="line" smooth="yes"/>
      <point x="613" y="223" type="line" smooth="yes"/>
      <point x="555" y="297" type="line" smooth="yes"/>
      <point x="555" y="270" type="line" smooth="yes"/>
      <point x="551" y="236" type="line" smooth="yes"/>
      <point x="539" y="146" type="line" smooth="yes"/>
      <point x="535" y="114"/>
      <point x="518" y="81"/>
      <point x="487" y="45" type="curve" smooth="yes"/>
      <point x="457" y="11"/>
      <point x="425" y="-6"/>
      <point x="389" y="-6" type="curve" smooth="yes"/>
      <point x="379" y="-6" type="line" smooth="yes"/>
      <point x="345" y="-6"/>
      <point x="319" y="14"/>
      <point x="299" y="55" type="curve" smooth="yes"/>
      <point x="287" y="85"/>
      <point x="281" y="123"/>
      <point x="280" y="169" type="curve" smooth="yes"/>
      <point x="280" y="213"/>
      <point x="289" y="255"/>
      <point x="309" y="297" type="curve" smooth="yes"/>
      <point x="329" y="338"/>
      <point x="350" y="358"/>
      <point x="374" y="359" type="curve" smooth="yes"/>
      <point x="404" y="359"/>
      <point x="426" y="342"/>
      <point x="441" y="306" type="curve" smooth="yes"/>
      <point x="452" y="278"/>
      <point x="457" y="243"/>
      <point x="458" y="201" type="curve" smooth="yes"/>
      <point x="458" y="169"/>
      <point x="452" y="140"/>
      <point x="438" y="113" type="curve" smooth="yes"/>
      <point x="426" y="86"/>
      <point x="411" y="73"/>
      <point x="391" y="72" type="curve" smooth="yes"/>
      <point x="379" y="72"/>
      <point x="369" y="83"/>
      <point x="360" y="106" type="curve" smooth="yes"/>
      <point x="352" y="129"/>
      <point x="348" y="153"/>
      <point x="348" y="178" type="curve" smooth="yes"/>
      <point x="348" y="207" type="line" smooth="yes"/>
      <point x="348" y="215"/>
      <point x="348" y="221"/>
      <point x="349" y="225" type="curve" smooth="yes"/>
      <point x="349" y="229"/>
      <point x="351" y="236"/>
      <point x="356" y="247" type="curve" smooth="yes"/>
      <point x="360" y="266"/>
      <point x="367" y="276"/>
      <point x="379" y="279" type="curve" smooth="yes"/>
      <point x="387" y="279"/>
      <point x="392" y="273"/>
      <point x="394" y="259" type="curve" smooth="yes"/>
      <point x="397" y="225" type="line" smooth="yes"/>
      <point x="397" y="213" type="line" smooth="yes"/>
      <point x="396" y="205" type="line" smooth="yes"/>
      <point x="386" y="203"/>
      <point x="379" y="199"/>
      <point x="375" y="193" type="curve" smooth="yes"/>
      <point x="371" y="188"/>
      <point x="368" y="180"/>
      <point x="366" y="169" type="curve" smooth="yes"/>
      <point x="366" y="157"/>
      <point x="368" y="147"/>
      <point x="372" y="139" type="curve" smooth="yes"/>
      <point x="376" y="131"/>
      <point x="384" y="126"/>
      <point x="396" y="124" type="curve" smooth="yes"/>
      <point x="404" y="124"/>
      <point x="412" y="131"/>
      <point x="421" y="147" type="curve" smooth="yes"/>
      <point x="429" y="163"/>
      <point x="433" y="181"/>
    </contour>
  </outline>
</glyph>
<glyph name="u1A20" format="1">
  <advance width="673"/>
  <unicode hex="1A20"/>
  <outline>
    <contour>
      <point x="204" y="108" type="curve" smooth="yes"/>
      <point x="220" y="110"/>
      <point x="235" y="104"/>
      <point x="249" y="89" type="curve" smooth="yes"/>
      <point x="258" y="78"/>
      <point x="263" y="68"/>
      <point x="265" y="58" type="curve" smooth="yes"/>
      <point x="265" y="40"/>
      <point x="258" y="26"/>
      <point x="244" y="14" type="curve" smooth="yes"/>
      <point x="230" y="4"/>
      <point x="213" y="-1"/>
      <point x="191" y="-1" type="curve" smooth="yes"/>
      <point x="147" y="-1"/>
      <point x="113" y="17"/>
      <point x="88" y="54" type="curve" smooth="yes"/>
      <point x="66" y="86"/>
      <point x="55" y="127"/>
      <point x="55" y="177" type="curve" smooth="yes"/>
      <point x="55" y="223"/>
      <point x="72" y="264"/>
      <point x="106" y="301" type="curve" smooth="yes"/>
      <point x="140" y="337"/>
      <point x="176" y="355"/>
      <point x="216" y="356" type="curve" smooth="yes"/>
      <point x="260" y="356"/>
      <point x="294" y="340"/>
      <point x="320" y="306" type="curve" smooth="yes"/>
      <point x="340" y="278"/>
      <point x="350" y="246"/>
      <point x="351" y="210" type="curve" smooth="yes"/>
      <point x="350" y="197" type="line" smooth="yes"/>
      <point x="350" y="15" type="line" smooth="yes"/>
      <point x="337" y="5" type="line" smooth="yes"/>
      <point x="327" y="1" type="line" smooth="yes"/>
      <point x="326" y="191" type="line" smooth="yes"/>
      <point x="326" y="221"/>
      <point x="317" y="249"/>
      <point x="299" y="277" type="curve" smooth="yes"/>
      <point x="277" y="309"/>
      <point x="249" y="325"/>
      <point x="214" y="325" type="curve" smooth="yes"/>
      <point x="174" y="325"/>
      <point x="142" y="313"/>
      <point x="117" y="288" type="curve" smooth="yes"/>
      <point x="93" y="264"/>
      <point x="81" y="227"/>
      <point x="81" y="176" type="curve" smooth="yes"/>
      <point x="81" y="141"/>
      <point x="91" y="109"/>
      <point x="111" y="79" type="curve" smooth="yes"/>
      <point x="131" y="50"/>
      <point x="154" y="36"/>
      <point x="181" y="35" type="curve" smooth="yes"/>
      <point x="171" y="38"/>
      <point x="166" y="47"/>
      <point x="166" y="63" type="curve" smooth="yes"/>
      <point x="166" y="73"/>
      <point x="169" y="83"/>
      <point x="175" y="93" type="curve" smooth="yes"/>
      <point x="181" y="103"/>
      <point x="190" y="108"/>
    </contour>
    <contour>
      <point x="196" y="40" type="curve" smooth="yes"/>
      <point x="199" y="38"/>
      <point x="204" y="37"/>
      <point x="211" y="37" type="curve" smooth="yes"/>
      <point x="217" y="37"/>
      <point x="222" y="38"/>
      <point x="227" y="42" type="curve" smooth="yes"/>
      <point x="231" y="45"/>
      <point x="233" y="49"/>
      <point x="233" y="54" type="curve" smooth="yes"/>
      <point x="233" y="68"/>
      <point x="224" y="75"/>
      <point x="206" y="75" type="curve" smooth="yes"/>
      <point x="196" y="74"/>
      <point x="191" y="66"/>
      <point x="190" y="51" type="curve" smooth="yes"/>
      <point x="190" y="47"/>
      <point x="192" y="44"/>
    </contour>
    <contour>
      <point x="534" y="63" type="curve" smooth="yes"/>
      <point x="557" y="80"/>
      <point x="573" y="96"/>
      <point x="582" y="111" type="curve" smooth="yes"/>
      <point x="588" y="123"/>
      <point x="591" y="135"/>
      <point x="592" y="149" type="curve" smooth="yes"/>
      <point x="591" y="163" type="line" smooth="yes"/>
      <point x="591" y="179" type="line" smooth="yes"/>
      <point x="591" y="225"/>
      <point x="578" y="261"/>
      <point x="552" y="287" type="curve" smooth="yes"/>
      <point x="527" y="313"/>
      <point x="495" y="326"/>
      <point x="456" y="326" type="curve" smooth="yes"/>
      <point x="429" y="326"/>
      <point x="405" y="312"/>
      <point x="384" y="284" type="curve" smooth="yes"/>
      <point x="364" y="256"/>
      <point x="354" y="228"/>
      <point x="353" y="199" type="curve" smooth="yes"/>
      <point x="348" y="181" type="line" smooth="yes"/>
      <point x="347" y="175"/>
      <point x="346" y="171"/>
      <point x="344" y="167" type="curve" smooth="yes"/>
      <point x="343" y="165"/>
      <point x="342" y="163"/>
      <point x="340" y="160" type="curve" smooth="yes"/>
      <point x="338" y="167" type="line" smooth="yes"/>
      <point x="338" y="184" type="line" smooth="yes"/>
      <point x="338" y="230"/>
      <point x="351" y="270"/>
      <point x="377" y="304" type="curve" smooth="yes"/>
      <point x="403" y="338"/>
      <point x="434" y="355"/>
      <point x="472" y="356" type="curve" smooth="yes"/>
      <point x="516" y="356"/>
      <point x="554" y="336"/>
      <point x="586" y="296" type="curve" smooth="yes"/>
      <point x="613" y="261"/>
      <point x="626" y="223"/>
      <point x="627" y="181" type="curve" smooth="yes"/>
      <point x="627" y="151"/>
      <point x="613" y="120"/>
      <point x="585" y="86" type="curve" smooth="yes"/>
      <point x="558" y="54"/>
      <point x="529" y="35"/>
      <point x="498" y="29" type="curve" smooth="yes"/>
      <point x="510" y="28" type="line" smooth="yes"/>
      <point x="516" y="28"/>
      <point x="523" y="30"/>
      <point x="532" y="34" type="curve" smooth="yes"/>
      <point x="540" y="38"/>
      <point x="550" y="44"/>
      <point x="563" y="54" type="curve" smooth="yes"/>
      <point x="567" y="56"/>
      <point x="572" y="60"/>
      <point x="578" y="68" type="curve" smooth="yes"/>
      <point x="568" y="46"/>
      <point x="558" y="30"/>
      <point x="547" y="19" type="curve" smooth="yes"/>
      <point x="537" y="11"/>
      <point x="523" y="5"/>
      <point x="503" y="1" type="curve" smooth="yes"/>
      <point x="487" y="-1" type="line" smooth="yes"/>
      <point x="478" y="-1"/>
      <point x="471" y="1"/>
      <point x="464" y="5" type="curve" smooth="yes"/>
      <point x="461" y="8"/>
      <point x="459" y="12"/>
      <point x="457" y="17" type="curve" smooth="yes"/>
      <point x="463" y="31" type="line" smooth="yes"/>
      <point x="465" y="35"/>
      <point x="468" y="38"/>
      <point x="473" y="42" type="curve" smooth="yes"/>
      <point x="499" y="49" type="line" smooth="yes"/>
      <point x="513" y="51"/>
      <point x="524" y="55"/>
    </contour>
    <contour>
      <point x="339.5" y="0" type="move" name="L"/>
    </contour>
    <contour>
      <point x="625" y="0" type="move" name="LR"/>
    </contour>
    <contour>
      <point x="348.5" y="416" type="move" name="U"/>
    </contour>
    <contour>
      <point x="625" y="416" type="move" name="UR"/>
    </contour>
  </outline>
</glyph>
<glyph name="u1A21" format="2">
  <advance width="545"/>
  <unicode hex="1A21"/>
  <anchor x="229.5" y="0" name="L"/>
  <anchor x="476" y="-61" name="LR"/>
  <anchor x="236.5" y="416" name="U"/>
  <anchor x="455" y="416" name="UR"/>
  <outline>
    <contour>
      <point x="204" y="105" type="curve" smooth="yes"/>
      <point x="157" y="105"/>
      <point x="125" y="103"/>
      <point x="108" y="98" type="curve" smooth="yes"/>
      <point x="90" y="94"/>
      <point x="81" y="86"/>
      <point x="81" y="73" type="curve" smooth="yes"/>
      <point x="81" y="57"/>
      <point x="97" y="45"/>
      <point x="129" y="35" type="curve" smooth="yes"/>
      <point x="153" y="29"/>
      <point x="186" y="26"/>
      <point x="230" y="26" type="curve" smooth="yes"/>
      <point x="241" y="26" type="line" smooth="yes"/>
      <point x="249" y="26"/>
      <point x="257" y="26"/>
      <point x="267" y="26" type="curve" smooth="yes"/>
      <point x="277" y="26"/>
      <point x="288" y="27"/>
      <point x="301" y="30" type="curve" smooth="yes"/>
      <point x="333" y="34"/>
      <point x="357" y="43"/>
      <point x="375" y="59" type="curve" smooth="yes"/>
      <point x="339" y="75"/>
      <point x="310" y="86"/>
      <point x="286" y="94" type="curve" smooth="yes"/>
      <point x="263" y="101"/>
      <point x="236" y="104"/>
    </contour>
    <contour>
      <point x="424" y="137" type="curve" smooth="yes"/>
      <point x="423" y="242" type="line" smooth="yes"/>
      <point x="423" y="262"/>
      <point x="415" y="281"/>
      <point x="399" y="300" type="curve" smooth="yes"/>
      <point x="384" y="318"/>
      <point x="369" y="327"/>
      <point x="353" y="327" type="curve" smooth="yes"/>
      <point x="339" y="327"/>
      <point x="318" y="318"/>
      <point x="289" y="299" type="curve" smooth="yes"/>
      <point x="261" y="281"/>
      <point x="242" y="272"/>
      <point x="231" y="270" type="curve" smooth="yes"/>
      <point x="223" y="270"/>
      <point x="212" y="278"/>
      <point x="196" y="296" type="curve" smooth="yes"/>
      <point x="182" y="313"/>
      <point x="169" y="321"/>
      <point x="156" y="322" type="curve" smooth="yes"/>
      <point x="137" y="323" type="line" smooth="yes"/>
      <point x="126" y="323"/>
      <point x="117" y="322"/>
      <point x="110" y="318" type="curve" smooth="yes"/>
      <point x="104" y="316"/>
      <point x="100" y="312"/>
      <point x="96" y="305" type="curve" smooth="yes"/>
      <point x="93" y="291" type="line" smooth="yes"/>
      <point x="93" y="280" type="line" smooth="yes"/>
      <point x="104" y="288" type="line" smooth="yes"/>
      <point x="113" y="294"/>
      <point x="119" y="297"/>
      <point x="124" y="297" type="curve" smooth="yes"/>
      <point x="134" y="297"/>
      <point x="143" y="293"/>
      <point x="153" y="284" type="curve" smooth="yes"/>
      <point x="156" y="280"/>
      <point x="159" y="275"/>
      <point x="163" y="268" type="curve" smooth="yes"/>
      <point x="167" y="262"/>
      <point x="169" y="255"/>
      <point x="169" y="246" type="curve" smooth="yes"/>
      <point x="169" y="238"/>
      <point x="160" y="228"/>
      <point x="141" y="215" type="curve" smooth="yes"/>
      <point x="122" y="205"/>
      <point x="107" y="200"/>
      <point x="95" y="199" type="curve" smooth="yes"/>
      <point x="90" y="199"/>
      <point x="87" y="199"/>
      <point x="85" y="201" type="curve" smooth="yes"/>
      <point x="64" y="215"/>
      <point x="54" y="237"/>
      <point x="53" y="269" type="curve" smooth="yes"/>
      <point x="54" y="286" type="line" smooth="yes"/>
      <point x="58" y="308"/>
      <point x="69" y="325"/>
      <point x="88" y="337" type="curve" smooth="yes"/>
      <point x="106" y="349"/>
      <point x="127" y="355"/>
      <point x="151" y="356" type="curve" smooth="yes"/>
      <point x="163" y="356"/>
      <point x="179" y="347"/>
      <point x="199" y="327" type="curve" smooth="yes"/>
      <point x="218" y="308"/>
      <point x="231" y="299"/>
      <point x="239" y="298" type="curve" smooth="yes"/>
      <point x="242" y="298"/>
      <point x="264" y="311"/>
      <point x="306" y="337" type="curve" smooth="yes"/>
      <point x="327" y="349"/>
      <point x="343" y="355"/>
      <point x="354" y="356" type="curve" smooth="yes"/>
      <point x="376" y="356"/>
      <point x="398" y="347"/>
      <point x="420" y="328" type="curve" smooth="yes"/>
      <point x="442" y="310"/>
      <point x="453" y="291"/>
      <point x="454" y="269" type="curve" smooth="yes"/>
      <point x="455" y="139" type="line" smooth="yes"/>
      <point x="455" y="127"/>
      <point x="452" y="114"/>
      <point x="446" y="98" type="curve" smooth="yes"/>
      <point x="423" y="59" type="line" smooth="yes"/>
      <point x="431" y="51"/>
      <point x="440" y="40"/>
      <point x="451" y="24" type="curve" smooth="yes"/>
      <point x="461" y="10"/>
      <point x="467" y="-5"/>
      <point x="471" y="-21" type="curve" smooth="yes"/>
      <point x="475" y="-59" type="line" smooth="yes"/>
      <point x="475" y="-73"/>
      <point x="474" y="-87"/>
      <point x="471" y="-102" type="curve" smooth="yes"/>
      <point x="469" y="-116"/>
      <point x="465" y="-131"/>
      <point x="458" y="-148" type="curve" smooth="yes"/>
      <point x="457" y="-153"/>
      <point x="456" y="-157"/>
      <point x="454" y="-160" type="curve" smooth="yes"/>
      <point x="451" y="-168"/>
      <point x="447" y="-177"/>
      <point x="441" y="-187" type="curve" smooth="yes"/>
      <point x="449" y="-151" type="line" smooth="yes"/>
      <point x="454" y="-123"/>
      <point x="456" y="-101"/>
      <point x="457" y="-85" type="curve" smooth="yes"/>
      <point x="456" y="-74" type="line" smooth="yes"/>
      <point x="454" y="-51"/>
      <point x="449" y="-30"/>
      <point x="440" y="-9" type="curve" smooth="yes"/>
      <point x="436" y="2"/>
      <point x="429" y="13"/>
      <point x="418" y="26" type="curve" smooth="yes"/>
      <point x="402" y="41" type="line" smooth="yes"/>
      <point x="384" y="27"/>
      <point x="359" y="17"/>
      <point x="326" y="10" type="curve" smooth="yes"/>
      <point x="294" y="4"/>
      <point x="262" y="1"/>
      <point x="229" y="0" type="curve" smooth="yes"/>
      <point x="186" y="0"/>
      <point x="151" y="3"/>
      <point x="124" y="10" type="curve" smooth="yes"/>
      <point x="78" y="21"/>
      <point x="55" y="40"/>
      <point x="55" y="68" type="curve" smooth="yes"/>
      <point x="55" y="90"/>
      <point x="67" y="106"/>
      <point x="91" y="118" type="curve" smooth="yes"/>
      <point x="115" y="130"/>
      <point x="152" y="136"/>
      <point x="203" y="136" type="curve" smooth="yes"/>
      <point x="219" y="136"/>
      <point x="235" y="135"/>
      <point x="252" y="133" type="curve" smooth="yes"/>
      <point x="268" y="131"/>
      <point x="285" y="128"/>
      <point x="305" y="122" type="curve" smooth="yes"/>
      <point x="339" y="114"/>
      <point x="370" y="100"/>
      <point x="400" y="79" type="curve" smooth="yes"/>
      <point x="413" y="98" type="line" smooth="yes"/>
      <point x="419" y="111"/>
      <point x="422" y="124"/>
    </contour>
    <contour>
      <point x="101" y="254" type="curve" smooth="yes"/>
      <point x="101" y="248"/>
      <point x="104" y="242"/>
      <point x="111" y="236" type="curve" smooth="yes"/>
      <point x="113" y="234"/>
      <point x="117" y="233"/>
      <point x="124" y="231" type="curve" smooth="yes"/>
      <point x="130" y="231"/>
      <point x="135" y="237"/>
      <point x="141" y="249" type="curve" smooth="yes"/>
      <point x="141" y="252"/>
      <point x="140" y="256"/>
      <point x="138" y="262" type="curve" smooth="yes"/>
      <point x="136" y="267"/>
      <point x="132" y="270"/>
      <point x="125" y="273" type="curve" smooth="yes"/>
      <point x="119" y="273"/>
      <point x="114" y="272"/>
      <point x="109" y="268" type="curve" smooth="yes"/>
      <point x="105" y="266"/>
      <point x="103" y="262"/>
    </contour>
  </outline>
</glyph>
<glyph name="u1A26" format="1">
  <advance width="601"/>
  <unicode hex="1A26"/>
  <outline>
    <contour>
      <point x="323" y="79" type="curve" smooth="yes"/>
      <point x="306" y="70"/>
      <point x="298" y="58"/>
      <point x="297" y="43" type="curve" smooth="yes"/>
      <point x="297" y="33"/>
      <point x="301" y="23"/>
      <point x="309" y="13" type="curve" smooth="yes"/>
      <point x="317" y="5"/>
      <point x="325" y="1"/>
      <point x="335" y="0" type="curve" smooth="yes"/>
      <point x="369" y="0"/>
      <point x="386" y="15"/>
      <point x="387" y="47" type="curve" smooth="yes"/>
      <point x="387" y="74"/>
      <point x="380" y="93"/>
      <point x="366" y="106" type="curve" smooth="yes"/>
      <point x="352" y="118"/>
      <point x="330" y="124"/>
      <point x="299" y="124" type="curve" smooth="yes"/>
      <point x="282" y="124"/>
      <point x="266" y="115"/>
      <point x="249" y="97" type="curve" smooth="yes"/>
      <point x="217" y="58"/>
      <point x="190" y="39"/>
      <point x="166" y="38" type="curve" smooth="yes"/>
      <point x="142" y="38"/>
      <point x="123" y="47"/>
      <point x="109" y="65" type="curve" smooth="yes"/>
      <point x="96" y="83"/>
      <point x="90" y="103"/>
      <point x="89" y="125" type="curve" smooth="yes"/>
      <point x="89" y="161"/>
      <point x="96" y="188"/>
      <point x="112" y="206" type="curve" smooth="yes"/>
      <point x="128" y="224"/>
      <point x="155" y="237"/>
      <point x="194" y="246" type="curve" smooth="yes"/>
      <point x="207" y="248"/>
      <point x="216" y="250"/>
      <point x="221" y="254" type="curve" smooth="yes"/>
      <point x="238" y="263" type="line" smooth="yes"/>
      <point x="241" y="265"/>
      <point x="243" y="271"/>
      <point x="245" y="281" type="curve" smooth="yes"/>
      <point x="245" y="288"/>
      <point x="242" y="299"/>
      <point x="236" y="316" type="curve" smooth="yes"/>
      <point x="235" y="319"/>
      <point x="229" y="319"/>
      <point x="217" y="315" type="curve" smooth="yes"/>
      <point x="200" y="308" type="line" smooth="yes"/>
      <point x="204" y="298"/>
      <point x="206" y="291"/>
      <point x="206" y="285" type="curve" smooth="yes"/>
      <point x="206" y="280"/>
      <point x="204" y="276"/>
      <point x="198" y="272" type="curve" smooth="yes"/>
      <point x="167" y="261" type="line" smooth="yes"/>
      <point x="129" y="251"/>
      <point x="101" y="237"/>
      <point x="83" y="219" type="curve" smooth="yes"/>
      <point x="60" y="196"/>
      <point x="49" y="163"/>
      <point x="48" y="119" type="curve" smooth="yes"/>
      <point x="48" y="87"/>
      <point x="59" y="60"/>
      <point x="81" y="36" type="curve" smooth="yes"/>
      <point x="103" y="13"/>
      <point x="133" y="2"/>
      <point x="172" y="1" type="curve" smooth="yes"/>
      <point x="200" y="1"/>
      <point x="225" y="16"/>
      <point x="247" y="48" type="curve" smooth="yes"/>
      <point x="269" y="80"/>
      <point x="286" y="96"/>
      <point x="299" y="96" type="curve" smooth="yes"/>
      <point x="319" y="96"/>
      <point x="334" y="92"/>
      <point x="345" y="83" type="curve" smooth="yes"/>
      <point x="355" y="75"/>
      <point x="360" y="66"/>
      <point x="360" y="54" type="curve" smooth="yes"/>
      <point x="360" y="40"/>
      <point x="354" y="32"/>
      <point x="341" y="28" type="curve" smooth="yes"/>
      <point x="332" y="27"/>
      <point x="328" y="31"/>
      <point x="327" y="42" type="curve" smooth="yes"/>
      <point x="327" y="49"/>
      <point x="330" y="55"/>
      <point x="338" y="61" type="curve" smooth="yes"/>
      <point x="340" y="63"/>
      <point x="339" y="66"/>
      <point x="334" y="72" type="curve" smooth="yes"/>
      <point x="330" y="77"/>
      <point x="327" y="79"/>
    </contour>
    <contour>
      <point x="206" y="298" type="curve" smooth="yes"/>
      <point x="219" y="305" type="line" smooth="yes"/>
      <point x="236" y="313" type="line" smooth="yes"/>
      <point x="258" y="319"/>
      <point x="278" y="322"/>
      <point x="296" y="322" type="curve" smooth="yes"/>
      <point x="302" y="322"/>
      <point x="308" y="322"/>
      <point x="316" y="321" type="curve" smooth="yes"/>
      <point x="323" y="321"/>
      <point x="330" y="320"/>
      <point x="339" y="317" type="curve" smooth="yes"/>
      <point x="350" y="316"/>
      <point x="358" y="315"/>
      <point x="364" y="313" type="curve" smooth="yes"/>
      <point x="370" y="312"/>
      <point x="380" y="309"/>
      <point x="396" y="304" type="curve" smooth="yes"/>
      <point x="428" y="296"/>
      <point x="455" y="273"/>
      <point x="479" y="235" type="curve" smooth="yes"/>
      <point x="498" y="203"/>
      <point x="507" y="171"/>
      <point x="508" y="139" type="curve" smooth="yes"/>
      <point x="508" y="97"/>
      <point x="506" y="64"/>
      <point x="502" y="40" type="curve" smooth="yes"/>
      <point x="500" y="18"/>
      <point x="490" y="-10"/>
      <point x="472" y="-46" type="curve" smooth="yes"/>
      <point x="467" y="-58"/>
      <point x="456" y="-75"/>
      <point x="439" y="-99" type="curve" smooth="yes"/>
      <point x="417" y="-129" type="line" smooth="yes"/>
      <point x="428" y="-123" type="line" smooth="yes"/>
      <point x="453" y="-100"/>
      <point x="471" y="-81"/>
      <point x="484" y="-64" type="curve" smooth="yes"/>
      <point x="510" y="-28"/>
      <point x="527" y="9"/>
      <point x="535" y="49" type="curve" smooth="yes"/>
      <point x="537" y="60"/>
      <point x="538" y="74"/>
      <point x="540" y="92" type="curve" smooth="yes"/>
      <point x="541" y="110"/>
      <point x="541" y="131"/>
      <point x="542" y="157" type="curve" smooth="yes"/>
      <point x="542" y="192"/>
      <point x="532" y="227"/>
      <point x="512" y="263" type="curve" smooth="yes"/>
      <point x="488" y="303"/>
      <point x="457" y="329"/>
      <point x="417" y="343" type="curve" smooth="yes"/>
      <point x="387" y="351"/>
      <point x="356" y="355"/>
      <point x="322" y="356" type="curve" smooth="yes"/>
      <point x="290" y="356"/>
      <point x="260" y="353"/>
      <point x="231" y="346" type="curve" smooth="yes"/>
      <point x="204" y="340"/>
      <point x="191" y="336"/>
      <point x="190" y="332" type="curve" smooth="yes"/>
      <point x="192" y="324"/>
      <point x="196" y="317"/>
      <point x="203" y="310" type="curve" smooth="yes"/>
      <point x="207" y="306"/>
      <point x="208" y="302"/>
    </contour>
    <contour>
      <point x="280.5" y="0" type="move" name="L"/>
    </contour>
    <contour>
      <point x="537" y="-30" type="move" name="LR"/>
    </contour>
    <contour>
      <point x="287.5" y="416" type="move" name="U"/>
    </contour>
    <contour>
      <point x="542" y="416" type="move" name="UR"/>
    </contour>
  </outline>
</glyph>
<glyph name="u1A27" format="2">
  <advance width="523"/>
  <unicode hex="1A27"/>
  <anchor x="264.5" y="0" name="L"/>
  <anchor x="454" y="0" name="LR"/>
  <anchor x="244.5" y="416" name="U"/>
  <anchor x="454" y="416" name="UR"/>
  <outline>
    <contour>
      <point x="101" y="118" type="curve" smooth="yes"/>
      <point x="142" y="71" type="line" smooth="yes"/>
      <point x="162" y="53"/>
      <point x="186" y="41"/>
      <point x="215" y="33" type="curve" smooth="yes"/>
      <point x="237" y="29" type="line" smooth="yes"/>
      <point x="264" y="28" type="line" smooth="yes"/>
      <point x="305" y="28"/>
      <point x="340" y="37"/>
      <point x="369" y="56" type="curve" smooth="yes"/>
      <point x="385" y="66"/>
      <point x="397" y="81"/>
      <point x="406" y="103" type="curve" smooth="yes"/>
      <point x="414" y="124"/>
      <point x="418" y="146"/>
      <point x="419" y="170" type="curve" smooth="yes"/>
      <point x="419" y="188"/>
      <point x="416" y="205"/>
      <point x="408" y="221" type="curve" smooth="yes"/>
      <point x="398" y="243"/>
      <point x="384" y="261"/>
      <point x="364" y="275" type="curve" smooth="yes"/>
      <point x="354" y="282"/>
      <point x="344" y="288"/>
      <point x="334" y="293" type="curve" smooth="yes"/>
      <point x="325" y="297"/>
      <point x="315" y="301"/>
      <point x="304" y="307" type="curve" smooth="yes"/>
      <point x="283" y="315"/>
      <point x="259" y="319"/>
      <point x="232" y="319" type="curve" smooth="yes"/>
      <point x="203" y="319"/>
      <point x="176" y="313"/>
      <point x="149" y="300" type="curve" smooth="yes"/>
      <point x="124" y="288"/>
      <point x="105" y="272"/>
      <point x="90" y="250" type="curve" smooth="yes"/>
      <point x="97" y="252"/>
      <point x="106" y="252"/>
      <point x="117" y="248" type="curve" smooth="yes"/>
      <point x="129" y="245"/>
      <point x="141" y="238"/>
      <point x="153" y="225" type="curve" smooth="yes"/>
      <point x="159" y="219"/>
      <point x="163" y="212"/>
      <point x="166" y="203" type="curve" smooth="yes"/>
      <point x="169" y="181" type="line" smooth="yes"/>
      <point x="169" y="171"/>
      <point x="162" y="160"/>
      <point x="146" y="147" type="curve" smooth="yes"/>
      <point x="142" y="144"/>
      <point x="136" y="140"/>
      <point x="128" y="134" type="curve" smooth="yes"/>
      <point x="120" y="129"/>
      <point x="111" y="124"/>
    </contour>
    <contour>
      <point x="58" y="108" type="line" smooth="yes"/>
      <point x="89" y="126" type="line" smooth="yes"/>
      <point x="97" y="130"/>
      <point x="106" y="137"/>
      <point x="116" y="147" type="curve" smooth="yes"/>
      <point x="124" y="156"/>
      <point x="128" y="165"/>
      <point x="130" y="176" type="curve" smooth="yes"/>
      <point x="130" y="184"/>
      <point x="125" y="191"/>
      <point x="114" y="198" type="curve" smooth="yes"/>
      <point x="104" y="204"/>
      <point x="93" y="208"/>
      <point x="79" y="211" type="curve" smooth="yes"/>
      <point x="66" y="213"/>
      <point x="58" y="214"/>
      <point x="55" y="214" type="curve" smooth="yes"/>
      <point x="53" y="214"/>
      <point x="51" y="215"/>
      <point x="47" y="218" type="curve" smooth="yes"/>
      <point x="54" y="234" type="line" smooth="yes"/>
      <point x="66" y="258"/>
      <point x="87" y="282"/>
      <point x="118" y="307" type="curve" smooth="yes"/>
      <point x="158" y="339"/>
      <point x="199" y="355"/>
      <point x="243" y="355" type="curve" smooth="yes"/>
      <point x="273" y="355"/>
      <point x="298" y="352"/>
      <point x="320" y="344" type="curve" smooth="yes"/>
      <point x="341" y="337"/>
      <point x="363" y="326"/>
      <point x="387" y="310" type="curve" smooth="yes"/>
      <point x="410" y="296"/>
      <point x="427" y="277"/>
      <point x="439" y="252" type="curve" smooth="yes"/>
      <point x="451" y="228"/>
      <point x="457" y="205"/>
      <point x="457" y="183" type="curve" smooth="yes"/>
      <point x="457" y="154"/>
      <point x="452" y="127"/>
      <point x="442" y="102" type="curve" smooth="yes"/>
      <point x="432" y="78"/>
      <point x="416" y="58"/>
      <point x="393" y="40" type="curve" smooth="yes"/>
      <point x="371" y="24"/>
      <point x="349" y="13"/>
      <point x="325" y="7" type="curve" smooth="yes"/>
      <point x="313" y="5"/>
      <point x="301" y="3"/>
      <point x="288" y="1" type="curve" smooth="yes"/>
      <point x="276" y="0"/>
      <point x="261" y="0"/>
      <point x="243" y="-1" type="curve" smooth="yes"/>
      <point x="234" y="-1"/>
      <point x="225" y="-1"/>
      <point x="214" y="0" type="curve" smooth="yes"/>
      <point x="204" y="0"/>
      <point x="195" y="1"/>
      <point x="185" y="4" type="curve" smooth="yes"/>
      <point x="167" y="8"/>
      <point x="150" y="14"/>
      <point x="134" y="23" type="curve" smooth="yes"/>
      <point x="120" y="31"/>
      <point x="103" y="47"/>
      <point x="82" y="72" type="curve" smooth="yes"/>
    </contour>
  </outline>
</glyph>
<glyph name="u1A28" format="2">
  <advance width="502"/>
  <unicode hex="1A28"/>
  <anchor x="249" y="-1" name="L"/>
  <anchor x="437" y="0" name="LR"/>
  <anchor x="242" y="409" name="U"/>
  <anchor x="430" y="411" name="UR"/>
  <outline>
    <contour>
      <point x="101" y="77" type="curve" smooth="yes"/>
      <point x="99" y="73"/>
      <point x="98" y="67"/>
      <point x="96" y="59" type="curve" smooth="yes"/>
      <point x="96" y="51"/>
      <point x="99" y="44"/>
      <point x="105" y="38" type="curve" smooth="yes"/>
      <point x="110" y="34"/>
      <point x="117" y="32"/>
      <point x="126" y="30" type="curve" smooth="yes"/>
      <point x="139" y="32" type="line" smooth="yes"/>
      <point x="142" y="32"/>
      <point x="146" y="37"/>
      <point x="153" y="47" type="curve" smooth="yes"/>
      <point x="160" y="69" type="line" smooth="yes"/>
      <point x="159" y="70"/>
      <point x="158" y="71"/>
      <point x="155" y="73" type="curve" smooth="yes"/>
      <point x="154" y="74"/>
      <point x="152" y="75"/>
      <point x="149" y="77" type="curve" smooth="yes"/>
      <point x="147" y="78"/>
      <point x="142" y="79"/>
      <point x="134" y="81" type="curve" smooth="yes"/>
      <point x="128" y="83"/>
      <point x="123" y="84"/>
      <point x="119" y="85" type="curve" smooth="yes"/>
      <point x="111" y="85"/>
      <point x="105" y="83"/>
    </contour>
    <contour>
      <point x="227" y="356" type="line" smooth="yes"/>
      <point x="245" y="357" type="line" smooth="yes"/>
      <point x="257" y="357"/>
      <point x="268" y="356"/>
      <point x="278" y="354" type="curve" smooth="yes"/>
      <point x="288" y="352"/>
      <point x="300" y="348"/>
      <point x="314" y="342" type="curve" smooth="yes"/>
      <point x="327" y="337"/>
      <point x="346" y="326"/>
      <point x="373" y="309" type="curve" smooth="yes"/>
      <point x="395" y="295"/>
      <point x="411" y="276"/>
      <point x="423" y="252" type="curve" smooth="yes"/>
      <point x="435" y="228"/>
      <point x="441" y="205"/>
      <point x="441" y="183" type="curve" smooth="yes"/>
      <point x="441" y="155"/>
      <point x="435" y="127"/>
      <point x="423" y="99" type="curve" smooth="yes"/>
      <point x="411" y="72"/>
      <point x="395" y="50"/>
      <point x="374" y="33" type="curve" smooth="yes"/>
      <point x="358" y="21"/>
      <point x="343" y="12"/>
      <point x="329" y="6" type="curve" smooth="yes"/>
      <point x="315" y="2"/>
      <point x="301" y="0"/>
      <point x="287" y="-1" type="curve" smooth="yes"/>
      <point x="264" y="-1"/>
      <point x="245" y="5"/>
      <point x="230" y="18" type="curve" smooth="yes"/>
      <point x="189" y="57" type="line" smooth="yes"/>
      <point x="185" y="43"/>
      <point x="176" y="30"/>
      <point x="160" y="18" type="curve" smooth="yes"/>
      <point x="146" y="7"/>
      <point x="128" y="2"/>
      <point x="104" y="1" type="curve" smooth="yes"/>
      <point x="92" y="1"/>
      <point x="81" y="7"/>
      <point x="69" y="21" type="curve" smooth="yes"/>
      <point x="59" y="35"/>
      <point x="54" y="49"/>
      <point x="54" y="63" type="curve" smooth="yes"/>
      <point x="57" y="77" type="line" smooth="yes"/>
      <point x="61" y="86"/>
      <point x="69" y="95"/>
      <point x="81" y="105" type="curve" smooth="yes"/>
      <point x="93" y="113"/>
      <point x="107" y="117"/>
      <point x="123" y="117" type="curve" smooth="yes"/>
      <point x="137" y="117"/>
      <point x="152" y="113"/>
      <point x="170" y="104" type="curve" smooth="yes"/>
      <point x="169" y="128" type="line" smooth="yes"/>
      <point x="169" y="137"/>
      <point x="163" y="146"/>
      <point x="151" y="155" type="curve" smooth="yes"/>
      <point x="135" y="159" type="line" smooth="yes"/>
      <point x="122" y="158" type="line" smooth="yes"/>
      <point x="108" y="157" type="line" smooth="yes"/>
      <point x="100" y="157"/>
      <point x="94" y="158"/>
      <point x="88" y="161" type="curve" smooth="yes"/>
      <point x="84" y="164"/>
      <point x="81" y="170"/>
      <point x="79" y="180" type="curve" smooth="yes"/>
      <point x="79" y="187"/>
      <point x="84" y="194"/>
      <point x="95" y="203" type="curve" smooth="yes"/>
      <point x="105" y="209"/>
      <point x="115" y="212"/>
      <point x="126" y="214" type="curve" smooth="yes"/>
      <point x="143" y="214"/>
      <point x="159" y="207"/>
      <point x="175" y="193" type="curve" smooth="yes"/>
      <point x="184" y="184"/>
      <point x="190" y="176"/>
      <point x="193" y="168" type="curve" smooth="yes"/>
      <point x="198" y="144" type="line" smooth="yes"/>
      <point x="199" y="116" type="line" smooth="yes"/>
      <point x="199" y="103" type="line" smooth="yes"/>
      <point x="198" y="95" type="line" smooth="yes"/>
      <point x="249" y="55" type="line" smooth="yes"/>
      <point x="257" y="49"/>
      <point x="266" y="44"/>
      <point x="276" y="39" type="curve" smooth="yes"/>
      <point x="285" y="35"/>
      <point x="294" y="33"/>
      <point x="305" y="33" type="curve" smooth="yes"/>
      <point x="318" y="33"/>
      <point x="333" y="38"/>
      <point x="352" y="48" type="curve" smooth="yes"/>
      <point x="363" y="54"/>
      <point x="374" y="69"/>
      <point x="386" y="95" type="curve" smooth="yes"/>
      <point x="397" y="120"/>
      <point x="402" y="145"/>
      <point x="403" y="170" type="curve" smooth="yes"/>
      <point x="403" y="188"/>
      <point x="400" y="205"/>
      <point x="392" y="221" type="curve" smooth="yes"/>
      <point x="382" y="243"/>
      <point x="368" y="261"/>
      <point x="348" y="275" type="curve" smooth="yes"/>
      <point x="336" y="283"/>
      <point x="325" y="289"/>
      <point x="315" y="295" type="curve" smooth="yes"/>
      <point x="306" y="301"/>
      <point x="297" y="306"/>
      <point x="287" y="310" type="curve" smooth="yes"/>
      <point x="264" y="320"/>
      <point x="240" y="325"/>
      <point x="214" y="325" type="curve" smooth="yes"/>
      <point x="186" y="325"/>
      <point x="162" y="319"/>
      <point x="140" y="307" type="curve" smooth="yes"/>
      <point x="87" y="258" type="line" smooth="yes"/>
      <point x="83" y="256"/>
      <point x="77" y="255"/>
      <point x="68" y="253" type="curve" smooth="yes"/>
      <point x="54" y="256" type="line" smooth="yes"/>
      <point x="46" y="260" type="line" smooth="yes"/>
      <point x="44" y="272" type="line" smooth="yes"/>
      <point x="44" y="280"/>
      <point x="45" y="288"/>
      <point x="48" y="296" type="curve" smooth="yes"/>
      <point x="50" y="304"/>
      <point x="55" y="309"/>
      <point x="63" y="313" type="curve" smooth="yes"/>
      <point x="115" y="332" type="line" smooth="yes"/>
      <point x="163" y="356" type="line" smooth="yes"/>
      <point x="166" y="357"/>
      <point x="169" y="357"/>
      <point x="172" y="354" type="curve" smooth="yes"/>
      <point x="172" y="354"/>
      <point x="172" y="352"/>
      <point x="173" y="348" type="curve" smooth="yes"/>
      <point x="91" y="308" type="line" smooth="yes"/>
      <point x="77" y="301" type="line" smooth="yes"/>
      <point x="74" y="300"/>
      <point x="74" y="298"/>
      <point x="75" y="293" type="curve" smooth="yes"/>
      <point x="79" y="289"/>
      <point x="84" y="289"/>
      <point x="92" y="293" type="curve" smooth="yes"/>
      <point x="131" y="320" type="line" smooth="yes"/>
      <point x="162" y="339" type="line" smooth="yes"/>
      <point x="171" y="343"/>
      <point x="180" y="346"/>
      <point x="190" y="350" type="curve" smooth="yes"/>
    </contour>
  </outline>
</glyph>
<glyph name="u1A29" format="1">
  <advance width="615"/>
  <unicode hex="1A29"/>
  <outline>
    <contour>
      <point x="502" y="141" type="curve" smooth="yes"/>
      <point x="477" y="180"/>
      <point x="453" y="206"/>
      <point x="429" y="221" type="curve" smooth="yes"/>
      <point x="399" y="239"/>
      <point x="362" y="248"/>
      <point x="317" y="248" type="curve" smooth="yes"/>
      <point x="304" y="248"/>
      <point x="292" y="244"/>
      <point x="279" y="236" type="curve" smooth="yes"/>
      <point x="273" y="232"/>
      <point x="263" y="223"/>
      <point x="249" y="208" type="curve" smooth="yes"/>
      <point x="223" y="182" type="line" smooth="yes"/>
      <point x="211" y="170"/>
      <point x="208" y="161"/>
      <point x="213" y="154" type="curve" smooth="yes"/>
      <point x="230" y="140"/>
      <point x="245" y="133"/>
      <point x="260" y="133" type="curve" smooth="yes"/>
      <point x="269" y="133"/>
      <point x="278" y="136"/>
      <point x="289" y="142" type="curve" smooth="yes"/>
      <point x="297" y="148"/>
      <point x="304" y="157"/>
      <point x="310" y="169" type="curve" smooth="yes"/>
      <point x="316" y="181"/>
      <point x="319" y="192"/>
      <point x="320" y="202" type="curve" smooth="yes"/>
      <point x="348" y="201" type="line" smooth="yes"/>
      <point x="367" y="198"/>
      <point x="380" y="195"/>
      <point x="387" y="191" type="curve" smooth="yes"/>
      <point x="410" y="180"/>
      <point x="429" y="167"/>
      <point x="445" y="152" type="curve" smooth="yes"/>
      <point x="457" y="140"/>
      <point x="471" y="122"/>
      <point x="488" y="98" type="curve" smooth="yes"/>
      <point x="504" y="76"/>
      <point x="515" y="43"/>
      <point x="521" y="-2" type="curve" smooth="yes"/>
      <point x="532" y="-79" type="line" smooth="yes"/>
      <point x="536" y="-56"/>
      <point x="538" y="-32"/>
      <point x="538" y="-7" type="curve" smooth="yes"/>
      <point x="538" y="22"/>
      <point x="536" y="49"/>
      <point x="530" y="74" type="curve" smooth="yes"/>
      <point x="525" y="98"/>
      <point x="516" y="120"/>
    </contour>
    <contour>
      <point x="313" y="79" type="curve" smooth="yes"/>
      <point x="296" y="70"/>
      <point x="288" y="58"/>
      <point x="287" y="43" type="curve" smooth="yes"/>
      <point x="287" y="33"/>
      <point x="291" y="23"/>
      <point x="299" y="13" type="curve" smooth="yes"/>
      <point x="307" y="5"/>
      <point x="315" y="1"/>
      <point x="325" y="0" type="curve" smooth="yes"/>
      <point x="359" y="0"/>
      <point x="376" y="15"/>
      <point x="377" y="47" type="curve" smooth="yes"/>
      <point x="377" y="74"/>
      <point x="370" y="93"/>
      <point x="356" y="106" type="curve" smooth="yes"/>
      <point x="342" y="118"/>
      <point x="320" y="124"/>
      <point x="289" y="124" type="curve" smooth="yes"/>
      <point x="272" y="124"/>
      <point x="256" y="115"/>
      <point x="239" y="97" type="curve" smooth="yes"/>
      <point x="207" y="58"/>
      <point x="180" y="39"/>
      <point x="156" y="38" type="curve" smooth="yes"/>
      <point x="132" y="38"/>
      <point x="113" y="47"/>
      <point x="99" y="65" type="curve" smooth="yes"/>
      <point x="86" y="83"/>
      <point x="80" y="103"/>
      <point x="79" y="125" type="curve" smooth="yes"/>
      <point x="79" y="163"/>
      <point x="84" y="190"/>
      <point x="94" y="206" type="curve" smooth="yes"/>
      <point x="104" y="221"/>
      <point x="130" y="234"/>
      <point x="174" y="247" type="curve" smooth="yes"/>
      <point x="200" y="255" type="line" smooth="yes"/>
      <point x="216" y="262" type="line" smooth="yes"/>
      <point x="220" y="264"/>
      <point x="224" y="268"/>
      <point x="229" y="274" type="curve" smooth="yes"/>
      <point x="233" y="280"/>
      <point x="235" y="285"/>
      <point x="235" y="291" type="curve" smooth="yes"/>
      <point x="235" y="299"/>
      <point x="232" y="307"/>
      <point x="225" y="316" type="curve" smooth="yes"/>
      <point x="224" y="317"/>
      <point x="222" y="317"/>
      <point x="218" y="316" type="curve" smooth="yes"/>
      <point x="216" y="315"/>
      <point x="212" y="312"/>
      <point x="205" y="305" type="curve" smooth="yes"/>
      <point x="197" y="296" type="line" smooth="yes"/>
      <point x="199" y="288"/>
      <point x="198" y="282"/>
      <point x="194" y="278" type="curve" smooth="yes"/>
      <point x="153" y="265" type="line" smooth="yes"/>
      <point x="117" y="256"/>
      <point x="90" y="242"/>
      <point x="71" y="221" type="curve" smooth="yes"/>
      <point x="49" y="197"/>
      <point x="38" y="163"/>
      <point x="38" y="119" type="curve" smooth="yes"/>
      <point x="38" y="87"/>
      <point x="49" y="60"/>
      <point x="71" y="36" type="curve" smooth="yes"/>
      <point x="93" y="13"/>
      <point x="123" y="2"/>
      <point x="162" y="1" type="curve" smooth="yes"/>
      <point x="190" y="1"/>
      <point x="215" y="16"/>
      <point x="237" y="48" type="curve" smooth="yes"/>
      <point x="259" y="80"/>
      <point x="276" y="96"/>
      <point x="289" y="96" type="curve" smooth="yes"/>
      <point x="309" y="96"/>
      <point x="324" y="92"/>
      <point x="335" y="83" type="curve" smooth="yes"/>
      <point x="345" y="75"/>
      <point x="350" y="66"/>
      <point x="350" y="54" type="curve" smooth="yes"/>
      <point x="350" y="40"/>
      <point x="344" y="32"/>
      <point x="331" y="28" type="curve" smooth="yes"/>
      <point x="322" y="27"/>
      <point x="318" y="31"/>
      <point x="317" y="42" type="curve" smooth="yes"/>
      <point x="317" y="49"/>
      <point x="320" y="55"/>
      <point x="328" y="61" type="curve" smooth="yes"/>
      <point x="330" y="63"/>
      <point x="329" y="66"/>
      <point x="324" y="72" type="curve" smooth="yes"/>
      <point x="320" y="77"/>
      <point x="317" y="79"/>
    </contour>
    <contour>
      <point x="239" y="172" type="line" smooth="yes"/>
      <point x="242" y="177" type="line" smooth="yes"/>
      <point x="258" y="192" type="line" smooth="yes"/>
      <point x="261" y="195"/>
      <point x="267" y="198"/>
      <point x="276" y="202" type="curve" smooth="yes"/>
      <point x="297" y="205" type="line" smooth="yes"/>
      <point x="304" y="205" type="line" smooth="yes"/>
      <point x="310" y="204" type="line" smooth="yes"/>
      <point x="307" y="193" type="line" smooth="yes"/>
      <point x="303" y="185"/>
      <point x="297" y="178"/>
      <point x="289" y="172" type="curve" smooth="yes"/>
      <point x="287" y="170"/>
      <point x="283" y="169"/>
      <point x="275" y="168" type="curve" smooth="yes"/>
      <point x="264" y="167" type="line" smooth="yes"/>
      <point x="250" y="168" type="line" smooth="yes"/>
    </contour>
    <contour>
      <point x="176" y="330" type="curve" smooth="yes"/>
      <point x="174" y="330"/>
      <point x="173" y="328"/>
      <point x="172" y="323" type="curve" smooth="yes"/>
      <point x="174" y="315" type="line" smooth="yes"/>
      <point x="175" y="309"/>
      <point x="178" y="305"/>
      <point x="184" y="301" type="curve" smooth="yes"/>
      <point x="190" y="298"/>
      <point x="197" y="297"/>
      <point x="206" y="298" type="curve" smooth="yes"/>
      <point x="231" y="306"/>
      <point x="252" y="311"/>
      <point x="269" y="313" type="curve" smooth="yes"/>
      <point x="332" y="316" type="line" smooth="yes"/>
      <point x="358" y="316"/>
      <point x="381" y="314"/>
      <point x="403" y="309" type="curve" smooth="yes"/>
      <point x="412" y="308"/>
      <point x="421" y="306"/>
      <point x="431" y="303" type="curve" smooth="yes"/>
      <point x="441" y="301"/>
      <point x="456" y="296"/>
      <point x="476" y="288" type="curve" smooth="yes"/>
      <point x="496" y="282"/>
      <point x="518" y="271"/>
      <point x="542" y="253" type="curve" smooth="yes"/>
      <point x="596" y="212" type="line" smooth="yes"/>
      <point x="551" y="279" type="line" smooth="yes"/>
      <point x="527" y="303"/>
      <point x="501" y="320"/>
      <point x="471" y="331" type="curve" smooth="yes"/>
      <point x="461" y="335"/>
      <point x="449" y="338"/>
      <point x="434" y="342" type="curve" smooth="yes"/>
      <point x="421" y="346"/>
      <point x="410" y="349"/>
      <point x="399" y="351" type="curve" smooth="yes"/>
      <point x="389" y="353"/>
      <point x="380" y="354"/>
      <point x="371" y="355" type="curve" smooth="yes"/>
      <point x="363" y="355"/>
      <point x="350" y="355"/>
      <point x="330" y="356" type="curve" smooth="yes"/>
      <point x="310" y="356"/>
      <point x="295" y="356"/>
      <point x="284" y="355" type="curve" smooth="yes"/>
      <point x="275" y="355"/>
      <point x="262" y="353"/>
      <point x="245" y="348" type="curve" smooth="yes"/>
      <point x="219" y="344"/>
      <point x="196" y="338"/>
    </contour>
    <contour>
      <point x="324.5" y="0" type="move" name="L"/>
    </contour>
    <contour>
      <point x="580" y="0" type="move" name="LR"/>
    </contour>
    <contour>
      <point x="336.5" y="416" type="move" name="U"/>
    </contour>
    <contour>
      <point x="526" y="416" type="move" name="UR"/>
    </contour>
  </outline>
</glyph>
<glyph name="u1A2A" format="1">
  <advance width="594"/>
  <unicode hex="1A2A"/>
  <outline>
    <contour>
      <point x="550" y="588" type="curve" smooth="yes"/>
      <point x="544" y="610"/>
      <point x="519" y="630"/>
      <point x="474" y="649" type="curve" smooth="yes"/>
      <point x="450" y="659"/>
      <point x="423" y="666"/>
      <point x="392" y="672" type="curve" smooth="yes"/>
      <point x="362" y="677"/>
      <point x="329" y="679"/>
      <point x="292" y="680" type="curve" smooth="yes"/>
      <point x="199" y="680"/>
      <point x="133" y="661"/>
      <point x="92" y="621" type="curve" smooth="yes"/>
      <point x="60" y="590"/>
      <point x="44" y="547"/>
      <point x="44" y="490" type="curve" smooth="yes"/>
      <point x="44" y="164" type="line" smooth="yes"/>
      <point x="46" y="152"/>
      <point x="49" y="142"/>
      <point x="55" y="134" type="curve" smooth="yes"/>
      <point x="60" y="127"/>
      <point x="65" y="123"/>
      <point x="72" y="122" type="curve" smooth="yes"/>
      <point x="77" y="122"/>
      <point x="80" y="125"/>
      <point x="81" y="132" type="curve" smooth="yes"/>
      <point x="82" y="494" type="line" smooth="yes"/>
      <point x="82" y="548"/>
      <point x="99" y="588"/>
      <point x="133" y="614" type="curve" smooth="yes"/>
      <point x="167" y="639"/>
      <point x="222" y="651"/>
      <point x="299" y="652" type="curve" smooth="yes"/>
      <point x="332" y="652"/>
      <point x="360" y="651"/>
      <point x="384" y="649" type="curve" smooth="yes"/>
      <point x="408" y="647"/>
      <point x="427" y="644"/>
      <point x="442" y="639" type="curve" smooth="yes"/>
      <point x="456" y="635"/>
      <point x="492" y="618"/>
    </contour>
    <contour>
      <point x="512" y="141" type="curve" smooth="yes"/>
      <point x="487" y="180"/>
      <point x="463" y="206"/>
      <point x="439" y="221" type="curve" smooth="yes"/>
      <point x="409" y="239"/>
      <point x="372" y="248"/>
      <point x="327" y="248" type="curve" smooth="yes"/>
      <point x="314" y="248"/>
      <point x="302" y="244"/>
      <point x="289" y="236" type="curve" smooth="yes"/>
      <point x="283" y="232"/>
      <point x="273" y="223"/>
      <point x="259" y="208" type="curve" smooth="yes"/>
      <point x="233" y="182" type="line" smooth="yes"/>
      <point x="221" y="170"/>
      <point x="218" y="161"/>
      <point x="223" y="154" type="curve" smooth="yes"/>
      <point x="240" y="140"/>
      <point x="255" y="133"/>
      <point x="270" y="133" type="curve" smooth="yes"/>
      <point x="279" y="133"/>
      <point x="288" y="136"/>
      <point x="299" y="142" type="curve" smooth="yes"/>
      <point x="307" y="148"/>
      <point x="314" y="157"/>
      <point x="320" y="169" type="curve" smooth="yes"/>
      <point x="326" y="181"/>
      <point x="329" y="192"/>
      <point x="330" y="202" type="curve" smooth="yes"/>
      <point x="358" y="201" type="line" smooth="yes"/>
      <point x="377" y="198"/>
      <point x="390" y="195"/>
      <point x="397" y="191" type="curve" smooth="yes"/>
      <point x="420" y="180"/>
      <point x="439" y="167"/>
      <point x="455" y="152" type="curve" smooth="yes"/>
      <point x="467" y="140"/>
      <point x="481" y="122"/>
      <point x="498" y="98" type="curve" smooth="yes"/>
      <point x="514" y="76"/>
      <point x="525" y="43"/>
      <point x="531" y="-2" type="curve" smooth="yes"/>
      <point x="542" y="-79" type="line" smooth="yes"/>
      <point x="546" y="-56"/>
      <point x="548" y="-32"/>
      <point x="548" y="-7" type="curve" smooth="yes"/>
      <point x="548" y="22"/>
      <point x="546" y="49"/>
      <point x="540" y="74" type="curve" smooth="yes"/>
      <point x="535" y="98"/>
      <point x="526" y="120"/>
    </contour>
    <contour>
      <point x="323" y="79" type="curve" smooth="yes"/>
      <point x="306" y="70"/>
      <point x="298" y="58"/>
      <point x="297" y="43" type="curve" smooth="yes"/>
      <point x="297" y="33"/>
      <point x="301" y="23"/>
      <point x="309" y="13" type="curve" smooth="yes"/>
      <point x="317" y="5"/>
      <point x="325" y="1"/>
      <point x="335" y="0" type="curve" smooth="yes"/>
      <point x="369" y="0"/>
      <point x="386" y="15"/>
      <point x="387" y="47" type="curve" smooth="yes"/>
      <point x="387" y="74"/>
      <point x="380" y="93"/>
      <point x="366" y="106" type="curve" smooth="yes"/>
      <point x="352" y="118"/>
      <point x="330" y="124"/>
      <point x="299" y="124" type="curve" smooth="yes"/>
      <point x="282" y="124"/>
      <point x="266" y="115"/>
      <point x="249" y="97" type="curve" smooth="yes"/>
      <point x="217" y="58"/>
      <point x="190" y="39"/>
      <point x="166" y="38" type="curve" smooth="yes"/>
      <point x="142" y="38"/>
      <point x="123" y="47"/>
      <point x="109" y="65" type="curve" smooth="yes"/>
      <point x="96" y="83"/>
      <point x="90" y="103"/>
      <point x="89" y="125" type="curve" smooth="yes"/>
      <point x="89" y="163"/>
      <point x="94" y="190"/>
      <point x="104" y="206" type="curve" smooth="yes"/>
      <point x="114" y="221"/>
      <point x="140" y="234"/>
      <point x="184" y="247" type="curve" smooth="yes"/>
      <point x="210" y="255" type="line" smooth="yes"/>
      <point x="226" y="262" type="line" smooth="yes"/>
      <point x="230" y="264"/>
      <point x="234" y="268"/>
      <point x="239" y="274" type="curve" smooth="yes"/>
      <point x="243" y="280"/>
      <point x="245" y="285"/>
      <point x="245" y="291" type="curve" smooth="yes"/>
      <point x="245" y="299"/>
      <point x="242" y="307"/>
      <point x="235" y="316" type="curve" smooth="yes"/>
      <point x="234" y="317"/>
      <point x="232" y="317"/>
      <point x="228" y="316" type="curve" smooth="yes"/>
      <point x="226" y="315"/>
      <point x="222" y="312"/>
      <point x="215" y="305" type="curve" smooth="yes"/>
      <point x="207" y="296" type="line" smooth="yes"/>
      <point x="209" y="288"/>
      <point x="208" y="282"/>
      <point x="204" y="278" type="curve" smooth="yes"/>
      <point x="163" y="265" type="line" smooth="yes"/>
      <point x="127" y="256"/>
      <point x="100" y="242"/>
      <point x="81" y="221" type="curve" smooth="yes"/>
      <point x="59" y="197"/>
      <point x="48" y="163"/>
      <point x="48" y="119" type="curve" smooth="yes"/>
      <point x="48" y="87"/>
      <point x="59" y="60"/>
      <point x="81" y="36" type="curve" smooth="yes"/>
      <point x="103" y="13"/>
      <point x="133" y="2"/>
      <point x="172" y="1" type="curve" smooth="yes"/>
      <point x="200" y="1"/>
      <point x="225" y="16"/>
      <point x="247" y="48" type="curve" smooth="yes"/>
      <point x="269" y="80"/>
      <point x="286" y="96"/>
      <point x="299" y="96" type="curve" smooth="yes"/>
      <point x="319" y="96"/>
      <point x="334" y="92"/>
      <point x="345" y="83" type="curve" smooth="yes"/>
      <point x="355" y="75"/>
      <point x="360" y="66"/>
      <point x="360" y="54" type="curve" smooth="yes"/>
      <point x="360" y="40"/>
      <point x="354" y="32"/>
      <point x="341" y="28" type="curve" smooth="yes"/>
      <point x="332" y="27"/>
      <point x="328" y="31"/>
      <point x="327" y="42" type="curve" smooth="yes"/>
      <point x="327" y="49"/>
      <point x="330" y="55"/>
      <point x="338" y="61" type="curve" smooth="yes"/>
      <point x="340" y="63"/>
      <point x="339" y="66"/>
      <point x="334" y="72" type="curve" smooth="yes"/>
      <point x="330" y="77"/>
      <point x="327" y="79"/>
    </contour>
    <contour>
      <point x="249" y="172" type="line" smooth="yes"/>
      <point x="252" y="177" type="line" smooth="yes"/>
      <point x="268" y="192" type="line" smooth="yes"/>
      <point x="271" y="195"/>
      <point x="277" y="198"/>
      <point x="286" y="202" type="curve" smooth="yes"/>
      <point x="307" y="205" type="line" smooth="yes"/>
      <point x="314" y="205" type="line" smooth="yes"/>
      <point x="320" y="204" type="line" smooth="yes"/>
      <point x="317" y="193" type="line" smooth="yes"/>
      <point x="313" y="185"/>
      <point x="307" y="178"/>
      <point x="299" y="172" type="curve" smooth="yes"/>
      <point x="297" y="170"/>
      <point x="293" y="169"/>
      <point x="285" y="168" type="curve" smooth="yes"/>
      <point x="274" y="167" type="line" smooth="yes"/>
      <point x="260" y="168" type="line" smooth="yes"/>
    </contour>
    <contour>
      <point x="186" y="330" type="curve" smooth="yes"/>
      <point x="184" y="330"/>
      <point x="183" y="328"/>
      <point x="182" y="323" type="curve" smooth="yes"/>
      <point x="184" y="315" type="line" smooth="yes"/>
      <point x="185" y="309"/>
      <point x="188" y="305"/>
      <point x="194" y="301" type="curve" smooth="yes"/>
      <point x="200" y="298"/>
      <point x="207" y="297"/>
      <point x="216" y="298" type="curve" smooth="yes"/>
      <point x="241" y="306"/>
      <point x="262" y="311"/>
      <point x="279" y="313" type="curve" smooth="yes"/>
      <point x="342" y="316" type="line" smooth="yes"/>
      <point x="368" y="316"/>
      <point x="391" y="314"/>
      <point x="413" y="309" type="curve" smooth="yes"/>
      <point x="422" y="308"/>
      <point x="431" y="306"/>
      <point x="441" y="303" type="curve" smooth="yes"/>
      <point x="451" y="301"/>
      <point x="466" y="296"/>
      <point x="486" y="288" type="curve" smooth="yes"/>
      <point x="506" y="282"/>
      <point x="527" y="271"/>
      <point x="551" y="253" type="curve" smooth="yes"/>
      <point x="604" y="212" type="line" smooth="yes"/>
      <point x="577" y="259" type="line" smooth="yes"/>
      <point x="551" y="293"/>
      <point x="519" y="317"/>
      <point x="480" y="332" type="curve" smooth="yes"/>
      <point x="454" y="341"/>
      <point x="433" y="347"/>
      <point x="417" y="350" type="curve" smooth="yes"/>
      <point x="402" y="352"/>
      <point x="390" y="353"/>
      <point x="381" y="355" type="curve" smooth="yes"/>
      <point x="373" y="355"/>
      <point x="360" y="355"/>
      <point x="340" y="356" type="curve" smooth="yes"/>
      <point x="320" y="356"/>
      <point x="305" y="356"/>
      <point x="294" y="355" type="curve" smooth="yes"/>
      <point x="285" y="355"/>
      <point x="272" y="353"/>
      <point x="255" y="348" type="curve" smooth="yes"/>
      <point x="229" y="344"/>
      <point x="206" y="338"/>
    </contour>
    <contour>
      <point x="335.5" y="0" type="move" name="L"/>
    </contour>
    <contour>
      <point x="585" y="0" type="move" name="LR"/>
    </contour>
    <contour>
      <point x="334.5" y="396" type="move" name="U"/>
    </contour>
    <contour>
      <point x="546" y="416" type="move" name="UR"/>
    </contour>
  </outline>
</glyph>
<glyph name="u1A2B" format="2">
  <advance width="594"/>
  <unicode hex="1A2B"/>
  <anchor x="238.5" y="-82" name="L"/>
  <anchor x="520" y="-64" name="LR"/>
  <anchor x="248.5" y="416" name="U"/>
  <anchor x="510" y="416" name="UR"/>
  <outline>
    <contour>
      <point x="361" y="40" type="curve" smooth="yes"/>
      <point x="363" y="31"/>
      <point x="367" y="21"/>
      <point x="373" y="9" type="curve" smooth="yes"/>
      <point x="384" y="-13"/>
      <point x="400" y="-24"/>
      <point x="421" y="-24" type="curve" smooth="yes"/>
      <point x="445" y="-24"/>
      <point x="461" y="-11"/>
      <point x="470" y="17" type="curve" smooth="yes"/>
      <point x="474" y="31"/>
      <point x="476" y="48"/>
      <point x="476" y="70" type="curve" smooth="yes"/>
      <point x="477" y="278" type="line" smooth="yes"/>
      <point x="477" y="288"/>
      <point x="473" y="299"/>
      <point x="463" y="311" type="curve" smooth="yes"/>
      <point x="448" y="329" type="line" smooth="yes"/>
      <point x="460" y="339" type="line" smooth="yes"/>
      <point x="476" y="349"/>
      <point x="487" y="354"/>
      <point x="494" y="356" type="curve" smooth="yes"/>
      <point x="506" y="356"/>
      <point x="515" y="353"/>
      <point x="523" y="347" type="curve" smooth="yes"/>
      <point x="523" y="327" type="line" smooth="yes"/>
      <point x="526" y="294" type="line" smooth="yes"/>
      <point x="528" y="283"/>
      <point x="533" y="271"/>
      <point x="542" y="257" type="curve" smooth="yes"/>
      <point x="527" y="271" type="line" smooth="yes"/>
      <point x="508" y="292" type="line" smooth="yes"/>
      <point x="504" y="310" type="line" smooth="yes"/>
      <point x="501" y="335" type="line" smooth="yes"/>
      <point x="490" y="329" type="line" smooth="yes"/>
      <point x="499" y="304" type="line" smooth="yes"/>
      <point x="509" y="278" type="line" smooth="yes"/>
      <point x="508" y="75" type="line" smooth="yes"/>
      <point x="508" y="61" type="line" smooth="yes"/>
      <point x="508" y="32"/>
      <point x="504" y="9"/>
      <point x="495" y="-10" type="curve" smooth="yes"/>
      <point x="481" y="-40"/>
      <point x="456" y="-55"/>
      <point x="419" y="-55" type="curve" smooth="yes"/>
      <point x="395" y="-55"/>
      <point x="377" y="-49"/>
      <point x="364" y="-35" type="curve" smooth="yes"/>
      <point x="352" y="-22"/>
      <point x="346" y="-7"/>
      <point x="346" y="10" type="curve" smooth="yes"/>
      <point x="346" y="26"/>
      <point x="351" y="36"/>
    </contour>
    <contour>
      <point x="122" y="-8" type="curve" smooth="yes"/>
      <point x="134" y="-22"/>
      <point x="146" y="-32"/>
      <point x="159" y="-40" type="curve" smooth="yes"/>
      <point x="167" y="-45"/>
      <point x="179" y="-49"/>
      <point x="197" y="-54" type="curve" smooth="yes"/>
      <point x="233" y="-58" type="line" smooth="yes"/>
      <point x="258" y="-58"/>
      <point x="282" y="-52"/>
      <point x="305" y="-39" type="curve" smooth="yes"/>
      <point x="328" y="-27"/>
      <point x="339" y="-6"/>
      <point x="340" y="24" type="curve" smooth="yes"/>
      <point x="340" y="34"/>
      <point x="337" y="44"/>
      <point x="331" y="54" type="curve" smooth="yes"/>
      <point x="325" y="63"/>
      <point x="315" y="72"/>
      <point x="299" y="83" type="curve" smooth="yes"/>
      <point x="254" y="103" type="line" smooth="yes"/>
      <point x="239" y="107"/>
      <point x="224" y="109"/>
      <point x="207" y="110" type="curve" smooth="yes"/>
      <point x="181" y="110"/>
      <point x="159" y="105"/>
      <point x="141" y="94" type="curve" smooth="yes"/>
      <point x="132" y="89"/>
      <point x="124" y="82"/>
      <point x="116" y="71" type="curve" smooth="yes"/>
      <point x="127" y="73" type="line" smooth="yes"/>
      <point x="143" y="70" type="line" smooth="yes"/>
      <point x="159" y="59" type="line" smooth="yes"/>
      <point x="162" y="57"/>
      <point x="164" y="54"/>
      <point x="167" y="48" type="curve" smooth="yes"/>
      <point x="167" y="33" type="line" smooth="yes"/>
      <point x="167" y="28"/>
      <point x="162" y="21"/>
      <point x="151" y="10" type="curve" smooth="yes"/>
      <point x="141" y="2"/>
      <point x="132" y="-4"/>
    </contour>
    <contour>
      <point x="88" y="-13" type="curve" smooth="yes"/>
      <point x="112" y="-1" type="line" smooth="yes"/>
      <point x="128" y="10" type="line" smooth="yes"/>
      <point x="133" y="15"/>
      <point x="136" y="21"/>
      <point x="138" y="28" type="curve" smooth="yes"/>
      <point x="138" y="32"/>
      <point x="135" y="36"/>
      <point x="128" y="40" type="curve" smooth="yes"/>
      <point x="122" y="43"/>
      <point x="114" y="45"/>
      <point x="104" y="47" type="curve" smooth="yes"/>
      <point x="95" y="48"/>
      <point x="89" y="49"/>
      <point x="86" y="50" type="curve" smooth="yes"/>
      <point x="84" y="50"/>
      <point x="82" y="51"/>
      <point x="80" y="53" type="curve" smooth="yes"/>
      <point x="85" y="62" type="line" smooth="yes"/>
      <point x="89" y="70"/>
      <point x="94" y="77"/>
      <point x="101" y="84" type="curve" smooth="yes"/>
      <point x="108" y="91"/>
      <point x="117" y="98"/>
      <point x="129" y="107" type="curve" smooth="yes"/>
      <point x="157" y="127"/>
      <point x="186" y="137"/>
      <point x="216" y="137" type="curve" smooth="yes"/>
      <point x="253" y="137"/>
      <point x="287" y="126"/>
      <point x="319" y="104" type="curve" smooth="yes"/>
      <point x="351" y="83"/>
      <point x="367" y="59"/>
      <point x="367" y="32" type="curve" smooth="yes"/>
      <point x="367" y="14"/>
      <point x="364" y="-2"/>
      <point x="356" y="-17" type="curve" smooth="yes"/>
      <point x="350" y="-31"/>
      <point x="339" y="-43"/>
      <point x="323" y="-54" type="curve" smooth="yes"/>
      <point x="307" y="-64"/>
      <point x="290" y="-71"/>
      <point x="272" y="-75" type="curve" smooth="yes"/>
      <point x="255" y="-79"/>
      <point x="236" y="-81"/>
      <point x="215" y="-81" type="curve" smooth="yes"/>
      <point x="203" y="-81"/>
      <point x="191" y="-80"/>
      <point x="177" y="-77" type="curve" smooth="yes"/>
      <point x="165" y="-75"/>
      <point x="153" y="-71"/>
      <point x="141" y="-65" type="curve" smooth="yes"/>
      <point x="131" y="-60"/>
      <point x="119" y="-50"/>
      <point x="105" y="-35" type="curve" smooth="yes"/>
      <point x="101" y="-30"/>
      <point x="97" y="-25"/>
      <point x="92" y="-19" type="curve" smooth="yes"/>
      <point x="92" y="-18"/>
      <point x="91" y="-16"/>
    </contour>
    <contour>
      <point x="363" y="216" type="curve" smooth="yes"/>
      <point x="330" y="258" type="line" smooth="yes"/>
      <point x="308" y="277"/>
      <point x="277" y="286"/>
      <point x="236" y="287" type="curve" smooth="yes"/>
      <point x="228" y="287"/>
      <point x="220" y="285"/>
      <point x="211" y="280" type="curve" smooth="yes"/>
      <point x="203" y="276"/>
      <point x="195" y="271"/>
      <point x="187" y="264" type="curve" smooth="yes"/>
      <point x="170" y="248" type="line" smooth="yes"/>
      <point x="163" y="241"/>
      <point x="161" y="236"/>
      <point x="164" y="231" type="curve" smooth="yes"/>
      <point x="168" y="228"/>
      <point x="173" y="225"/>
      <point x="179" y="222" type="curve" smooth="yes"/>
      <point x="185" y="220"/>
      <point x="190" y="219"/>
      <point x="196" y="218" type="curve" smooth="yes"/>
      <point x="202" y="218"/>
      <point x="209" y="220"/>
      <point x="217" y="224" type="curve" smooth="yes"/>
      <point x="231" y="233"/>
      <point x="238" y="244"/>
      <point x="239" y="259" type="curve" smooth="yes"/>
      <point x="247" y="259"/>
      <point x="255" y="258"/>
      <point x="263" y="256" type="curve" smooth="yes"/>
      <point x="271" y="255"/>
      <point x="277" y="253"/>
      <point x="283" y="250" type="curve" smooth="yes"/>
      <point x="299" y="244"/>
      <point x="312" y="235"/>
      <point x="323" y="222" type="curve" smooth="yes"/>
      <point x="343" y="196" type="line" smooth="yes"/>
      <point x="353" y="184"/>
      <point x="360" y="169"/>
      <point x="365" y="149" type="curve" smooth="yes"/>
      <point x="375" y="99" type="line" smooth="yes"/>
      <point x="382" y="154" type="line" smooth="yes"/>
      <point x="382" y="167"/>
      <point x="381" y="178"/>
      <point x="377" y="187" type="curve" smooth="yes"/>
      <point x="375" y="197"/>
      <point x="371" y="206"/>
    </contour>
    <contour>
      <point x="234" y="186" type="curve" smooth="yes"/>
      <point x="229" y="184"/>
      <point x="225" y="181"/>
      <point x="220" y="176" type="curve" smooth="yes"/>
      <point x="216" y="164" type="line" smooth="yes"/>
      <point x="216" y="160"/>
      <point x="217" y="156"/>
      <point x="221" y="150" type="curve" smooth="yes"/>
      <point x="227" y="142"/>
      <point x="234" y="138"/>
      <point x="242" y="138" type="curve" smooth="yes"/>
      <point x="266" y="138"/>
      <point x="278" y="147"/>
      <point x="278" y="166" type="curve" smooth="yes"/>
      <point x="278" y="197"/>
      <point x="258" y="212"/>
      <point x="217" y="213" type="curve" smooth="yes"/>
      <point x="204" y="213"/>
      <point x="189" y="206"/>
      <point x="172" y="191" type="curve" smooth="yes"/>
      <point x="156" y="177"/>
      <point x="139" y="170"/>
      <point x="120" y="169" type="curve" smooth="yes"/>
      <point x="104" y="169"/>
      <point x="92" y="173"/>
      <point x="83" y="182" type="curve" smooth="yes"/>
      <point x="80" y="186"/>
      <point x="78" y="190"/>
      <point x="75" y="196" type="curve" smooth="yes"/>
      <point x="73" y="201"/>
      <point x="72" y="207"/>
      <point x="72" y="216" type="curve" smooth="yes"/>
      <point x="72" y="232"/>
      <point x="77" y="244"/>
      <point x="87" y="252" type="curve" smooth="yes"/>
      <point x="97" y="260"/>
      <point x="113" y="269"/>
      <point x="137" y="280" type="curve" smooth="yes"/>
      <point x="169" y="295" type="line" smooth="yes"/>
      <point x="175" y="297"/>
      <point x="178" y="302"/>
      <point x="179" y="311" type="curve" smooth="yes"/>
      <point x="179" y="317"/>
      <point x="177" y="322"/>
      <point x="172" y="328" type="curve" smooth="yes"/>
      <point x="168" y="328"/>
      <point x="165" y="327"/>
      <point x="162" y="324" type="curve" smooth="yes"/>
      <point x="153" y="316" type="line" smooth="yes"/>
      <point x="153" y="310"/>
      <point x="153" y="307"/>
      <point x="151" y="305" type="curve" smooth="yes"/>
      <point x="115" y="295" type="line" smooth="yes"/>
      <point x="95" y="291"/>
      <point x="78" y="283"/>
      <point x="62" y="269" type="curve" smooth="yes"/>
      <point x="48" y="257"/>
      <point x="41" y="238"/>
      <point x="41" y="210" type="curve" smooth="yes"/>
      <point x="41" y="192"/>
      <point x="49" y="176"/>
      <point x="65" y="160" type="curve" smooth="yes"/>
      <point x="81" y="146"/>
      <point x="102" y="139"/>
      <point x="128" y="139" type="curve" smooth="yes"/>
      <point x="147" y="139"/>
      <point x="164" y="148"/>
      <point x="180" y="166" type="curve" smooth="yes"/>
      <point x="196" y="184"/>
      <point x="208" y="194"/>
      <point x="217" y="196" type="curve" smooth="yes"/>
      <point x="231" y="196"/>
      <point x="241" y="194"/>
      <point x="249" y="188" type="curve" smooth="yes"/>
      <point x="255" y="185"/>
      <point x="258" y="179"/>
      <point x="260" y="170" type="curve" smooth="yes"/>
      <point x="260" y="162"/>
      <point x="256" y="157"/>
      <point x="246" y="155" type="curve" smooth="yes"/>
      <point x="240" y="154"/>
      <point x="237" y="157"/>
      <point x="236" y="164" type="curve" smooth="yes"/>
      <point x="236" y="168"/>
      <point x="238" y="171"/>
      <point x="244" y="175" type="curve" smooth="yes"/>
      <point x="244" y="178"/>
      <point x="243" y="180"/>
      <point x="241" y="181" type="curve" smooth="yes"/>
      <point x="241" y="182"/>
      <point x="239" y="183"/>
    </contour>
    <contour>
      <point x="185" y="246" type="line" smooth="yes"/>
      <point x="196" y="253" type="line" smooth="yes"/>
      <point x="200" y="257"/>
      <point x="206" y="259"/>
      <point x="215" y="261" type="curve" smooth="yes"/>
      <point x="232" y="261" type="line" smooth="yes"/>
      <point x="232" y="257"/>
      <point x="230" y="253"/>
      <point x="226" y="249" type="curve" smooth="yes"/>
      <point x="223" y="245"/>
      <point x="220" y="243"/>
      <point x="217" y="241" type="curve" smooth="yes"/>
      <point x="215" y="240"/>
      <point x="210" y="240"/>
      <point x="201" y="239" type="curve" smooth="yes"/>
    </contour>
    <contour>
      <point x="138" y="336" type="curve" smooth="yes"/>
      <point x="136" y="327" type="line" smooth="yes"/>
      <point x="140" y="316"/>
      <point x="148" y="312"/>
      <point x="162" y="313" type="curve" smooth="yes"/>
      <point x="205" y="322" type="line" smooth="yes"/>
      <point x="247" y="324" type="line" smooth="yes"/>
      <point x="265" y="324"/>
      <point x="281" y="323"/>
      <point x="296" y="319" type="curve" smooth="yes"/>
      <point x="314" y="317"/>
      <point x="329" y="314"/>
      <point x="343" y="308" type="curve" smooth="yes"/>
      <point x="358" y="304"/>
      <point x="373" y="293"/>
      <point x="390" y="274" type="curve" smooth="yes"/>
      <point x="408" y="253"/>
      <point x="419" y="241"/>
      <point x="424" y="238" type="curve" smooth="yes"/>
      <point x="419" y="257"/>
      <point x="414" y="271"/>
      <point x="408" y="280" type="curve" smooth="yes"/>
      <point x="392" y="310"/>
      <point x="373" y="328"/>
      <point x="350" y="335" type="curve" smooth="yes"/>
      <point x="340" y="338"/>
      <point x="333" y="340"/>
      <point x="327" y="341" type="curve" smooth="yes"/>
      <point x="309" y="345"/>
      <point x="299" y="347"/>
      <point x="295" y="349" type="curve" smooth="yes"/>
      <point x="246" y="352" type="line" smooth="yes"/>
      <point x="236" y="352"/>
      <point x="226" y="352"/>
      <point x="216" y="351" type="curve" smooth="yes"/>
      <point x="206" y="351"/>
      <point x="197" y="350"/>
      <point x="187" y="347" type="curve" smooth="yes"/>
      <point x="179" y="347"/>
      <point x="171" y="346"/>
      <point x="162" y="343" type="curve" smooth="yes"/>
      <point x="154" y="341"/>
      <point x="146" y="339"/>
    </contour>
  </outline>
</glyph>
<glyph name="u1A2C" format="1">
  <advance width="714"/>
  <unicode hex="1A2C"/>
  <outline>
    <contour>
      <point x="671" y="165" type="curve" smooth="yes"/>
      <point x="671" y="128"/>
      <point x="655" y="91"/>
      <point x="623" y="54" type="curve" smooth="yes"/>
      <point x="592" y="18"/>
      <point x="562" y="0"/>
      <point x="531" y="-1" type="curve" smooth="yes"/>
      <point x="492" y="-1"/>
      <point x="456" y="14"/>
      <point x="422" y="46" type="curve" smooth="yes"/>
      <point x="393" y="74"/>
      <point x="379" y="98"/>
      <point x="378" y="120" type="curve" smooth="yes"/>
      <point x="378" y="144"/>
      <point x="383" y="156"/>
      <point x="393" y="157" type="curve" smooth="yes"/>
      <point x="398" y="157"/>
      <point x="402" y="152"/>
      <point x="407" y="140" type="curve" smooth="yes"/>
      <point x="411" y="129"/>
      <point x="417" y="120"/>
      <point x="425" y="111" type="curve" smooth="yes"/>
      <point x="433" y="103"/>
      <point x="439" y="95"/>
      <point x="444" y="87" type="curve" smooth="yes"/>
      <point x="456" y="71"/>
      <point x="469" y="58"/>
      <point x="485" y="48" type="curve" smooth="yes"/>
      <point x="501" y="38"/>
      <point x="516" y="33"/>
      <point x="531" y="33" type="curve" smooth="yes"/>
      <point x="559" y="33"/>
      <point x="582" y="41"/>
      <point x="601" y="58" type="curve" smooth="yes"/>
      <point x="627" y="80"/>
      <point x="640" y="115"/>
      <point x="640" y="165" type="curve" smooth="yes"/>
      <point x="640" y="196"/>
      <point x="629" y="223"/>
      <point x="605" y="248" type="curve" smooth="yes"/>
      <point x="583" y="272"/>
      <point x="559" y="284"/>
      <point x="533" y="285" type="curve" smooth="yes"/>
      <point x="530" y="287"/>
      <point x="528" y="289"/>
      <point x="526" y="292" type="curve" smooth="yes"/>
      <point x="526" y="295"/>
      <point x="525" y="297"/>
      <point x="522" y="299" type="curve" smooth="yes"/>
      <point x="552" y="341" type="line" smooth="yes"/>
      <point x="562" y="351"/>
      <point x="571" y="356"/>
      <point x="580" y="356" type="curve" smooth="yes"/>
      <point x="587" y="356"/>
      <point x="594" y="352"/>
      <point x="603" y="343" type="curve" smooth="yes"/>
      <point x="608" y="338"/>
      <point x="612" y="334"/>
      <point x="615" y="330" type="curve" smooth="yes"/>
      <point x="617" y="327"/>
      <point x="622" y="320"/>
      <point x="630" y="308" type="curve" smooth="yes"/>
      <point x="643" y="288" type="line" smooth="yes"/>
      <point x="625" y="296" type="line" smooth="yes"/>
      <point x="591" y="317" type="line" smooth="yes"/>
      <point x="586" y="319"/>
      <point x="583" y="319"/>
      <point x="580" y="317" type="curve" smooth="yes"/>
      <point x="580" y="315"/>
      <point x="581" y="313"/>
      <point x="583" y="310" type="curve" smooth="yes"/>
      <point x="605" y="297" type="line" smooth="yes"/>
      <point x="627" y="284" type="line" smooth="yes"/>
      <point x="647" y="266"/>
      <point x="660" y="245"/>
      <point x="666" y="221" type="curve" smooth="yes"/>
      <point x="668" y="211"/>
      <point x="669" y="202"/>
      <point x="670" y="192" type="curve" smooth="yes"/>
      <point x="670" y="183"/>
      <point x="670" y="174"/>
    </contour>
    <contour>
      <point x="106" y="254" type="curve" smooth="yes"/>
      <point x="109" y="244" type="line" smooth="yes"/>
      <point x="113" y="236"/>
      <point x="118" y="232"/>
      <point x="125" y="232" type="curve" smooth="yes"/>
      <point x="131" y="232"/>
      <point x="136" y="238"/>
      <point x="140" y="250" type="curve" smooth="yes"/>
      <point x="141" y="254"/>
      <point x="141" y="258"/>
      <point x="140" y="263" type="curve" smooth="yes"/>
      <point x="139" y="267"/>
      <point x="136" y="270"/>
      <point x="130" y="273" type="curve" smooth="yes"/>
      <point x="126" y="275"/>
      <point x="121" y="274"/>
      <point x="115" y="270" type="curve" smooth="yes"/>
      <point x="111" y="267"/>
      <point x="108" y="262"/>
    </contour>
    <contour>
      <point x="370" y="144" type="curve" smooth="yes"/>
      <point x="369" y="254" type="line" smooth="yes"/>
      <point x="369" y="301"/>
      <point x="349" y="324"/>
      <point x="308" y="325" type="curve" smooth="yes"/>
      <point x="297" y="325"/>
      <point x="287" y="322"/>
      <point x="276" y="316" type="curve" smooth="yes"/>
      <point x="258" y="304"/>
      <point x="245" y="298"/>
      <point x="236" y="296" type="curve" smooth="yes"/>
      <point x="224" y="296"/>
      <point x="214" y="298"/>
      <point x="204" y="304" type="curve" smooth="yes"/>
      <point x="183" y="316"/>
      <point x="169" y="322"/>
      <point x="161" y="322" type="curve" smooth="yes"/>
      <point x="142" y="323" type="line" smooth="yes"/>
      <point x="131" y="323"/>
      <point x="122" y="322"/>
      <point x="115" y="318" type="curve" smooth="yes"/>
      <point x="109" y="316"/>
      <point x="105" y="312"/>
      <point x="101" y="305" type="curve" smooth="yes"/>
      <point x="98" y="291" type="line" smooth="yes"/>
      <point x="98" y="280" type="line" smooth="yes"/>
      <point x="113" y="291" type="line" smooth="yes"/>
      <point x="125" y="299"/>
      <point x="133" y="303"/>
      <point x="137" y="303" type="curve" smooth="yes"/>
      <point x="150" y="303"/>
      <point x="160" y="295"/>
      <point x="168" y="279" type="curve" smooth="yes"/>
      <point x="172" y="269"/>
      <point x="174" y="258"/>
      <point x="174" y="246" type="curve" smooth="yes"/>
      <point x="174" y="236"/>
      <point x="166" y="227"/>
      <point x="148" y="218" type="curve" smooth="yes"/>
      <point x="141" y="215"/>
      <point x="133" y="212"/>
      <point x="124" y="209" type="curve" smooth="yes"/>
      <point x="116" y="207"/>
      <point x="109" y="206"/>
      <point x="101" y="205" type="curve" smooth="yes"/>
      <point x="89" y="208" type="line" smooth="yes"/>
      <point x="69" y="222"/>
      <point x="59" y="243"/>
      <point x="58" y="272" type="curve" smooth="yes"/>
      <point x="59" y="286" type="line" smooth="yes"/>
      <point x="62" y="308"/>
      <point x="73" y="325"/>
      <point x="92" y="337" type="curve" smooth="yes"/>
      <point x="111" y="349"/>
      <point x="132" y="355"/>
      <point x="156" y="356" type="curve" smooth="yes"/>
      <point x="167" y="356"/>
      <point x="183" y="349"/>
      <point x="204" y="334" type="curve" smooth="yes"/>
      <point x="213" y="328"/>
      <point x="222" y="325"/>
      <point x="233" y="323" type="curve" smooth="yes"/>
      <point x="240" y="323"/>
      <point x="254" y="330"/>
      <point x="276" y="344" type="curve" smooth="yes"/>
      <point x="286" y="351"/>
      <point x="297" y="354"/>
      <point x="309" y="355" type="curve" smooth="yes"/>
      <point x="333" y="355"/>
      <point x="355" y="348"/>
      <point x="376" y="332" type="curve" smooth="yes"/>
      <point x="397" y="318"/>
      <point x="407" y="298"/>
      <point x="408" y="270" type="curve" smooth="yes"/>
      <point x="408" y="144" type="line" smooth="yes"/>
      <point x="408" y="105"/>
      <point x="392" y="71"/>
      <point x="360" y="40" type="curve" smooth="yes"/>
      <point x="331" y="14"/>
      <point x="299" y="1"/>
      <point x="262" y="1" type="curve" smooth="yes"/>
      <point x="228" y="1" type="line" smooth="yes"/>
      <point x="222" y="1"/>
      <point x="217" y="1"/>
      <point x="212" y="2" type="curve" smooth="yes"/>
      <point x="208" y="2"/>
      <point x="199" y="4"/>
      <point x="185" y="8" type="curve" smooth="yes"/>
      <point x="171" y="12"/>
      <point x="155" y="19"/>
      <point x="135" y="30" type="curve" smooth="yes"/>
      <point x="110" y="44" type="line" smooth="yes"/>
      <point x="111" y="18" type="line" smooth="yes"/>
      <point x="111" y="-29" type="line" smooth="yes"/>
      <point x="111" y="-53" type="line" smooth="yes"/>
      <point x="111" y="-75" type="line" smooth="yes"/>
      <point x="111" y="-94" type="line" smooth="yes"/>
      <point x="111" y="-109" type="line" smooth="yes"/>
      <point x="111" y="-122" type="line" smooth="yes"/>
      <point x="111" y="-152" type="line" smooth="yes"/>
      <point x="110" y="-172" type="line" smooth="yes"/>
      <point x="110" y="-216"/>
      <point x="134" y="-255"/>
      <point x="182" y="-290" type="curve" smooth="yes"/>
      <point x="230" y="-324"/>
      <point x="288" y="-341"/>
      <point x="356" y="-342" type="curve" smooth="yes"/>
      <point x="394" y="-342" type="line" smooth="yes"/>
      <point x="410" y="-342" type="line" smooth="yes"/>
      <point x="424" y="-342" type="line" smooth="yes"/>
      <point x="435" y="-342" type="line" smooth="yes"/>
      <point x="447" y="-342"/>
      <point x="459" y="-342"/>
      <point x="471" y="-341" type="curve" smooth="yes"/>
      <point x="483" y="-341"/>
      <point x="493" y="-340"/>
      <point x="502" y="-337" type="curve" smooth="yes"/>
      <point x="514" y="-337"/>
      <point x="527" y="-335"/>
      <point x="543" y="-331" type="curve" smooth="yes"/>
      <point x="558" y="-328"/>
      <point x="576" y="-323"/>
      <point x="599" y="-316" type="curve" smooth="yes"/>
      <point x="650" y="-298" type="line" smooth="yes"/>
      <point x="681" y="-286" type="line" smooth="yes"/>
      <point x="647" y="-312" type="line" smooth="yes"/>
      <point x="619" y="-329"/>
      <point x="593" y="-342"/>
      <point x="568" y="-352" type="curve" smooth="yes"/>
      <point x="546" y="-359"/>
      <point x="526" y="-364"/>
      <point x="506" y="-368" type="curve" smooth="yes"/>
      <point x="440" y="-372" type="line" smooth="yes"/>
      <point x="402" y="-371" type="line" smooth="yes"/>
      <point x="369" y="-371" type="line" smooth="yes"/>
      <point x="356" y="-371" type="line" smooth="yes"/>
      <point x="275" y="-371"/>
      <point x="208" y="-353"/>
      <point x="153" y="-316" type="curve" smooth="yes"/>
      <point x="100" y="-280"/>
      <point x="74" y="-234"/>
      <point x="73" y="-178" type="curve" smooth="yes"/>
      <point x="73" y="70" type="line" smooth="yes"/>
      <point x="105" y="111" type="line" smooth="yes"/>
      <point x="107" y="86"/>
      <point x="125" y="66"/>
      <point x="160" y="49" type="curve" smooth="yes"/>
      <point x="186" y="37"/>
      <point x="213" y="31"/>
      <point x="242" y="31" type="curve" smooth="yes"/>
      <point x="277" y="31"/>
      <point x="307" y="41"/>
      <point x="332" y="61" type="curve" smooth="yes"/>
      <point x="357" y="81"/>
      <point x="369" y="108"/>
    </contour>
    <contour>
      <point x="394" y="15" type="move" name="L"/>
    </contour>
    <contour>
      <point x="671" y="0" type="move" name="LR"/>
    </contour>
    <contour>
      <point x="387.5" y="416" type="move" name="U"/>
    </contour>
    <contour>
      <point x="671" y="416" type="move" name="UR"/>
    </contour>
  </outline>
</glyph>
<glyph name="u1A2D" format="1">
  <advance width="540"/>
  <unicode hex="1A2D"/>
  <outline>
    <contour>
      <point x="390" y="320" type="curve" smooth="yes"/>
      <point x="391" y="324" type="line" smooth="yes"/>
      <point x="396" y="327" type="line" smooth="yes"/>
      <point x="400" y="329"/>
      <point x="405" y="327"/>
      <point x="411" y="319" type="curve" smooth="yes"/>
      <point x="430" y="299" type="line" smooth="yes"/>
      <point x="446" y="282" type="line" smooth="yes"/>
      <point x="459" y="270" type="line" smooth="yes"/>
      <point x="455" y="285" type="line" smooth="yes"/>
      <point x="440" y="315" type="line" smooth="yes"/>
      <point x="430" y="331" type="line" smooth="yes"/>
      <point x="425" y="339"/>
      <point x="419" y="345"/>
      <point x="411" y="349" type="curve" smooth="yes"/>
      <point x="393" y="356" type="line" smooth="yes"/>
      <point x="380" y="359" type="line" smooth="yes"/>
      <point x="373" y="359"/>
      <point x="364" y="355"/>
      <point x="352" y="347" type="curve" smooth="yes"/>
      <point x="348" y="343"/>
      <point x="341" y="332"/>
      <point x="331" y="313" type="curve" smooth="yes"/>
      <point x="323" y="285" type="line" smooth="yes"/>
      <point x="356" y="281" type="line" smooth="yes"/>
      <point x="376" y="277"/>
      <point x="399" y="262"/>
      <point x="425" y="234" type="curve" smooth="yes"/>
      <point x="450" y="208"/>
      <point x="462" y="183"/>
      <point x="463" y="158" type="curve" smooth="yes"/>
      <point x="463" y="120"/>
      <point x="457" y="90"/>
      <point x="443" y="68" type="curve" smooth="yes"/>
      <point x="427" y="41"/>
      <point x="404" y="28"/>
      <point x="373" y="27" type="curve" smooth="yes"/>
      <point x="355" y="27"/>
      <point x="334" y="38"/>
      <point x="310" y="60" type="curve" smooth="yes"/>
      <point x="283" y="94" type="line" smooth="yes"/>
      <point x="246" y="62" type="line" smooth="yes"/>
      <point x="217" y="40"/>
      <point x="192" y="29"/>
      <point x="171" y="29" type="curve" smooth="yes"/>
      <point x="157" y="31" type="line" smooth="yes"/>
      <point x="140" y="35"/>
      <point x="127" y="40"/>
      <point x="117" y="46" type="curve" smooth="yes"/>
      <point x="105" y="54"/>
      <point x="97" y="65"/>
      <point x="93" y="79" type="curve" smooth="yes"/>
      <point x="91" y="94" type="line" smooth="yes"/>
      <point x="91" y="110"/>
      <point x="96" y="126"/>
      <point x="107" y="144" type="curve" smooth="yes"/>
      <point x="115" y="158"/>
      <point x="123" y="167"/>
      <point x="131" y="171" type="curve" smooth="yes"/>
      <point x="107" y="182" type="line" smooth="yes"/>
      <point x="91" y="192"/>
      <point x="80" y="206"/>
      <point x="73" y="224" type="curve" smooth="yes"/>
      <point x="70" y="249" type="line" smooth="yes"/>
      <point x="70" y="271"/>
      <point x="76" y="290"/>
      <point x="88" y="307" type="curve" smooth="yes"/>
      <point x="100" y="323"/>
      <point x="116" y="331"/>
      <point x="138" y="332" type="curve" smooth="yes"/>
      <point x="148" y="332"/>
      <point x="159" y="327"/>
      <point x="171" y="317" type="curve" smooth="yes"/>
      <point x="185" y="301" type="line" smooth="yes"/>
      <point x="169" y="301" type="line" smooth="yes"/>
      <point x="161" y="301"/>
      <point x="154" y="300"/>
      <point x="148" y="297" type="curve" smooth="yes"/>
      <point x="144" y="295"/>
      <point x="139" y="291"/>
      <point x="132" y="285" type="curve" smooth="yes"/>
      <point x="122" y="273"/>
      <point x="117" y="260"/>
      <point x="116" y="244" type="curve" smooth="yes"/>
      <point x="120" y="221" type="line" smooth="yes"/>
      <point x="123" y="212"/>
      <point x="134" y="208"/>
      <point x="153" y="207" type="curve" smooth="yes"/>
      <point x="170" y="207"/>
      <point x="187" y="213"/>
      <point x="205" y="225" type="curve" smooth="yes"/>
      <point x="222" y="237"/>
      <point x="230" y="251"/>
      <point x="231" y="268" type="curve" smooth="yes"/>
      <point x="231" y="290"/>
      <point x="223" y="310"/>
      <point x="207" y="328" type="curve" smooth="yes"/>
      <point x="192" y="346"/>
      <point x="175" y="355"/>
      <point x="154" y="356" type="curve" smooth="yes"/>
      <point x="120" y="356"/>
      <point x="93" y="345"/>
      <point x="73" y="322" type="curve" smooth="yes"/>
      <point x="55" y="300"/>
      <point x="46" y="274"/>
      <point x="45" y="243" type="curve" smooth="yes"/>
      <point x="45" y="225"/>
      <point x="48" y="209"/>
      <point x="55" y="193" type="curve" smooth="yes"/>
      <point x="62" y="179"/>
      <point x="73" y="168"/>
      <point x="88" y="160" type="curve" smooth="yes"/>
      <point x="82" y="154"/>
      <point x="75" y="146"/>
      <point x="67" y="134" type="curve" smooth="yes"/>
      <point x="60" y="123"/>
      <point x="57" y="110"/>
      <point x="56" y="93" type="curve" smooth="yes"/>
      <point x="56" y="63"/>
      <point x="64" y="40"/>
      <point x="82" y="23" type="curve" smooth="yes"/>
      <point x="99" y="7"/>
      <point x="121" y="-1"/>
      <point x="150" y="-1" type="curve" smooth="yes"/>
      <point x="184" y="-1"/>
      <point x="214" y="7"/>
      <point x="240" y="24" type="curve" smooth="yes"/>
      <point x="248" y="28"/>
      <point x="257" y="36"/>
      <point x="268" y="49" type="curve" smooth="yes"/>
      <point x="295" y="25" type="line" smooth="yes"/>
      <point x="306" y="18"/>
      <point x="318" y="12"/>
      <point x="332" y="7" type="curve" smooth="yes"/>
      <point x="346" y="3"/>
      <point x="360" y="1"/>
      <point x="375" y="0" type="curve" smooth="yes"/>
      <point x="412" y="0"/>
      <point x="441" y="16"/>
      <point x="463" y="48" type="curve" smooth="yes"/>
      <point x="481" y="76"/>
      <point x="490" y="112"/>
      <point x="490" y="158" type="curve" smooth="yes"/>
      <point x="490" y="182"/>
      <point x="483" y="209"/>
      <point x="468" y="239" type="curve" smooth="yes"/>
      <point x="450" y="277"/>
      <point x="424" y="304"/>
    </contour>
    <contour>
      <point x="191" y="276" type="line" smooth="yes"/>
      <point x="194" y="264" type="line" smooth="yes"/>
      <point x="194" y="259"/>
      <point x="191" y="254"/>
      <point x="184" y="247" type="curve" smooth="yes"/>
      <point x="174" y="239"/>
      <point x="166" y="235"/>
      <point x="159" y="233" type="curve" smooth="yes"/>
      <point x="151" y="236" type="line" smooth="yes"/>
      <point x="147" y="245" type="line" smooth="yes"/>
      <point x="147" y="255"/>
      <point x="152" y="264"/>
      <point x="164" y="272" type="curve" smooth="yes"/>
      <point x="178" y="276" type="line" smooth="yes"/>
    </contour>
    <contour>
      <point x="269.5" y="0" type="move" name="L"/>
    </contour>
    <contour>
      <point x="490" y="0" type="move" name="LR"/>
    </contour>
    <contour>
      <point x="281.5" y="416" type="move" name="U"/>
    </contour>
    <contour>
      <point x="490" y="416" type="move" name="UR"/>
    </contour>
  </outline>
</glyph>
<glyph name="u1A2E" format="1">
  <advance width="561"/>
  <unicode hex="1A2E"/>
  <outline>
    <contour>
      <point x="510" y="154" type="line" smooth="yes"/>
      <point x="479" y="222" type="line" smooth="yes"/>
      <point x="480" y="99" type="line" smooth="yes"/>
      <point x="481" y="-144" type="line" smooth="yes"/>
      <point x="481" y="-175"/>
      <point x="462" y="-200"/>
      <point x="423" y="-220" type="curve" smooth="yes"/>
      <point x="385" y="-240"/>
      <point x="337" y="-250"/>
      <point x="279" y="-250" type="curve" smooth="yes"/>
      <point x="209" y="-250"/>
      <point x="159" y="-241"/>
      <point x="128" y="-222" type="curve" smooth="yes"/>
      <point x="104" y="-207"/>
      <point x="92" y="-185"/>
      <point x="92" y="-156" type="curve" smooth="yes"/>
      <point x="92" y="-130"/>
      <point x="108" y="-110"/>
      <point x="142" y="-96" type="curve" smooth="yes"/>
      <point x="176" y="-83"/>
      <point x="214" y="-77"/>
      <point x="257" y="-76" type="curve" smooth="yes"/>
      <point x="275" y="-76" type="line" smooth="yes"/>
      <point x="292" y="-78" type="line" smooth="yes"/>
      <point x="326" y="-81"/>
      <point x="362" y="-88"/>
      <point x="402" y="-100" type="curve" smooth="yes"/>
      <point x="409" y="-102"/>
      <point x="418" y="-104"/>
      <point x="429" y="-108" type="curve" smooth="yes"/>
      <point x="440" y="-111"/>
      <point x="456" y="-116"/>
      <point x="477" y="-125" type="curve" smooth="yes"/>
      <point x="480" y="-101" type="line" smooth="yes"/>
      <point x="381" y="-64" type="line" smooth="yes"/>
      <point x="355" y="-56"/>
      <point x="324" y="-52"/>
      <point x="286" y="-51" type="curve" smooth="yes"/>
      <point x="250" y="-51"/>
      <point x="218" y="-53"/>
      <point x="190" y="-57" type="curve" smooth="yes"/>
      <point x="164" y="-61"/>
      <point x="141" y="-67"/>
      <point x="120" y="-77" type="curve" smooth="yes"/>
      <point x="82" y="-94"/>
      <point x="63" y="-119"/>
      <point x="63" y="-153" type="curve" smooth="yes"/>
      <point x="63" y="-203"/>
      <point x="86" y="-238"/>
      <point x="132" y="-258" type="curve" smooth="yes"/>
      <point x="164" y="-271"/>
      <point x="213" y="-277"/>
      <point x="281" y="-278" type="curve" smooth="yes"/>
      <point x="353" y="-278"/>
      <point x="409" y="-267"/>
      <point x="449" y="-243" type="curve" smooth="yes"/>
      <point x="489" y="-220"/>
      <point x="509" y="-186"/>
      <point x="510" y="-133" type="curve" smooth="yes"/>
    </contour>
    <contour>
      <point x="411" y="320" type="curve" smooth="yes"/>
      <point x="412" y="324" type="line" smooth="yes"/>
      <point x="417" y="327" type="line" smooth="yes"/>
      <point x="421" y="329"/>
      <point x="426" y="327"/>
      <point x="432" y="319" type="curve" smooth="yes"/>
      <point x="451" y="299" type="line" smooth="yes"/>
      <point x="467" y="282" type="line" smooth="yes"/>
      <point x="480" y="270" type="line" smooth="yes"/>
      <point x="476" y="285" type="line" smooth="yes"/>
      <point x="461" y="315" type="line" smooth="yes"/>
      <point x="451" y="331" type="line" smooth="yes"/>
      <point x="446" y="339"/>
      <point x="440" y="345"/>
      <point x="432" y="349" type="curve" smooth="yes"/>
      <point x="414" y="356" type="line" smooth="yes"/>
      <point x="401" y="359" type="line" smooth="yes"/>
      <point x="394" y="359"/>
      <point x="385" y="355"/>
      <point x="373" y="347" type="curve" smooth="yes"/>
      <point x="369" y="343"/>
      <point x="362" y="332"/>
      <point x="352" y="313" type="curve" smooth="yes"/>
      <point x="344" y="285" type="line" smooth="yes"/>
      <point x="377" y="281" type="line" smooth="yes"/>
      <point x="397" y="277"/>
      <point x="419" y="262"/>
      <point x="444" y="234" type="curve" smooth="yes"/>
      <point x="468" y="208"/>
      <point x="480" y="183"/>
      <point x="480" y="159" type="curve" smooth="yes"/>
      <point x="480" y="123"/>
      <point x="474" y="93"/>
      <point x="462" y="69" type="curve" smooth="yes"/>
      <point x="448" y="41"/>
      <point x="426" y="27"/>
      <point x="394" y="27" type="curve" smooth="yes"/>
      <point x="376" y="27"/>
      <point x="355" y="38"/>
      <point x="331" y="60" type="curve" smooth="yes"/>
      <point x="304" y="94" type="line" smooth="yes"/>
      <point x="267" y="62" type="line" smooth="yes"/>
      <point x="238" y="40"/>
      <point x="213" y="29"/>
      <point x="192" y="29" type="curve" smooth="yes"/>
      <point x="178" y="31" type="line" smooth="yes"/>
      <point x="161" y="35"/>
      <point x="148" y="40"/>
      <point x="138" y="46" type="curve" smooth="yes"/>
      <point x="126" y="54"/>
      <point x="118" y="65"/>
      <point x="114" y="79" type="curve" smooth="yes"/>
      <point x="112" y="94" type="line" smooth="yes"/>
      <point x="112" y="110"/>
      <point x="117" y="126"/>
      <point x="128" y="144" type="curve" smooth="yes"/>
      <point x="136" y="158"/>
      <point x="144" y="167"/>
      <point x="152" y="171" type="curve" smooth="yes"/>
      <point x="128" y="182" type="line" smooth="yes"/>
      <point x="112" y="192"/>
      <point x="101" y="206"/>
      <point x="94" y="224" type="curve" smooth="yes"/>
      <point x="91" y="249" type="line" smooth="yes"/>
      <point x="91" y="271"/>
      <point x="97" y="290"/>
      <point x="109" y="307" type="curve" smooth="yes"/>
      <point x="121" y="323"/>
      <point x="137" y="331"/>
      <point x="159" y="332" type="curve" smooth="yes"/>
      <point x="169" y="332"/>
      <point x="180" y="327"/>
      <point x="192" y="317" type="curve" smooth="yes"/>
      <point x="206" y="301" type="line" smooth="yes"/>
      <point x="190" y="301" type="line" smooth="yes"/>
      <point x="182" y="301"/>
      <point x="175" y="300"/>
      <point x="169" y="297" type="curve" smooth="yes"/>
      <point x="165" y="295"/>
      <point x="160" y="291"/>
      <point x="153" y="285" type="curve" smooth="yes"/>
      <point x="143" y="273"/>
      <point x="138" y="260"/>
      <point x="137" y="244" type="curve" smooth="yes"/>
      <point x="141" y="221" type="line" smooth="yes"/>
      <point x="144" y="212"/>
      <point x="155" y="208"/>
      <point x="174" y="207" type="curve" smooth="yes"/>
      <point x="191" y="207"/>
      <point x="208" y="213"/>
      <point x="226" y="225" type="curve" smooth="yes"/>
      <point x="243" y="237"/>
      <point x="251" y="251"/>
      <point x="252" y="268" type="curve" smooth="yes"/>
      <point x="252" y="290"/>
      <point x="244" y="310"/>
      <point x="228" y="328" type="curve" smooth="yes"/>
      <point x="213" y="346"/>
      <point x="196" y="355"/>
      <point x="175" y="356" type="curve" smooth="yes"/>
      <point x="141" y="356"/>
      <point x="114" y="345"/>
      <point x="94" y="322" type="curve" smooth="yes"/>
      <point x="76" y="300"/>
      <point x="67" y="274"/>
      <point x="66" y="243" type="curve" smooth="yes"/>
      <point x="66" y="225"/>
      <point x="69" y="209"/>
      <point x="76" y="193" type="curve" smooth="yes"/>
      <point x="83" y="179"/>
      <point x="94" y="168"/>
      <point x="109" y="160" type="curve" smooth="yes"/>
      <point x="103" y="154"/>
      <point x="96" y="146"/>
      <point x="88" y="134" type="curve" smooth="yes"/>
      <point x="81" y="123"/>
      <point x="78" y="110"/>
      <point x="77" y="93" type="curve" smooth="yes"/>
      <point x="77" y="63"/>
      <point x="85" y="40"/>
      <point x="103" y="23" type="curve" smooth="yes"/>
      <point x="120" y="7"/>
      <point x="142" y="-1"/>
      <point x="171" y="-1" type="curve" smooth="yes"/>
      <point x="205" y="-1"/>
      <point x="235" y="7"/>
      <point x="261" y="24" type="curve" smooth="yes"/>
      <point x="269" y="28"/>
      <point x="278" y="36"/>
      <point x="289" y="49" type="curve" smooth="yes"/>
      <point x="316" y="25" type="line" smooth="yes"/>
      <point x="327" y="18"/>
      <point x="339" y="12"/>
      <point x="353" y="7" type="curve" smooth="yes"/>
      <point x="367" y="3"/>
      <point x="381" y="1"/>
      <point x="396" y="0" type="curve" smooth="yes"/>
      <point x="433" y="0"/>
      <point x="462" y="16"/>
      <point x="484" y="48" type="curve" smooth="yes"/>
      <point x="502" y="76"/>
      <point x="511" y="112"/>
      <point x="511" y="158" type="curve" smooth="yes"/>
      <point x="511" y="182"/>
      <point x="504" y="209"/>
      <point x="489" y="239" type="curve" smooth="yes"/>
      <point x="471" y="277"/>
      <point x="445" y="304"/>
    </contour>
    <contour>
      <point x="212" y="276" type="line" smooth="yes"/>
      <point x="215" y="264" type="line" smooth="yes"/>
      <point x="215" y="259"/>
      <point x="212" y="254"/>
      <point x="205" y="247" type="curve" smooth="yes"/>
      <point x="195" y="239"/>
      <point x="187" y="235"/>
      <point x="180" y="233" type="curve" smooth="yes"/>
      <point x="172" y="236" type="line" smooth="yes"/>
      <point x="168" y="245" type="line" smooth="yes"/>
      <point x="168" y="255"/>
      <point x="173" y="264"/>
      <point x="185" y="272" type="curve" smooth="yes"/>
      <point x="199" y="276" type="line" smooth="yes"/>
    </contour>
    <contour>
      <point x="282.5" y="-279" type="move" name="L"/>
    </contour>
    <contour>
      <point x="512" y="-262" type="move" name="LR"/>
    </contour>
    <contour>
      <point x="302.5" y="416" type="move" name="U"/>
    </contour>
    <contour>
      <point x="512" y="416" type="move" name="UR"/>
    </contour>
  </outline>
</glyph>
<glyph name="u1A2F" format="1">
  <advance width="521"/>
  <unicode hex="1A2F"/>
  <outline>
    <contour>
      <point x="101" y="254" type="curve" smooth="yes"/>
      <point x="101" y="249"/>
      <point x="103" y="245"/>
      <point x="107" y="240" type="curve" smooth="yes"/>
      <point x="111" y="236"/>
      <point x="115" y="234"/>
      <point x="120" y="232" type="curve" smooth="yes"/>
      <point x="126" y="232"/>
      <point x="131" y="238"/>
      <point x="135" y="250" type="curve" smooth="yes"/>
      <point x="136" y="254"/>
      <point x="135" y="258"/>
      <point x="131" y="262" type="curve" smooth="yes"/>
      <point x="127" y="266"/>
      <point x="123" y="268"/>
      <point x="117" y="270" type="curve" smooth="yes"/>
      <point x="111" y="270"/>
      <point x="107" y="270"/>
      <point x="105" y="268" type="curve" smooth="yes"/>
      <point x="104" y="267"/>
      <point x="103" y="266"/>
      <point x="102" y="263" type="curve" smooth="yes"/>
      <point x="102" y="261"/>
      <point x="102" y="258"/>
    </contour>
    <contour>
      <point x="93" y="280" type="line" smooth="yes"/>
      <point x="100" y="283" type="line" smooth="yes"/>
      <point x="125" y="290" type="line" smooth="yes"/>
      <point x="137" y="290"/>
      <point x="145" y="287"/>
      <point x="151" y="279" type="curve" smooth="yes"/>
      <point x="156" y="273"/>
      <point x="158" y="262"/>
      <point x="159" y="246" type="curve" smooth="yes"/>
      <point x="159" y="234"/>
      <point x="149" y="222"/>
      <point x="129" y="210" type="curve" smooth="yes"/>
      <point x="116" y="202"/>
      <point x="105" y="198"/>
      <point x="95" y="197" type="curve" smooth="yes"/>
      <point x="93" y="197"/>
      <point x="90" y="197"/>
      <point x="85" y="199" type="curve" smooth="yes"/>
      <point x="75" y="203"/>
      <point x="67" y="211"/>
      <point x="60" y="224" type="curve" smooth="yes"/>
      <point x="55" y="236"/>
      <point x="53" y="249"/>
      <point x="52" y="265" type="curve" smooth="yes"/>
      <point x="54" y="286" type="line" smooth="yes"/>
      <point x="58" y="308"/>
      <point x="69" y="325"/>
      <point x="88" y="337" type="curve" smooth="yes"/>
      <point x="106" y="349"/>
      <point x="127" y="355"/>
      <point x="151" y="356" type="curve" smooth="yes"/>
      <point x="162" y="356"/>
      <point x="179" y="350"/>
      <point x="204" y="336" type="curve" smooth="yes"/>
      <point x="229" y="324"/>
      <point x="248" y="318"/>
      <point x="263" y="317" type="curve" smooth="yes"/>
      <point x="277" y="317"/>
      <point x="294" y="323"/>
      <point x="315" y="335" type="curve" smooth="yes"/>
      <point x="335" y="347"/>
      <point x="351" y="353"/>
      <point x="363" y="354" type="curve" smooth="yes"/>
      <point x="386" y="354"/>
      <point x="407" y="346"/>
      <point x="427" y="330" type="curve" smooth="yes"/>
      <point x="446" y="314"/>
      <point x="455" y="292"/>
      <point x="456" y="264" type="curve" smooth="yes"/>
      <point x="456" y="176" type="line" smooth="yes"/>
      <point x="456" y="150"/>
      <point x="441" y="127"/>
      <point x="410" y="107" type="curve" smooth="yes"/>
      <point x="380" y="88"/>
      <point x="346" y="79"/>
      <point x="307" y="78" type="curve" smooth="yes"/>
      <point x="290" y="78"/>
      <point x="276" y="78"/>
      <point x="263" y="78" type="curve" smooth="yes"/>
      <point x="252" y="78"/>
      <point x="234" y="77"/>
      <point x="208" y="74" type="curve" smooth="yes"/>
      <point x="189" y="74"/>
      <point x="172" y="72"/>
      <point x="155" y="68" type="curve" smooth="yes"/>
      <point x="153" y="68"/>
      <point x="144" y="65"/>
      <point x="126" y="58" type="curve" smooth="yes"/>
      <point x="119" y="56"/>
      <point x="115" y="51"/>
      <point x="112" y="42" type="curve" smooth="yes"/>
      <point x="167" y="48" type="line" smooth="yes"/>
      <point x="234" y="50" type="line" smooth="yes"/>
      <point x="280" y="49" type="line" smooth="yes"/>
      <point x="288" y="49"/>
      <point x="297" y="49"/>
      <point x="309" y="48" type="curve" smooth="yes"/>
      <point x="321" y="48"/>
      <point x="334" y="47"/>
      <point x="348" y="44" type="curve" smooth="yes"/>
      <point x="361" y="44"/>
      <point x="374" y="42"/>
      <point x="389" y="37" type="curve" smooth="yes"/>
      <point x="403" y="33"/>
      <point x="417" y="27"/>
      <point x="432" y="18" type="curve" smooth="yes"/>
      <point x="458" y="5"/>
      <point x="482" y="-18"/>
      <point x="506" y="-51" type="curve" smooth="yes"/>
      <point x="517" y="-65"/>
      <point x="525" y="-79"/>
      <point x="532" y="-95" type="curve" smooth="yes"/>
      <point x="533" y="-99"/>
      <point x="535" y="-107"/>
      <point x="539" y="-120" type="curve" smooth="yes"/>
      <point x="542" y="-133"/>
      <point x="544" y="-142"/>
      <point x="546" y="-147" type="curve" smooth="yes"/>
      <point x="549" y="-174" type="line" smooth="yes"/>
      <point x="550" y="-208" type="line" smooth="yes"/>
      <point x="550" y="-238" type="line" smooth="yes"/>
      <point x="543" y="-196"/>
      <point x="535" y="-162"/>
      <point x="524" y="-136" type="curve" smooth="yes"/>
      <point x="514" y="-111"/>
      <point x="501" y="-89"/>
      <point x="483" y="-69" type="curve" smooth="yes"/>
      <point x="472" y="-57"/>
      <point x="461" y="-46"/>
      <point x="448" y="-36" type="curve" smooth="yes"/>
      <point x="437" y="-27"/>
      <point x="426" y="-20"/>
      <point x="414" y="-13" type="curve" smooth="yes"/>
      <point x="389" y="0"/>
      <point x="361" y="6"/>
      <point x="329" y="7" type="curve" smooth="yes"/>
      <point x="271" y="7" type="line" smooth="yes"/>
      <point x="216" y="8" type="line" smooth="yes"/>
      <point x="152" y="8"/>
      <point x="96" y="5"/>
      <point x="48" y="-1" type="curve" smooth="yes"/>
      <point x="69" y="42" type="line" smooth="yes"/>
      <point x="83" y="69"/>
      <point x="111" y="88"/>
      <point x="153" y="99" type="curve" smooth="yes"/>
      <point x="166" y="102"/>
      <point x="182" y="104"/>
      <point x="201" y="107" type="curve" smooth="yes"/>
      <point x="219" y="109"/>
      <point x="240" y="110"/>
      <point x="265" y="110" type="curve" smooth="yes"/>
      <point x="309" y="110" type="line" smooth="yes"/>
      <point x="346" y="110"/>
      <point x="371" y="112"/>
      <point x="385" y="118" type="curve" smooth="yes"/>
      <point x="408" y="126"/>
      <point x="419" y="141"/>
      <point x="420" y="165" type="curve" smooth="yes"/>
      <point x="420" y="250" type="line" smooth="yes"/>
      <point x="420" y="272"/>
      <point x="414" y="290"/>
      <point x="400" y="304" type="curve" smooth="yes"/>
      <point x="388" y="318"/>
      <point x="372" y="325"/>
      <point x="352" y="326" type="curve" smooth="yes"/>
      <point x="338" y="326"/>
      <point x="317" y="317"/>
      <point x="289" y="298" type="curve" smooth="yes"/>
      <point x="277" y="290"/>
      <point x="266" y="286"/>
      <point x="255" y="284" type="curve" smooth="yes"/>
      <point x="242" y="284"/>
      <point x="221" y="292"/>
      <point x="192" y="309" type="curve" smooth="yes"/>
      <point x="178" y="316"/>
      <point x="166" y="320"/>
      <point x="156" y="322" type="curve" smooth="yes"/>
      <point x="137" y="323" type="line" smooth="yes"/>
      <point x="126" y="323"/>
      <point x="117" y="322"/>
      <point x="110" y="318" type="curve" smooth="yes"/>
      <point x="104" y="316"/>
      <point x="100" y="312"/>
      <point x="96" y="305" type="curve" smooth="yes"/>
      <point x="93" y="291" type="line" smooth="yes"/>
    </contour>
    <contour>
      <point x="262.5" y="0" type="move" name="L"/>
    </contour>
    <contour>
      <point x="554" y="-100" type="move" name="LR"/>
    </contour>
    <contour>
      <point x="262.5" y="416" type="move" name="U"/>
    </contour>
    <contour>
      <point x="455" y="416" type="move" name="UR"/>
    </contour>
  </outline>
</glyph>
<glyph name="u1A30" format="1">
  <advance width="642"/>
  <unicode hex="1A30"/>
  <outline>
    <contour>
      <point x="334" y="61" type="curve" smooth="yes"/>
      <point x="315" y="63" type="line" smooth="yes"/>
      <point x="302" y="63"/>
      <point x="271" y="49"/>
      <point x="222" y="20" type="curve" smooth="yes"/>
      <point x="198" y="6"/>
      <point x="175" y="-1"/>
      <point x="151" y="-1" type="curve" smooth="yes"/>
      <point x="122" y="-1"/>
      <point x="98" y="4"/>
      <point x="78" y="16" type="curve" smooth="yes"/>
      <point x="59" y="27"/>
      <point x="50" y="43"/>
      <point x="49" y="66" type="curve" smooth="yes"/>
      <point x="49" y="83"/>
      <point x="53" y="96"/>
      <point x="63" y="107" type="curve" smooth="yes"/>
      <point x="73" y="117"/>
      <point x="88" y="126"/>
      <point x="108" y="134" type="curve" smooth="yes"/>
      <point x="280" y="187" type="line" smooth="yes"/>
      <point x="299" y="192"/>
      <point x="315" y="200"/>
      <point x="328" y="211" type="curve" smooth="yes"/>
      <point x="340" y="221"/>
      <point x="346" y="231"/>
      <point x="347" y="243" type="curve" smooth="yes"/>
      <point x="347" y="272" type="line" smooth="yes"/>
      <point x="347" y="288"/>
      <point x="342" y="300"/>
      <point x="330" y="310" type="curve" smooth="yes"/>
      <point x="320" y="319"/>
      <point x="310" y="323"/>
      <point x="298" y="324" type="curve" smooth="yes"/>
      <point x="286" y="324"/>
      <point x="274" y="318"/>
      <point x="262" y="306" type="curve" smooth="yes"/>
      <point x="237" y="281"/>
      <point x="222" y="268"/>
      <point x="217" y="266" type="curve" smooth="yes"/>
      <point x="208" y="266"/>
      <point x="195" y="275"/>
      <point x="177" y="293" type="curve" smooth="yes"/>
      <point x="163" y="310"/>
      <point x="153" y="319"/>
      <point x="147" y="322" type="curve" smooth="yes"/>
      <point x="132" y="324" type="line" smooth="yes"/>
      <point x="114" y="324"/>
      <point x="102" y="317"/>
      <point x="95" y="301" type="curve" smooth="yes"/>
      <point x="93" y="291" type="line" smooth="yes"/>
      <point x="93" y="280" type="line" smooth="yes"/>
      <point x="100" y="283" type="line" smooth="yes"/>
      <point x="125" y="290" type="line" smooth="yes"/>
      <point x="137" y="290"/>
      <point x="145" y="287"/>
      <point x="151" y="279" type="curve" smooth="yes"/>
      <point x="156" y="273"/>
      <point x="158" y="262"/>
      <point x="159" y="246" type="curve" smooth="yes"/>
      <point x="159" y="234"/>
      <point x="149" y="222"/>
      <point x="129" y="210" type="curve" smooth="yes"/>
      <point x="116" y="202"/>
      <point x="105" y="198"/>
      <point x="95" y="197" type="curve" smooth="yes"/>
      <point x="93" y="197"/>
      <point x="90" y="197"/>
      <point x="85" y="199" type="curve" smooth="yes"/>
      <point x="75" y="203"/>
      <point x="67" y="211"/>
      <point x="60" y="224" type="curve" smooth="yes"/>
      <point x="55" y="236"/>
      <point x="53" y="249"/>
      <point x="52" y="265" type="curve" smooth="yes"/>
      <point x="54" y="286" type="line" smooth="yes"/>
      <point x="58" y="307"/>
      <point x="68" y="324"/>
      <point x="85" y="337" type="curve" smooth="yes"/>
      <point x="101" y="349"/>
      <point x="121" y="355"/>
      <point x="145" y="356" type="curve" smooth="yes"/>
      <point x="159" y="356"/>
      <point x="174" y="347"/>
      <point x="191" y="327" type="curve" smooth="yes"/>
      <point x="208" y="309"/>
      <point x="219" y="300"/>
      <point x="226" y="300" type="curve" smooth="yes"/>
      <point x="267" y="340" type="line" smooth="yes"/>
      <point x="279" y="350"/>
      <point x="291" y="355"/>
      <point x="303" y="356" type="curve" smooth="yes"/>
      <point x="324" y="356"/>
      <point x="343" y="349"/>
      <point x="360" y="335" type="curve" smooth="yes"/>
      <point x="377" y="322"/>
      <point x="385" y="304"/>
      <point x="386" y="281" type="curve" smooth="yes"/>
      <point x="386" y="246" type="line" smooth="yes"/>
      <point x="386" y="222"/>
      <point x="376" y="203"/>
      <point x="354" y="187" type="curve" smooth="yes"/>
      <point x="341" y="178"/>
      <point x="319" y="169"/>
      <point x="288" y="159" type="curve" smooth="yes"/>
      <point x="231" y="144" type="line" smooth="yes"/>
      <point x="191" y="133"/>
      <point x="160" y="123"/>
      <point x="137" y="113" type="curve" smooth="yes"/>
      <point x="113" y="105"/>
      <point x="100" y="100"/>
      <point x="98" y="96" type="curve" smooth="yes"/>
      <point x="90" y="90"/>
      <point x="86" y="82"/>
      <point x="86" y="70" type="curve" smooth="yes"/>
      <point x="86" y="57"/>
      <point x="92" y="47"/>
      <point x="104" y="39" type="curve" smooth="yes"/>
      <point x="116" y="33"/>
      <point x="131" y="30"/>
      <point x="149" y="30" type="curve" smooth="yes"/>
      <point x="167" y="30"/>
      <point x="188" y="37"/>
      <point x="214" y="52" type="curve" smooth="yes"/>
      <point x="268" y="85"/>
      <point x="305" y="101"/>
      <point x="326" y="102" type="curve" smooth="yes"/>
      <point x="338" y="101" type="line" smooth="yes"/>
      <point x="357" y="99"/>
      <point x="379" y="83"/>
      <point x="405" y="51" type="curve" smooth="yes"/>
      <point x="416" y="37"/>
      <point x="427" y="30"/>
      <point x="438" y="30" type="curve" smooth="yes"/>
      <point x="475" y="30"/>
      <point x="507" y="47"/>
      <point x="534" y="83" type="curve" smooth="yes"/>
      <point x="556" y="112"/>
      <point x="567" y="139"/>
      <point x="567" y="165" type="curve" smooth="yes"/>
      <point x="567" y="183"/>
      <point x="558" y="202"/>
      <point x="539" y="224" type="curve" smooth="yes"/>
      <point x="499" y="268"/>
      <point x="479" y="292"/>
      <point x="478" y="298" type="curve" smooth="yes"/>
      <point x="478" y="304"/>
      <point x="481" y="312"/>
      <point x="487" y="322" type="curve" smooth="yes"/>
      <point x="493" y="332"/>
      <point x="499" y="340"/>
      <point x="507" y="348" type="curve" smooth="yes"/>
      <point x="511" y="352"/>
      <point x="515" y="354"/>
      <point x="521" y="355" type="curve" smooth="yes"/>
      <point x="525" y="355"/>
      <point x="529" y="353"/>
      <point x="533" y="348" type="curve" smooth="yes"/>
      <point x="562" y="302" type="line" smooth="yes"/>
      <point x="572" y="286"/>
      <point x="576" y="276"/>
      <point x="574" y="271" type="curve" smooth="yes"/>
      <point x="558" y="283" type="line" smooth="yes"/>
      <point x="533" y="316" type="line" smooth="yes"/>
      <point x="532" y="318"/>
      <point x="530" y="319"/>
      <point x="526" y="321" type="curve" smooth="yes"/>
      <point x="523" y="319"/>
      <point x="521" y="317"/>
      <point x="520" y="315" type="curve" smooth="yes"/>
      <point x="531" y="303" type="line" smooth="yes"/>
      <point x="548" y="285" type="line" smooth="yes"/>
      <point x="562" y="269" type="line" smooth="yes"/>
      <point x="576" y="255"/>
      <point x="586" y="237"/>
      <point x="592" y="215" type="curve" smooth="yes"/>
      <point x="600" y="165" type="line" smooth="yes"/>
      <point x="600" y="127"/>
      <point x="584" y="91"/>
      <point x="551" y="55" type="curve" smooth="yes"/>
      <point x="519" y="20"/>
      <point x="482" y="3"/>
      <point x="439" y="2" type="curve" smooth="yes"/>
      <point x="412" y="2"/>
      <point x="391" y="11"/>
      <point x="374" y="30" type="curve" smooth="yes"/>
      <point x="360" y="48"/>
      <point x="347" y="58"/>
    </contour>
    <contour>
      <point x="101" y="254" type="curve" smooth="yes"/>
      <point x="101" y="249"/>
      <point x="103" y="245"/>
      <point x="107" y="240" type="curve" smooth="yes"/>
      <point x="111" y="236"/>
      <point x="115" y="234"/>
      <point x="120" y="232" type="curve" smooth="yes"/>
      <point x="126" y="232"/>
      <point x="131" y="238"/>
      <point x="135" y="250" type="curve" smooth="yes"/>
      <point x="136" y="254"/>
      <point x="135" y="258"/>
      <point x="131" y="262" type="curve" smooth="yes"/>
      <point x="127" y="266"/>
      <point x="123" y="268"/>
      <point x="117" y="270" type="curve" smooth="yes"/>
      <point x="111" y="270"/>
      <point x="107" y="270"/>
      <point x="105" y="268" type="curve" smooth="yes"/>
      <point x="104" y="267"/>
      <point x="103" y="266"/>
      <point x="102" y="263" type="curve" smooth="yes"/>
      <point x="102" y="261"/>
      <point x="102" y="258"/>
    </contour>
    <contour>
      <point x="312.5" y="0" type="move" name="L"/>
    </contour>
    <contour>
      <point x="600" y="0" type="move" name="LR"/>
    </contour>
    <contour>
      <point x="303.5" y="416" type="move" name="U"/>
    </contour>
    <contour>
      <point x="599" y="416" type="move" name="UR"/>
    </contour>
  </outline>
</glyph>
<glyph name="u1A31" format="2">
  <advance width="733"/>
  <unicode hex="1A31"/>
  <anchor x="357.5" y="0" name="L"/>
  <anchor x="688" y="0" name="LR"/>
  <anchor x="364.5" y="416" name="U"/>
  <anchor x="688" y="416" name="UR"/>
  <outline>
    <contour>
      <point x="314" y="218" type="curve" smooth="yes"/>
      <point x="314" y="244"/>
      <point x="303" y="268"/>
      <point x="281" y="291" type="curve" smooth="yes"/>
      <point x="259" y="313"/>
      <point x="232" y="324"/>
      <point x="198" y="325" type="curve" smooth="yes"/>
      <point x="158" y="325"/>
      <point x="126" y="313"/>
      <point x="101" y="288" type="curve" smooth="yes"/>
      <point x="77" y="264"/>
      <point x="65" y="227"/>
      <point x="65" y="176" type="curve" smooth="yes"/>
      <point x="65" y="157"/>
      <point x="66" y="139"/>
      <point x="70" y="122" type="curve" smooth="yes"/>
      <point x="73" y="106"/>
      <point x="78" y="90"/>
      <point x="87" y="73" type="curve" smooth="yes"/>
      <point x="102" y="44"/>
      <point x="122" y="30"/>
      <point x="148" y="29" type="curve" smooth="yes"/>
      <point x="141" y="31"/>
      <point x="138" y="37"/>
      <point x="137" y="49" type="curve" smooth="yes"/>
      <point x="137" y="59"/>
      <point x="140" y="70"/>
      <point x="147" y="83" type="curve" smooth="yes"/>
      <point x="153" y="95"/>
      <point x="160" y="102"/>
      <point x="170" y="106" type="curve" smooth="yes"/>
      <point x="180" y="108"/>
      <point x="191" y="103"/>
      <point x="203" y="90" type="curve" smooth="yes"/>
      <point x="213" y="78"/>
      <point x="218" y="66"/>
      <point x="220" y="54" type="curve" smooth="yes"/>
      <point x="220" y="38"/>
      <point x="215" y="25"/>
      <point x="204" y="14" type="curve" smooth="yes"/>
      <point x="194" y="4"/>
      <point x="179" y="-1"/>
      <point x="157" y="-2" type="curve" smooth="yes"/>
      <point x="121" y="-2"/>
      <point x="92" y="15"/>
      <point x="70" y="50" type="curve" smooth="yes"/>
      <point x="50" y="86"/>
      <point x="40" y="128"/>
      <point x="39" y="177" type="curve" smooth="yes"/>
      <point x="39" y="223"/>
      <point x="56" y="264"/>
      <point x="90" y="301" type="curve" smooth="yes"/>
      <point x="124" y="337"/>
      <point x="160" y="355"/>
      <point x="200" y="356" type="curve" smooth="yes"/>
      <point x="246" y="356"/>
      <point x="282" y="343"/>
      <point x="310" y="315" type="curve" smooth="yes"/>
      <point x="335" y="290"/>
      <point x="347" y="259"/>
      <point x="348" y="220" type="curve" smooth="yes"/>
      <point x="348" y="202"/>
      <point x="338" y="176"/>
      <point x="318" y="141" type="curve" smooth="yes"/>
      <point x="308" y="125"/>
      <point x="303" y="110"/>
      <point x="303" y="94" type="curve" smooth="yes"/>
      <point x="303" y="71"/>
      <point x="308" y="53"/>
      <point x="318" y="38" type="curve" smooth="yes"/>
      <point x="328" y="25"/>
      <point x="344" y="19"/>
      <point x="367" y="18" type="curve" smooth="yes"/>
      <point x="399" y="18"/>
      <point x="421" y="26"/>
      <point x="433" y="44" type="curve" smooth="yes"/>
      <point x="435" y="47"/>
      <point x="437" y="53"/>
      <point x="441" y="62" type="curve" smooth="yes"/>
      <point x="444" y="71"/>
      <point x="445" y="82"/>
      <point x="446" y="96" type="curve" smooth="yes"/>
      <point x="446" y="101"/>
      <point x="430" y="125"/>
      <point x="398" y="169" type="curve" smooth="yes"/>
      <point x="383" y="189"/>
      <point x="376" y="207"/>
      <point x="375" y="223" type="curve" smooth="yes"/>
      <point x="375" y="263"/>
      <point x="386" y="295"/>
      <point x="409" y="320" type="curve" smooth="yes"/>
      <point x="432" y="344"/>
      <point x="467" y="356"/>
      <point x="514" y="356" type="curve" smooth="yes"/>
      <point x="584" y="356"/>
      <point x="633" y="334"/>
      <point x="662" y="290" type="curve" smooth="yes"/>
      <point x="679" y="262"/>
      <point x="687" y="225"/>
      <point x="688" y="177" type="curve" smooth="yes"/>
      <point x="688" y="159"/>
      <point x="683" y="138"/>
      <point x="672" y="114" type="curve" smooth="yes"/>
      <point x="662" y="90"/>
      <point x="650" y="71"/>
      <point x="636" y="57" type="curve" smooth="yes"/>
      <point x="617" y="42" type="line" smooth="yes"/>
      <point x="608" y="36"/>
      <point x="600" y="32"/>
      <point x="593" y="30" type="curve" smooth="yes"/>
      <point x="587" y="29"/>
      <point x="584" y="26"/>
      <point x="584" y="21" type="curve" smooth="yes"/>
      <point x="591" y="21" type="line" smooth="yes"/>
      <point x="595" y="21"/>
      <point x="600" y="23"/>
      <point x="608" y="29" type="curve" smooth="yes"/>
      <point x="628" y="46" type="line" smooth="yes"/>
      <point x="651" y="62" type="line" smooth="yes"/>
      <point x="660" y="65" type="line" smooth="yes"/>
      <point x="648" y="43"/>
      <point x="636" y="27"/>
      <point x="624" y="17" type="curve" smooth="yes"/>
      <point x="612" y="7"/>
      <point x="601" y="1"/>
      <point x="589" y="-1" type="curve" smooth="yes"/>
      <point x="572" y="-2" type="line" smooth="yes"/>
      <point x="562" y="-2"/>
      <point x="555" y="-2"/>
      <point x="550" y="0" type="curve" smooth="yes"/>
      <point x="539" y="8" type="line" smooth="yes"/>
      <point x="553" y="33" type="line" smooth="yes"/>
      <point x="560" y="44"/>
      <point x="566" y="50"/>
      <point x="573" y="51" type="curve" smooth="yes"/>
      <point x="595" y="57" type="line" smooth="yes"/>
      <point x="603" y="60"/>
      <point x="611" y="65"/>
      <point x="619" y="73" type="curve" smooth="yes"/>
      <point x="633" y="87"/>
      <point x="642" y="100"/>
      <point x="648" y="112" type="curve" smooth="yes"/>
      <point x="652" y="124"/>
      <point x="655" y="136"/>
      <point x="657" y="150" type="curve" smooth="yes"/>
      <point x="657" y="164" type="line" smooth="yes"/>
      <point x="655" y="176" type="line" smooth="yes"/>
      <point x="655" y="210"/>
      <point x="646" y="240"/>
      <point x="628" y="268" type="curve" smooth="yes"/>
      <point x="604" y="302"/>
      <point x="569" y="319"/>
      <point x="521" y="319" type="curve" smooth="yes"/>
      <point x="477" y="319"/>
      <point x="447" y="312"/>
      <point x="429" y="297" type="curve" smooth="yes"/>
      <point x="413" y="283"/>
      <point x="405" y="260"/>
      <point x="404" y="228" type="curve" smooth="yes"/>
      <point x="408" y="210"/>
      <point x="421" y="187"/>
      <point x="445" y="158" type="curve" smooth="yes"/>
      <point x="465" y="132"/>
      <point x="475" y="112"/>
      <point x="476" y="96" type="curve" smooth="yes"/>
      <point x="476" y="58"/>
      <point x="466" y="32"/>
      <point x="445" y="17" type="curve" smooth="yes"/>
      <point x="428" y="6"/>
      <point x="399" y="1"/>
      <point x="357" y="0" type="curve" smooth="yes"/>
      <point x="301" y="0"/>
      <point x="273" y="26"/>
      <point x="273" y="80" type="curve" smooth="yes"/>
      <point x="274" y="97" type="line" smooth="yes"/>
      <point x="274" y="101"/>
      <point x="283" y="124"/>
      <point x="302" y="167" type="curve" smooth="yes"/>
      <point x="310" y="185"/>
      <point x="314" y="202"/>
    </contour>
    <contour>
      <point x="163" y="38" type="curve" smooth="yes"/>
      <point x="178" y="34" type="line" smooth="yes"/>
      <point x="190" y="34"/>
      <point x="196" y="39"/>
      <point x="196" y="50" type="curve" smooth="yes"/>
      <point x="196" y="55"/>
      <point x="195" y="59"/>
      <point x="193" y="63" type="curve" smooth="yes"/>
      <point x="174" y="74" type="line" smooth="yes"/>
      <point x="172" y="76"/>
      <point x="169" y="74"/>
      <point x="163" y="68" type="curve" smooth="yes"/>
      <point x="159" y="62"/>
      <point x="157" y="56"/>
      <point x="157" y="49" type="curve" smooth="yes"/>
      <point x="157" y="45"/>
      <point x="159" y="42"/>
    </contour>
  </outline>
</glyph>
<glyph name="u1A32" format="1">
  <advance width="716"/>
  <unicode hex="1A32"/>
  <outline>
    <contour>
      <point x="345" y="170" type="curve" smooth="yes"/>
      <point x="345" y="212"/>
      <point x="331" y="249"/>
      <point x="302" y="282" type="curve" smooth="yes"/>
      <point x="274" y="315"/>
      <point x="244" y="331"/>
      <point x="211" y="332" type="curve" smooth="yes"/>
      <point x="175" y="332"/>
      <point x="144" y="319"/>
      <point x="118" y="291" type="curve" smooth="yes"/>
      <point x="93" y="265"/>
      <point x="81" y="227"/>
      <point x="80" y="176" type="curve" smooth="yes"/>
      <point x="80" y="136"/>
      <point x="94" y="101"/>
      <point x="122" y="69" type="curve" smooth="yes"/>
      <point x="150" y="39"/>
      <point x="185" y="24"/>
      <point x="229" y="24" type="curve" smooth="yes"/>
      <point x="260" y="24"/>
      <point x="285" y="32"/>
      <point x="305" y="48" type="curve" smooth="yes"/>
      <point x="331" y="71"/>
      <point x="344" y="111"/>
    </contour>
    <contour>
      <point x="206" y="1" type="curve" smooth="yes"/>
      <point x="163" y="1"/>
      <point x="127" y="18"/>
      <point x="96" y="53" type="curve" smooth="yes"/>
      <point x="68" y="88"/>
      <point x="54" y="129"/>
      <point x="54" y="177" type="curve" smooth="yes"/>
      <point x="54" y="225"/>
      <point x="69" y="267"/>
      <point x="99" y="303" type="curve" smooth="yes"/>
      <point x="129" y="338"/>
      <point x="168" y="355"/>
      <point x="218" y="356" type="curve" smooth="yes"/>
      <point x="268" y="356"/>
      <point x="307" y="340"/>
      <point x="335" y="307" type="curve" smooth="yes"/>
      <point x="363" y="275"/>
      <point x="377" y="231"/>
      <point x="377" y="175" type="curve" smooth="yes"/>
      <point x="377" y="104"/>
      <point x="357" y="55"/>
      <point x="315" y="27" type="curve" smooth="yes"/>
      <point x="289" y="10"/>
      <point x="253" y="2"/>
    </contour>
    <contour>
      <point x="519" y="25" type="curve" smooth="yes"/>
      <point x="560" y="25"/>
      <point x="590" y="37"/>
      <point x="609" y="63" type="curve" smooth="yes"/>
      <point x="627" y="88"/>
      <point x="636" y="124"/>
      <point x="637" y="172" type="curve" smooth="yes"/>
      <point x="637" y="218"/>
      <point x="622" y="255"/>
      <point x="592" y="284" type="curve" smooth="yes"/>
      <point x="566" y="308"/>
      <point x="533" y="320"/>
      <point x="493" y="320" type="curve" smooth="yes"/>
      <point x="465" y="320"/>
      <point x="439" y="307"/>
      <point x="415" y="280" type="curve" smooth="yes"/>
      <point x="391" y="254"/>
      <point x="379" y="227"/>
      <point x="379" y="199" type="curve" smooth="yes"/>
      <point x="379" y="191"/>
      <point x="378" y="181"/>
      <point x="374" y="169" type="curve" smooth="yes"/>
      <point x="372" y="158"/>
      <point x="369" y="152"/>
      <point x="365" y="150" type="curve" smooth="yes"/>
      <point x="364" y="152"/>
      <point x="364" y="154"/>
      <point x="363" y="156" type="curve" smooth="yes"/>
      <point x="361" y="164"/>
      <point x="360" y="171"/>
      <point x="360" y="178" type="curve" smooth="yes"/>
      <point x="360" y="226"/>
      <point x="371" y="266"/>
      <point x="395" y="298" type="curve" smooth="yes"/>
      <point x="422" y="336"/>
      <point x="460" y="355"/>
      <point x="510" y="356" type="curve" smooth="yes"/>
      <point x="556" y="356"/>
      <point x="595" y="338"/>
      <point x="627" y="301" type="curve" smooth="yes"/>
      <point x="659" y="265"/>
      <point x="675" y="223"/>
      <point x="676" y="173" type="curve" smooth="yes"/>
      <point x="676" y="126"/>
      <point x="662" y="85"/>
      <point x="632" y="49" type="curve" smooth="yes"/>
      <point x="604" y="15"/>
      <point x="567" y="-2"/>
      <point x="520" y="-3" type="curve" smooth="yes"/>
      <point x="497" y="-3"/>
      <point x="480" y="-1"/>
      <point x="467" y="3" type="curve" smooth="yes"/>
      <point x="451" y="9"/>
      <point x="443" y="20"/>
      <point x="443" y="38" type="curve" smooth="yes"/>
      <point x="452" y="47"/>
      <point x="460" y="51"/>
      <point x="469" y="52" type="curve" smooth="yes"/>
      <point x="474" y="52"/>
      <point x="484" y="46"/>
      <point x="501" y="34" type="curve" smooth="yes"/>
      <point x="508" y="28"/>
      <point x="514" y="25"/>
    </contour>
    <contour>
      <point x="369.5" y="0" type="move" name="L"/>
    </contour>
    <contour>
      <point x="674" y="0" type="move" name="LR"/>
    </contour>
    <contour>
      <point x="367.5" y="406" type="move" name="U"/>
    </contour>
    <contour>
      <point x="674" y="406" type="move" name="UR"/>
    </contour>
  </outline>
</glyph>
<glyph name="u1A33" format="1">
  <advance width="601"/>
  <unicode hex="1A33"/>
  <outline>
    <contour>
      <point x="176" y="330" type="curve" smooth="yes"/>
      <point x="174" y="330"/>
      <point x="173" y="328"/>
      <point x="172" y="323" type="curve" smooth="yes"/>
      <point x="174" y="315" type="line" smooth="yes"/>
      <point x="175" y="309"/>
      <point x="178" y="305"/>
      <point x="184" y="301" type="curve" smooth="yes"/>
      <point x="190" y="298"/>
      <point x="197" y="297"/>
      <point x="206" y="298" type="curve" smooth="yes"/>
      <point x="231" y="306"/>
      <point x="252" y="311"/>
      <point x="269" y="313" type="curve" smooth="yes"/>
      <point x="332" y="316" type="line" smooth="yes"/>
      <point x="346" y="316"/>
      <point x="358" y="316"/>
      <point x="369" y="316" type="curve" smooth="yes"/>
      <point x="379" y="316"/>
      <point x="394" y="315"/>
      <point x="416" y="312" type="curve" smooth="yes"/>
      <point x="428" y="312"/>
      <point x="438" y="311"/>
      <point x="446" y="309" type="curve" smooth="yes"/>
      <point x="454" y="308"/>
      <point x="465" y="305"/>
      <point x="479" y="300" type="curve" smooth="yes"/>
      <point x="504" y="292"/>
      <point x="527" y="280"/>
      <point x="549" y="264" type="curve" smooth="yes"/>
      <point x="599" y="226" type="line" smooth="yes"/>
      <point x="559" y="289" type="line" smooth="yes"/>
      <point x="537" y="312"/>
      <point x="511" y="329"/>
      <point x="481" y="340" type="curve" smooth="yes"/>
      <point x="429" y="353" type="line" smooth="yes"/>
      <point x="378" y="357" type="line" smooth="yes"/>
      <point x="354" y="356" type="line" smooth="yes"/>
      <point x="330" y="356" type="line" smooth="yes"/>
      <point x="310" y="356"/>
      <point x="295" y="356"/>
      <point x="284" y="355" type="curve" smooth="yes"/>
      <point x="275" y="355"/>
      <point x="262" y="353"/>
      <point x="245" y="348" type="curve" smooth="yes"/>
      <point x="219" y="344"/>
      <point x="196" y="338"/>
    </contour>
    <contour>
      <point x="278" y="97" type="line" smooth="yes"/>
      <point x="272" y="90"/>
      <point x="267" y="85"/>
      <point x="262" y="81" type="curve" smooth="yes"/>
      <point x="259" y="78"/>
      <point x="254" y="74"/>
      <point x="245" y="68" type="curve" smooth="yes"/>
      <point x="217" y="48"/>
      <point x="189" y="38"/>
      <point x="159" y="38" type="curve" smooth="yes"/>
      <point x="135" y="38"/>
      <point x="117" y="48"/>
      <point x="105" y="68" type="curve" smooth="yes"/>
      <point x="94" y="88"/>
      <point x="89" y="109"/>
      <point x="88" y="132" type="curve" smooth="yes"/>
      <point x="88" y="166"/>
      <point x="94" y="190"/>
      <point x="106" y="206" type="curve" smooth="yes"/>
      <point x="118" y="221"/>
      <point x="139" y="231"/>
      <point x="171" y="238" type="curve" smooth="yes"/>
      <point x="183" y="240"/>
      <point x="191" y="242"/>
      <point x="197" y="246" type="curve" smooth="yes"/>
      <point x="213" y="256" type="line" smooth="yes"/>
      <point x="218" y="259"/>
      <point x="220" y="268"/>
      <point x="221" y="284" type="curve" smooth="yes"/>
      <point x="221" y="302"/>
      <point x="216" y="318"/>
      <point x="206" y="332" type="curve" smooth="yes"/>
      <point x="204" y="334"/>
      <point x="198" y="334"/>
      <point x="187" y="332" type="curve" smooth="yes"/>
      <point x="172" y="326" type="line" smooth="yes"/>
      <point x="176" y="306" type="line" smooth="yes"/>
      <point x="179" y="289" type="line" smooth="yes"/>
      <point x="179" y="276"/>
      <point x="174" y="268"/>
      <point x="162" y="265" type="curve" smooth="yes"/>
      <point x="125" y="257"/>
      <point x="98" y="244"/>
      <point x="79" y="226" type="curve" smooth="yes"/>
      <point x="58" y="204"/>
      <point x="48" y="172"/>
      <point x="47" y="128" type="curve" smooth="yes"/>
      <point x="47" y="96"/>
      <point x="56" y="68"/>
      <point x="75" y="42" type="curve" smooth="yes"/>
      <point x="96" y="15"/>
      <point x="124" y="2"/>
      <point x="161" y="1" type="curve" smooth="yes"/>
      <point x="186" y="1"/>
      <point x="212" y="9"/>
      <point x="240" y="26" type="curve" smooth="yes"/>
      <point x="274" y="51" type="line" smooth="yes"/>
      <point x="282" y="37"/>
      <point x="296" y="25"/>
      <point x="318" y="14" type="curve" smooth="yes"/>
      <point x="338" y="4"/>
      <point x="361" y="-1"/>
      <point x="387" y="-2" type="curve" smooth="yes"/>
      <point x="417" y="-2"/>
      <point x="444" y="7"/>
      <point x="469" y="25" type="curve" smooth="yes"/>
      <point x="493" y="43"/>
      <point x="505" y="66"/>
      <point x="505" y="95" type="curve" smooth="yes"/>
      <point x="505" y="123"/>
      <point x="497" y="146"/>
      <point x="479" y="166" type="curve" smooth="yes"/>
      <point x="462" y="185"/>
      <point x="440" y="197"/>
      <point x="411" y="202" type="curve" smooth="yes"/>
      <point x="390" y="204" type="line" smooth="yes"/>
      <point x="374" y="204"/>
      <point x="359" y="201"/>
      <point x="344" y="195" type="curve" smooth="yes"/>
      <point x="330" y="190"/>
      <point x="321" y="183"/>
      <point x="315" y="172" type="curve" smooth="yes"/>
      <point x="313" y="162" type="line" smooth="yes"/>
      <point x="313" y="156"/>
      <point x="314" y="150"/>
      <point x="317" y="143" type="curve" smooth="yes"/>
      <point x="319" y="137"/>
      <point x="322" y="134"/>
      <point x="328" y="132" type="curve" smooth="yes"/>
      <point x="353" y="146" type="line" smooth="yes"/>
      <point x="369" y="156"/>
      <point x="387" y="161"/>
      <point x="407" y="161" type="curve" smooth="yes"/>
      <point x="423" y="161"/>
      <point x="436" y="155"/>
      <point x="448" y="141" type="curve" smooth="yes"/>
      <point x="459" y="128"/>
      <point x="464" y="113"/>
      <point x="465" y="95" type="curve" smooth="yes"/>
      <point x="465" y="78"/>
      <point x="458" y="65"/>
      <point x="442" y="55" type="curve" smooth="yes"/>
      <point x="427" y="46"/>
      <point x="409" y="40"/>
      <point x="386" y="37" type="curve" smooth="yes"/>
      <point x="379" y="36" type="line" smooth="yes"/>
      <point x="375" y="36" type="line" smooth="yes"/>
      <point x="355" y="36"/>
      <point x="333" y="46"/>
      <point x="309" y="67" type="curve" smooth="yes"/>
    </contour>
    <contour>
      <point x="274.5" y="0" type="move" name="L"/>
    </contour>
    <contour>
      <point x="585" y="0" type="move" name="LR"/>
    </contour>
    <contour>
      <point x="282.5" y="416" type="move" name="U"/>
    </contour>
    <contour>
      <point x="505" y="416" type="move" name="UR"/>
    </contour>
  </outline>
</glyph>
<glyph name="u1A34" format="1">
  <advance width="588"/>
  <unicode hex="1A34"/>
  <outline>
    <contour>
      <point x="230" y="225" type="curve" smooth="yes"/>
      <point x="228" y="223"/>
      <point x="228" y="218"/>
      <point x="230" y="210" type="curve" smooth="yes"/>
      <point x="230" y="204"/>
      <point x="233" y="199"/>
      <point x="239" y="195" type="curve" smooth="yes"/>
      <point x="245" y="191"/>
      <point x="251" y="189"/>
      <point x="259" y="187" type="curve" smooth="yes"/>
      <point x="263" y="188"/>
      <point x="266" y="189"/>
      <point x="268" y="191" type="curve" smooth="yes"/>
      <point x="272" y="195"/>
      <point x="274" y="200"/>
      <point x="276" y="207" type="curve" smooth="yes"/>
      <point x="276" y="215"/>
      <point x="270" y="222"/>
      <point x="258" y="228" type="curve" smooth="yes"/>
      <point x="253" y="231"/>
      <point x="248" y="232"/>
      <point x="242" y="233" type="curve" smooth="yes"/>
      <point x="238" y="233"/>
      <point x="234" y="231"/>
    </contour>
    <contour>
      <point x="260" y="255" type="curve" smooth="yes"/>
      <point x="281" y="244" type="line" smooth="yes"/>
      <point x="295" y="236"/>
      <point x="303" y="227"/>
      <point x="305" y="217" type="curve" smooth="yes"/>
      <point x="307" y="202"/>
      <point x="305" y="190"/>
      <point x="297" y="180" type="curve" smooth="yes"/>
      <point x="291" y="171"/>
      <point x="283" y="166"/>
      <point x="271" y="165" type="curve" smooth="yes"/>
      <point x="253" y="165"/>
      <point x="237" y="171"/>
      <point x="221" y="183" type="curve" smooth="yes"/>
      <point x="207" y="195"/>
      <point x="200" y="210"/>
      <point x="200" y="230" type="curve" smooth="yes"/>
      <point x="200" y="248"/>
      <point x="213" y="263"/>
      <point x="240" y="275" type="curve" smooth="yes"/>
      <point x="268" y="286"/>
      <point x="297" y="291"/>
      <point x="329" y="292" type="curve" smooth="yes"/>
      <point x="359" y="292"/>
      <point x="387" y="283"/>
      <point x="413" y="263" type="curve" smooth="yes"/>
      <point x="437" y="247"/>
      <point x="449" y="226"/>
      <point x="450" y="200" type="curve" smooth="yes"/>
      <point x="450" y="184"/>
      <point x="445" y="170"/>
      <point x="433" y="157" type="curve" smooth="yes"/>
      <point x="416" y="144" type="line" smooth="yes"/>
      <point x="432" y="140"/>
      <point x="444" y="131"/>
      <point x="454" y="117" type="curve" smooth="yes"/>
      <point x="462" y="103"/>
      <point x="466" y="88"/>
      <point x="466" y="72" type="curve" smooth="yes"/>
      <point x="466" y="38"/>
      <point x="441" y="16"/>
      <point x="389" y="6" type="curve" smooth="yes"/>
      <point x="361" y="1"/>
      <point x="313" y="-1"/>
      <point x="243" y="-2" type="curve" smooth="yes"/>
      <point x="190" y="-2"/>
      <point x="149" y="6"/>
      <point x="118" y="24" type="curve" smooth="yes"/>
      <point x="82" y="45"/>
      <point x="64" y="78"/>
      <point x="63" y="124" type="curve" smooth="yes"/>
      <point x="63" y="227" type="line" smooth="yes"/>
      <point x="63" y="258"/>
      <point x="76" y="285"/>
      <point x="104" y="308" type="curve" smooth="yes"/>
      <point x="132" y="331"/>
      <point x="165" y="345"/>
      <point x="203" y="351" type="curve" smooth="yes"/>
      <point x="226" y="353" type="line" smooth="yes"/>
      <point x="262" y="354" type="line" smooth="yes"/>
      <point x="313" y="353" type="line" smooth="yes"/>
      <point x="360" y="352" type="line" smooth="yes"/>
      <point x="388" y="352"/>
      <point x="413" y="348"/>
      <point x="435" y="339" type="curve" smooth="yes"/>
      <point x="456" y="331"/>
      <point x="476" y="316"/>
      <point x="496" y="294" type="curve" smooth="yes"/>
      <point x="509" y="280"/>
      <point x="519" y="256"/>
      <point x="526" y="222" type="curve" smooth="yes"/>
      <point x="528" y="208"/>
      <point x="530" y="193"/>
      <point x="533" y="176" type="curve" smooth="yes"/>
      <point x="535" y="160"/>
      <point x="536" y="147"/>
      <point x="536" y="135" type="curve" smooth="yes"/>
      <point x="536" y="129"/>
      <point x="536" y="125"/>
      <point x="535" y="123" type="curve" smooth="yes"/>
      <point x="535" y="122"/>
      <point x="535" y="121"/>
      <point x="533" y="120" type="curve" smooth="yes"/>
      <point x="529" y="131" type="line" smooth="yes"/>
      <point x="515" y="198" type="line" smooth="yes"/>
      <point x="506" y="229"/>
      <point x="493" y="253"/>
      <point x="474" y="271" type="curve" smooth="yes"/>
      <point x="458" y="288"/>
      <point x="441" y="300"/>
      <point x="423" y="307" type="curve" smooth="yes"/>
      <point x="415" y="310"/>
      <point x="408" y="312"/>
      <point x="401" y="314" type="curve" smooth="yes"/>
      <point x="395" y="315"/>
      <point x="384" y="317"/>
      <point x="366" y="321" type="curve" smooth="yes"/>
      <point x="311" y="328" type="line" smooth="yes"/>
      <point x="262" y="330" type="line" smooth="yes"/>
      <point x="227" y="328" type="line" smooth="yes"/>
      <point x="212" y="328"/>
      <point x="202" y="328"/>
      <point x="196" y="326" type="curve" smooth="yes"/>
      <point x="162" y="324"/>
      <point x="138" y="316"/>
      <point x="122" y="300" type="curve" smooth="yes"/>
      <point x="107" y="286"/>
      <point x="100" y="262"/>
      <point x="99" y="227" type="curve" smooth="yes"/>
      <point x="100" y="119" type="line" smooth="yes"/>
      <point x="100" y="81"/>
      <point x="114" y="55"/>
      <point x="144" y="39" type="curve" smooth="yes"/>
      <point x="166" y="28"/>
      <point x="199" y="23"/>
      <point x="244" y="22" type="curve" smooth="yes"/>
      <point x="269" y="22" type="line" smooth="yes"/>
      <point x="318" y="22"/>
      <point x="354" y="24"/>
      <point x="377" y="29" type="curve" smooth="yes"/>
      <point x="416" y="36"/>
      <point x="435" y="50"/>
      <point x="436" y="71" type="curve" smooth="yes"/>
      <point x="436" y="86"/>
      <point x="425" y="102"/>
      <point x="403" y="121" type="curve" smooth="yes"/>
      <point x="359" y="147" type="line" smooth="yes"/>
      <point x="363" y="148"/>
      <point x="368" y="150"/>
      <point x="375" y="153" type="curve" smooth="yes"/>
      <point x="381" y="155"/>
      <point x="386" y="157"/>
      <point x="392" y="161" type="curve" smooth="yes"/>
      <point x="414" y="173"/>
      <point x="425" y="187"/>
      <point x="425" y="205" type="curve" smooth="yes"/>
      <point x="425" y="217"/>
      <point x="414" y="230"/>
      <point x="392" y="245" type="curve" smooth="yes"/>
      <point x="370" y="260"/>
      <point x="348" y="267"/>
      <point x="326" y="268" type="curve" smooth="yes"/>
      <point x="312" y="268"/>
      <point x="301" y="268"/>
      <point x="292" y="266" type="curve" smooth="yes"/>
      <point x="282" y="266"/>
      <point x="272" y="263"/>
    </contour>
    <contour>
      <point x="282.5" y="0" type="move" name="L"/>
    </contour>
    <contour>
      <point x="529" y="0" type="move" name="LR"/>
    </contour>
    <contour>
      <point x="279.5" y="416" type="move" name="U"/>
    </contour>
    <contour>
      <point x="499" y="416" type="move" name="UR"/>
    </contour>
  </outline>
</glyph>
<glyph name="u1A35" format="2">
  <advance width="540"/>
  <unicode hex="1A35"/>
  <anchor x="282.5" y="0" name="L"/>
  <anchor x="485" y="0" name="LR"/>
  <anchor x="271.5" y="416" name="U"/>
  <anchor x="485" y="416" name="UR"/>
  <outline>
    <contour>
      <point x="273" y="323" type="curve" smooth="yes"/>
      <point x="222" y="323"/>
      <point x="178" y="311"/>
      <point x="140" y="286" type="curve" smooth="yes"/>
      <point x="99" y="259"/>
      <point x="79" y="223"/>
      <point x="78" y="178" type="curve" smooth="yes"/>
      <point x="78" y="146"/>
      <point x="96" y="116"/>
      <point x="132" y="87" type="curve" smooth="yes"/>
      <point x="191" y="46" type="line" smooth="yes"/>
      <point x="234" y="83" type="line" smooth="yes"/>
      <point x="265" y="107"/>
      <point x="285" y="118"/>
      <point x="294" y="116" type="curve" smooth="yes"/>
      <point x="320" y="110"/>
      <point x="341" y="99"/>
      <point x="359" y="81" type="curve" smooth="yes"/>
      <point x="369" y="72"/>
      <point x="380" y="58"/>
      <point x="393" y="37" type="curve" smooth="yes"/>
      <point x="406" y="41"/>
      <point x="416" y="47"/>
      <point x="424" y="55" type="curve" smooth="yes"/>
      <point x="444" y="75"/>
      <point x="454" y="106"/>
      <point x="455" y="149" type="curve" smooth="yes"/>
      <point x="455" y="166" type="line" smooth="yes"/>
      <point x="454" y="177" type="line" smooth="yes"/>
      <point x="454" y="194"/>
      <point x="449" y="210"/>
      <point x="439" y="227" type="curve" smooth="yes"/>
      <point x="429" y="243"/>
      <point x="414" y="259"/>
      <point x="394" y="277" type="curve" smooth="yes"/>
      <point x="358" y="307"/>
      <point x="318" y="322"/>
    </contour>
    <contour>
      <point x="54" y="182" type="curve" smooth="yes"/>
      <point x="54" y="220"/>
      <point x="76" y="258"/>
      <point x="122" y="296" type="curve" smooth="yes"/>
      <point x="170" y="336"/>
      <point x="220" y="356"/>
      <point x="273" y="356" type="curve" smooth="yes"/>
      <point x="330" y="356"/>
      <point x="379" y="341"/>
      <point x="421" y="309" type="curve" smooth="yes"/>
      <point x="465" y="275"/>
      <point x="487" y="232"/>
      <point x="488" y="180" type="curve" smooth="yes"/>
      <point x="488" y="138"/>
      <point x="479" y="101"/>
      <point x="459" y="67" type="curve" smooth="yes"/>
      <point x="440" y="35"/>
      <point x="413" y="13"/>
      <point x="377" y="0" type="curve" smooth="yes"/>
      <point x="349" y="37" type="line" smooth="yes"/>
      <point x="328" y="62"/>
      <point x="306" y="77"/>
      <point x="283" y="83" type="curve" smooth="yes"/>
      <point x="269" y="85"/>
      <point x="249" y="72"/>
      <point x="222" y="44" type="curve" smooth="yes"/>
      <point x="186" y="0" type="line" smooth="yes"/>
      <point x="162" y="7"/>
      <point x="135" y="28"/>
      <point x="105" y="63" type="curve" smooth="yes"/>
      <point x="71" y="103"/>
      <point x="54" y="142"/>
    </contour>
  </outline>
</glyph>
<glyph name="u1A36" format="2">
  <advance width="564"/>
  <unicode hex="1A36"/>
  <anchor x="275.5" y="0" name="L"/>
  <anchor x="625" y="-121" name="LR"/>
  <anchor x="275.5" y="416" name="U"/>
  <anchor x="493" y="416" name="UR"/>
  <outline>
    <contour>
      <point x="299" y="241" type="curve" smooth="yes"/>
      <point x="305" y="253"/>
      <point x="310" y="260"/>
      <point x="316" y="262" type="curve" smooth="yes"/>
      <point x="322" y="264"/>
      <point x="328" y="263"/>
      <point x="335" y="257" type="curve" smooth="yes"/>
      <point x="342" y="253"/>
      <point x="345" y="249"/>
      <point x="346" y="243" type="curve" smooth="yes"/>
      <point x="340" y="231" type="line" smooth="yes"/>
      <point x="338" y="227"/>
      <point x="337" y="223"/>
      <point x="336" y="217" type="curve" smooth="yes"/>
      <point x="338" y="201"/>
      <point x="344" y="189"/>
      <point x="356" y="180" type="curve" smooth="yes"/>
      <point x="367" y="173"/>
      <point x="380" y="170"/>
      <point x="396" y="169" type="curve" smooth="yes"/>
      <point x="413" y="169"/>
      <point x="428" y="176"/>
      <point x="442" y="190" type="curve" smooth="yes"/>
      <point x="456" y="204"/>
      <point x="463" y="222"/>
      <point x="463" y="244" type="curve" smooth="yes"/>
      <point x="463" y="280"/>
      <point x="441" y="305"/>
      <point x="396" y="319" type="curve" smooth="yes"/>
      <point x="365" y="327"/>
      <point x="321" y="331"/>
      <point x="262" y="332" type="curve" smooth="yes"/>
      <point x="217" y="332"/>
      <point x="176" y="326"/>
      <point x="138" y="313" type="curve" smooth="yes"/>
      <point x="102" y="301"/>
      <point x="84" y="288"/>
      <point x="83" y="272" type="curve" smooth="yes"/>
      <point x="83" y="27" type="line" smooth="yes"/>
      <point x="148" y="32" type="line" smooth="yes"/>
      <point x="267" y="37" type="line" smooth="yes"/>
      <point x="342" y="37"/>
      <point x="394" y="34"/>
      <point x="425" y="28" type="curve" smooth="yes"/>
      <point x="477" y="18"/>
      <point x="522" y="-7"/>
      <point x="560" y="-47" type="curve" smooth="yes"/>
      <point x="580" y="-69"/>
      <point x="599" y="-104"/>
      <point x="617" y="-154" type="curve" smooth="yes"/>
      <point x="631" y="-196"/>
      <point x="638" y="-225"/>
      <point x="639" y="-242" type="curve" smooth="yes"/>
      <point x="636" y="-245" type="line" smooth="yes"/>
      <point x="626" y="-224" type="line" smooth="yes"/>
      <point x="611" y="-181" type="line" smooth="yes"/>
      <point x="609" y="-177"/>
      <point x="606" y="-170"/>
      <point x="602" y="-160" type="curve" smooth="yes"/>
      <point x="598" y="-152"/>
      <point x="594" y="-144"/>
      <point x="589" y="-136" type="curve" smooth="yes"/>
      <point x="581" y="-122"/>
      <point x="572" y="-109"/>
      <point x="562" y="-97" type="curve" smooth="yes"/>
      <point x="553" y="-87"/>
      <point x="541" y="-75"/>
      <point x="524" y="-60" type="curve" smooth="yes"/>
      <point x="492" y="-34"/>
      <point x="451" y="-15"/>
      <point x="400" y="-3" type="curve" smooth="yes"/>
      <point x="385" y="0"/>
      <point x="368" y="2"/>
      <point x="347" y="5" type="curve" smooth="yes"/>
      <point x="328" y="7"/>
      <point x="308" y="8"/>
      <point x="285" y="8" type="curve" smooth="yes"/>
      <point x="165" y="5" type="line" smooth="yes"/>
      <point x="43" y="0" type="line" smooth="yes"/>
      <point x="43" y="278" type="line" smooth="yes"/>
      <point x="43" y="288"/>
      <point x="57" y="301"/>
      <point x="87" y="319" type="curve" smooth="yes"/>
      <point x="117" y="336"/>
      <point x="148" y="346"/>
      <point x="180" y="351" type="curve" smooth="yes"/>
      <point x="253" y="355" type="line" smooth="yes"/>
      <point x="299" y="354" type="line" smooth="yes"/>
      <point x="349" y="353" type="line" smooth="yes"/>
      <point x="384" y="353"/>
      <point x="416" y="343"/>
      <point x="446" y="323" type="curve" smooth="yes"/>
      <point x="475" y="304"/>
      <point x="489" y="278"/>
      <point x="490" y="245" type="curve" smooth="yes"/>
      <point x="490" y="215"/>
      <point x="481" y="193"/>
      <point x="461" y="177" type="curve" smooth="yes"/>
      <point x="443" y="163"/>
      <point x="419" y="156"/>
      <point x="388" y="155" type="curve" smooth="yes"/>
      <point x="371" y="155"/>
      <point x="356" y="159"/>
      <point x="342" y="167" type="curve" smooth="yes"/>
      <point x="330" y="175"/>
      <point x="321" y="184"/>
      <point x="315" y="196" type="curve" smooth="yes"/>
      <point x="312" y="208" type="line" smooth="yes"/>
      <point x="310" y="221" type="line" smooth="yes"/>
      <point x="307" y="217"/>
      <point x="306" y="214"/>
      <point x="305" y="211" type="curve" smooth="yes"/>
      <point x="309" y="192" type="line" smooth="yes"/>
      <point x="311" y="185"/>
      <point x="316" y="178"/>
      <point x="324" y="169" type="curve" smooth="yes"/>
      <point x="331" y="164"/>
      <point x="341" y="159"/>
      <point x="355" y="153" type="curve" smooth="yes"/>
      <point x="327" y="161"/>
      <point x="310" y="170"/>
      <point x="303" y="182" type="curve" smooth="yes"/>
      <point x="297" y="193"/>
      <point x="294" y="204"/>
      <point x="293" y="216" type="curve" smooth="yes"/>
      <point x="293" y="222"/>
      <point x="295" y="230"/>
    </contour>
  </outline>
</glyph>
<glyph name="u1A37" format="2">
  <advance width="530"/>
  <unicode hex="1A37"/>
  <anchor x="266.5" y="0" name="L"/>
  <anchor x="470" y="0" name="LR"/>
  <anchor x="261.5" y="416" name="U"/>
  <anchor x="470" y="416" name="UR"/>
  <outline>
    <contour>
      <point x="117" y="324" type="curve" smooth="yes"/>
      <point x="110" y="324"/>
      <point x="105" y="319"/>
      <point x="100" y="309" type="curve" smooth="yes"/>
      <point x="98" y="302"/>
      <point x="99" y="295"/>
      <point x="105" y="286" type="curve" smooth="yes"/>
      <point x="110" y="280"/>
      <point x="116" y="278"/>
      <point x="125" y="278" type="curve" smooth="yes"/>
      <point x="130" y="278"/>
      <point x="134" y="280"/>
      <point x="138" y="286" type="curve" smooth="yes"/>
      <point x="141" y="291"/>
      <point x="142" y="297"/>
      <point x="141" y="306" type="curve" smooth="yes"/>
      <point x="139" y="320"/>
      <point x="131" y="326"/>
    </contour>
    <contour>
      <point x="93" y="251" type="line" smooth="yes"/>
      <point x="89" y="252"/>
      <point x="83" y="258"/>
      <point x="75" y="271" type="curve" smooth="yes"/>
      <point x="69" y="284"/>
      <point x="66" y="294"/>
      <point x="65" y="302" type="curve" smooth="yes"/>
      <point x="65" y="306"/>
      <point x="66" y="309"/>
      <point x="69" y="313" type="curve" smooth="yes"/>
      <point x="99" y="340" type="line" smooth="yes"/>
      <point x="111" y="350"/>
      <point x="120" y="355"/>
      <point x="128" y="356" type="curve" smooth="yes"/>
      <point x="138" y="356"/>
      <point x="148" y="352"/>
      <point x="159" y="342" type="curve" smooth="yes"/>
      <point x="169" y="334"/>
      <point x="174" y="325"/>
      <point x="176" y="313" type="curve" smooth="yes"/>
      <point x="176" y="291"/>
      <point x="156" y="256"/>
      <point x="114" y="208" type="curve" smooth="yes"/>
      <point x="94" y="185"/>
      <point x="84" y="162"/>
      <point x="84" y="139" type="curve" smooth="yes"/>
      <point x="84" y="109"/>
      <point x="111" y="83"/>
      <point x="165" y="61" type="curve" smooth="yes"/>
      <point x="205" y="46"/>
      <point x="241" y="39"/>
      <point x="273" y="38" type="curve" smooth="yes"/>
      <point x="305" y="38"/>
      <point x="340" y="52"/>
      <point x="380" y="82" type="curve" smooth="yes"/>
      <point x="419" y="111"/>
      <point x="438" y="134"/>
      <point x="439" y="153" type="curve" smooth="yes"/>
      <point x="440" y="168" type="line" smooth="yes"/>
      <point x="441" y="188" type="line" smooth="yes"/>
      <point x="441" y="206"/>
      <point x="438" y="222"/>
      <point x="430" y="238" type="curve" smooth="yes"/>
      <point x="420" y="258"/>
      <point x="403" y="277"/>
      <point x="377" y="296" type="curve" smooth="yes"/>
      <point x="363" y="301" type="line" smooth="yes"/>
      <point x="341" y="306" type="line" smooth="yes"/>
      <point x="333" y="308"/>
      <point x="326" y="313"/>
      <point x="320" y="321" type="curve" smooth="yes"/>
      <point x="315" y="329"/>
      <point x="313" y="335"/>
      <point x="312" y="341" type="curve" smooth="yes"/>
      <point x="312" y="345"/>
      <point x="317" y="349"/>
      <point x="329" y="353" type="curve" smooth="yes"/>
      <point x="340" y="357"/>
      <point x="351" y="359"/>
      <point x="363" y="360" type="curve" smooth="yes"/>
      <point x="369" y="360"/>
      <point x="374" y="359"/>
      <point x="379" y="356" type="curve" smooth="yes"/>
      <point x="419" y="325" type="line" smooth="yes"/>
      <point x="434" y="312"/>
      <point x="440" y="304"/>
      <point x="439" y="299" type="curve" smooth="yes"/>
      <point x="437" y="299"/>
      <point x="435" y="299"/>
      <point x="431" y="301" type="curve" smooth="yes"/>
      <point x="429" y="302"/>
      <point x="421" y="306"/>
      <point x="407" y="313" type="curve" smooth="yes"/>
      <point x="376" y="325" type="line" smooth="yes"/>
      <point x="363" y="325" type="line" smooth="yes"/>
      <point x="367" y="322"/>
      <point x="371" y="320"/>
      <point x="376" y="318" type="curve" smooth="yes"/>
      <point x="402" y="313" type="line" smooth="yes"/>
      <point x="408" y="311"/>
      <point x="414" y="306"/>
      <point x="422" y="298" type="curve" smooth="yes"/>
      <point x="440" y="276"/>
      <point x="453" y="251"/>
      <point x="462" y="221" type="curve" smooth="yes"/>
      <point x="468" y="196"/>
      <point x="471" y="174"/>
      <point x="472" y="153" type="curve" smooth="yes"/>
      <point x="472" y="125"/>
      <point x="444" y="92"/>
      <point x="387" y="52" type="curve" smooth="yes"/>
      <point x="335" y="17"/>
      <point x="295" y="0"/>
      <point x="266" y="-1" type="curve" smooth="yes"/>
      <point x="220" y="-1"/>
      <point x="175" y="9"/>
      <point x="130" y="30" type="curve" smooth="yes"/>
      <point x="71" y="57"/>
      <point x="42" y="93"/>
      <point x="41" y="139" type="curve" smooth="yes"/>
      <point x="41" y="155"/>
      <point x="57" y="181"/>
      <point x="91" y="217" type="curve" smooth="yes"/>
      <point x="134" y="265" type="line" smooth="yes"/>
      <point x="110" y="254" type="line" smooth="yes"/>
    </contour>
  </outline>
</glyph>
<glyph name="u1A38" format="2">
  <advance width="530"/>
  <unicode hex="1A38"/>
  <anchor x="265.5" y="0" name="L"/>
  <anchor x="471" y="0" name="LR"/>
  <anchor x="211.5" y="416" name="U"/>
  <anchor x="451" y="716" name="UR"/>
  <outline>
    <contour>
      <point x="426" y="332" type="curve" smooth="yes"/>
      <point x="423" y="343"/>
      <point x="420" y="356"/>
      <point x="415" y="372" type="curve" smooth="yes"/>
      <point x="411" y="387"/>
      <point x="408" y="401"/>
      <point x="404" y="416" type="curve" smooth="yes"/>
      <point x="402" y="430"/>
      <point x="401" y="443"/>
      <point x="399" y="455" type="curve" smooth="yes"/>
      <point x="398" y="467"/>
      <point x="398" y="478"/>
      <point x="397" y="489" type="curve" smooth="yes"/>
      <point x="397" y="514"/>
      <point x="400" y="538"/>
      <point x="406" y="562" type="curve" smooth="yes"/>
      <point x="412" y="585"/>
      <point x="425" y="611"/>
      <point x="446" y="640" type="curve" smooth="yes"/>
      <point x="457" y="654"/>
      <point x="473" y="661"/>
      <point x="496" y="662" type="curve" smooth="yes"/>
      <point x="508" y="662"/>
      <point x="518" y="659"/>
      <point x="526" y="653" type="curve" smooth="yes"/>
      <point x="534" y="649"/>
      <point x="539" y="640"/>
      <point x="542" y="624" type="curve" smooth="yes"/>
      <point x="535" y="618" type="line" smooth="yes"/>
      <point x="486" y="632" type="line" smooth="yes"/>
      <point x="479" y="632"/>
      <point x="472" y="631"/>
      <point x="465" y="627" type="curve" smooth="yes"/>
      <point x="459" y="624"/>
      <point x="452" y="615"/>
      <point x="443" y="600" type="curve" smooth="yes"/>
      <point x="441" y="595"/>
      <point x="439" y="588"/>
      <point x="435" y="578" type="curve" smooth="yes"/>
      <point x="433" y="569"/>
      <point x="431" y="563"/>
      <point x="429" y="558" type="curve" smooth="yes"/>
      <point x="427" y="544"/>
      <point x="426" y="527"/>
      <point x="426" y="505" type="curve" smooth="yes"/>
      <point x="426" y="466" type="line" smooth="yes"/>
      <point x="426" y="445"/>
      <point x="430" y="419"/>
      <point x="439" y="388" type="curve" smooth="yes"/>
      <point x="460" y="316" type="line" smooth="yes"/>
      <point x="467" y="270" type="line" smooth="yes"/>
      <point x="469" y="250"/>
      <point x="470" y="224"/>
      <point x="470" y="191" type="curve" smooth="yes"/>
      <point x="470" y="150"/>
      <point x="442" y="107"/>
      <point x="386" y="60" type="curve" smooth="yes"/>
      <point x="336" y="20"/>
      <point x="296" y="0"/>
      <point x="266" y="-1" type="curve" smooth="yes"/>
      <point x="226" y="-1"/>
      <point x="182" y="14"/>
      <point x="133" y="45" type="curve" smooth="yes"/>
      <point x="76" y="81"/>
      <point x="48" y="122"/>
      <point x="47" y="169" type="curve" smooth="yes"/>
      <point x="47" y="183"/>
      <point x="62" y="203"/>
      <point x="94" y="231" type="curve" smooth="yes"/>
      <point x="133" y="265" type="line" smooth="yes"/>
      <point x="93" y="251" type="line" smooth="yes"/>
      <point x="89" y="252"/>
      <point x="83" y="258"/>
      <point x="75" y="271" type="curve" smooth="yes"/>
      <point x="69" y="284"/>
      <point x="66" y="294"/>
      <point x="65" y="302" type="curve" smooth="yes"/>
      <point x="65" y="306"/>
      <point x="66" y="309"/>
      <point x="69" y="313" type="curve" smooth="yes"/>
      <point x="99" y="340" type="line" smooth="yes"/>
      <point x="111" y="350"/>
      <point x="120" y="355"/>
      <point x="128" y="356" type="curve" smooth="yes"/>
      <point x="138" y="356"/>
      <point x="148" y="352"/>
      <point x="159" y="342" type="curve" smooth="yes"/>
      <point x="169" y="334"/>
      <point x="174" y="325"/>
      <point x="176" y="313" type="curve" smooth="yes"/>
      <point x="176" y="287"/>
      <point x="162" y="261"/>
      <point x="132" y="234" type="curve" smooth="yes"/>
      <point x="103" y="208"/>
      <point x="89" y="185"/>
      <point x="88" y="165" type="curve" smooth="yes"/>
      <point x="88" y="132"/>
      <point x="113" y="101"/>
      <point x="163" y="71" type="curve" smooth="yes"/>
      <point x="204" y="48"/>
      <point x="238" y="37"/>
      <point x="265" y="36" type="curve" smooth="yes"/>
      <point x="300" y="36"/>
      <point x="336" y="51"/>
      <point x="375" y="83" type="curve" smooth="yes"/>
      <point x="413" y="114"/>
      <point x="432" y="145"/>
      <point x="432" y="176" type="curve" smooth="yes"/>
      <point x="434" y="207" type="line" smooth="yes"/>
      <point x="434" y="234" type="line" smooth="yes"/>
      <point x="434" y="258" type="line" smooth="yes"/>
      <point x="434" y="264"/>
      <point x="434" y="270"/>
      <point x="434" y="277" type="curve" smooth="yes"/>
      <point x="433" y="285"/>
      <point x="433" y="290"/>
      <point x="432" y="294" type="curve" smooth="yes"/>
      <point x="432" y="302"/>
      <point x="432" y="309"/>
      <point x="430" y="316" type="curve" smooth="yes"/>
      <point x="429" y="322"/>
      <point x="428" y="327"/>
    </contour>
    <contour>
      <point x="125" y="278" type="curve" smooth="yes"/>
      <point x="130" y="282"/>
      <point x="132" y="291"/>
      <point x="133" y="305" type="curve" smooth="yes"/>
      <point x="131" y="318"/>
      <point x="125" y="324"/>
      <point x="115" y="325" type="curve" smooth="yes"/>
      <point x="110" y="325"/>
      <point x="105" y="323"/>
      <point x="100" y="318" type="curve" smooth="yes"/>
      <point x="98" y="316"/>
      <point x="97" y="313"/>
      <point x="97" y="309" type="curve" smooth="yes"/>
      <point x="97" y="305"/>
      <point x="99" y="299"/>
      <point x="103" y="290" type="curve" smooth="yes"/>
      <point x="109" y="278"/>
      <point x="116" y="274"/>
    </contour>
  </outline>
</glyph>
<glyph name="u1A39" format="2">
  <advance width="540"/>
  <unicode hex="1A39"/>
  <anchor x="281.5" y="0" name="L"/>
  <anchor x="486" y="0" name="LR"/>
  <anchor x="271.5" y="416" name="U"/>
  <anchor x="486" y="416" name="UR"/>
  <outline>
    <contour>
      <point x="191" y="276" type="line" smooth="yes"/>
      <point x="194" y="264" type="line" smooth="yes"/>
      <point x="194" y="259"/>
      <point x="191" y="254"/>
      <point x="184" y="247" type="curve" smooth="yes"/>
      <point x="174" y="239"/>
      <point x="166" y="235"/>
      <point x="159" y="233" type="curve" smooth="yes"/>
      <point x="151" y="236" type="line" smooth="yes"/>
      <point x="147" y="245" type="line" smooth="yes"/>
      <point x="147" y="255"/>
      <point x="152" y="264"/>
      <point x="164" y="272" type="curve" smooth="yes"/>
      <point x="178" y="276" type="line" smooth="yes"/>
    </contour>
    <contour>
      <point x="441" y="267" type="curve" smooth="yes"/>
      <point x="415" y="256" type="line" smooth="yes"/>
      <point x="394" y="253" type="line" smooth="yes"/>
      <point x="381" y="255" type="line" smooth="yes"/>
      <point x="367" y="259"/>
      <point x="356" y="264"/>
      <point x="347" y="271" type="curve" smooth="yes"/>
      <point x="339" y="278"/>
      <point x="336" y="287"/>
      <point x="338" y="300" type="curve" smooth="yes"/>
      <point x="338" y="308"/>
      <point x="342" y="315"/>
      <point x="351" y="322" type="curve" smooth="yes"/>
      <point x="359" y="328"/>
      <point x="368" y="331"/>
      <point x="379" y="332" type="curve" smooth="yes"/>
      <point x="398" y="332"/>
      <point x="414" y="322"/>
      <point x="427" y="300" type="curve" smooth="yes"/>
      <point x="429" y="296"/>
      <point x="433" y="285"/>
    </contour>
    <contour>
      <point x="185" y="301" type="line" smooth="yes"/>
      <point x="169" y="301" type="line" smooth="yes"/>
      <point x="161" y="301"/>
      <point x="154" y="300"/>
      <point x="148" y="297" type="curve" smooth="yes"/>
      <point x="144" y="295"/>
      <point x="139" y="291"/>
      <point x="132" y="285" type="curve" smooth="yes"/>
      <point x="122" y="273"/>
      <point x="117" y="260"/>
      <point x="116" y="244" type="curve" smooth="yes"/>
      <point x="116" y="238"/>
      <point x="117" y="231"/>
      <point x="120" y="222" type="curve" smooth="yes"/>
      <point x="123" y="214"/>
      <point x="131" y="210"/>
      <point x="145" y="210" type="curve" smooth="yes"/>
      <point x="161" y="210"/>
      <point x="178" y="217"/>
      <point x="198" y="231" type="curve" smooth="yes"/>
      <point x="217" y="245"/>
      <point x="226" y="260"/>
      <point x="227" y="278" type="curve" smooth="yes"/>
      <point x="227" y="298"/>
      <point x="220" y="316"/>
      <point x="205" y="332" type="curve" smooth="yes"/>
      <point x="191" y="348"/>
      <point x="174" y="356"/>
      <point x="154" y="356" type="curve" smooth="yes"/>
      <point x="122" y="356"/>
      <point x="97" y="347"/>
      <point x="78" y="328" type="curve" smooth="yes"/>
      <point x="60" y="310"/>
      <point x="51" y="288"/>
      <point x="51" y="260" type="curve" smooth="yes"/>
      <point x="51" y="220"/>
      <point x="69" y="189"/>
      <point x="105" y="165" type="curve" smooth="yes"/>
      <point x="95" y="159"/>
      <point x="85" y="149"/>
      <point x="73" y="135" type="curve" smooth="yes"/>
      <point x="62" y="123"/>
      <point x="57" y="109"/>
      <point x="56" y="93" type="curve" smooth="yes"/>
      <point x="56" y="63"/>
      <point x="64" y="40"/>
      <point x="82" y="23" type="curve" smooth="yes"/>
      <point x="99" y="7"/>
      <point x="121" y="-1"/>
      <point x="150" y="-1" type="curve" smooth="yes"/>
      <point x="183" y="-1"/>
      <point x="215" y="8"/>
      <point x="247" y="26" type="curve" smooth="yes"/>
      <point x="258" y="32"/>
      <point x="270" y="41"/>
      <point x="283" y="54" type="curve" smooth="yes"/>
      <point x="290" y="42"/>
      <point x="297" y="33"/>
      <point x="304" y="27" type="curve" smooth="yes"/>
      <point x="324" y="9"/>
      <point x="349" y="0"/>
      <point x="380" y="0" type="curve" smooth="yes"/>
      <point x="418" y="0"/>
      <point x="446" y="17"/>
      <point x="465" y="53" type="curve" smooth="yes"/>
      <point x="481" y="83"/>
      <point x="489" y="121"/>
      <point x="489" y="169" type="curve" smooth="yes"/>
      <point x="486" y="205" type="line" smooth="yes"/>
      <point x="475" y="254" type="line" smooth="yes"/>
      <point x="487" y="261" type="line" smooth="yes"/>
      <point x="515" y="285" type="line" smooth="yes"/>
      <point x="523" y="293"/>
      <point x="530" y="307"/>
      <point x="537" y="328" type="curve" smooth="yes"/>
      <point x="548" y="365" type="line" smooth="yes"/>
      <point x="540" y="350" type="line" smooth="yes"/>
      <point x="528" y="330"/>
      <point x="515" y="314"/>
      <point x="501" y="301" type="curve" smooth="yes"/>
      <point x="475" y="283" type="line" smooth="yes"/>
      <point x="466" y="277" type="line" smooth="yes"/>
      <point x="464" y="294"/>
      <point x="456" y="310"/>
      <point x="441" y="327" type="curve" smooth="yes"/>
      <point x="425" y="346"/>
      <point x="405" y="355"/>
      <point x="380" y="356" type="curve" smooth="yes"/>
      <point x="360" y="356"/>
      <point x="343" y="350"/>
      <point x="328" y="337" type="curve" smooth="yes"/>
      <point x="314" y="325"/>
      <point x="307" y="310"/>
      <point x="307" y="292" type="curve" smooth="yes"/>
      <point x="308" y="283" type="line" smooth="yes"/>
      <point x="310" y="269"/>
      <point x="317" y="257"/>
      <point x="330" y="246" type="curve" smooth="yes"/>
      <point x="340" y="239"/>
      <point x="354" y="233"/>
      <point x="373" y="228" type="curve" smooth="yes"/>
      <point x="389" y="226" type="line" smooth="yes"/>
      <point x="403" y="226"/>
      <point x="420" y="229"/>
      <point x="440" y="236" type="curve" smooth="yes"/>
      <point x="446" y="238"/>
      <point x="450" y="239"/>
      <point x="452" y="241" type="curve" smooth="yes"/>
      <point x="460" y="200" type="line" smooth="yes"/>
      <point x="462" y="172" type="line" smooth="yes"/>
      <point x="462" y="131"/>
      <point x="457" y="99"/>
      <point x="445" y="75" type="curve" smooth="yes"/>
      <point x="431" y="43"/>
      <point x="409" y="27"/>
      <point x="378" y="27" type="curve" smooth="yes"/>
      <point x="360" y="27"/>
      <point x="338" y="38"/>
      <point x="312" y="60" type="curve" smooth="yes"/>
      <point x="283" y="94" type="line" smooth="yes"/>
      <point x="246" y="62" type="line" smooth="yes"/>
      <point x="217" y="40"/>
      <point x="192" y="29"/>
      <point x="171" y="29" type="curve" smooth="yes"/>
      <point x="157" y="31" type="line" smooth="yes"/>
      <point x="140" y="35"/>
      <point x="127" y="40"/>
      <point x="117" y="46" type="curve" smooth="yes"/>
      <point x="105" y="54"/>
      <point x="97" y="65"/>
      <point x="93" y="79" type="curve" smooth="yes"/>
      <point x="91" y="91" type="line" smooth="yes"/>
      <point x="91" y="105"/>
      <point x="98" y="119"/>
      <point x="114" y="133" type="curve" smooth="yes"/>
      <point x="124" y="142"/>
      <point x="138" y="151"/>
      <point x="158" y="161" type="curve" smooth="yes"/>
      <point x="142" y="172" type="line" smooth="yes"/>
      <point x="116" y="192"/>
      <point x="97" y="212"/>
      <point x="84" y="234" type="curve" smooth="yes"/>
      <point x="78" y="244"/>
      <point x="75" y="255"/>
      <point x="75" y="268" type="curve" smooth="yes"/>
      <point x="75" y="286"/>
      <point x="80" y="301"/>
      <point x="91" y="314" type="curve" smooth="yes"/>
      <point x="102" y="326"/>
      <point x="117" y="332"/>
      <point x="138" y="332" type="curve" smooth="yes"/>
      <point x="148" y="332"/>
      <point x="159" y="327"/>
      <point x="171" y="317" type="curve" smooth="yes"/>
    </contour>
  </outline>
</glyph>
<glyph name="u1A3C" format="2">
  <advance width="538"/>
  <unicode hex="1A3C"/>
  <anchor x="279.5" y="1" name="L"/>
  <anchor x="489" y="0" name="LR"/>
  <anchor x="259.5" y="416" name="U"/>
  <anchor x="489" y="416" name="UR"/>
  <outline>
    <contour>
      <point x="550" y="588" type="curve" smooth="yes"/>
      <point x="500" y="614"/>
      <point x="465" y="630"/>
      <point x="444" y="638" type="curve" smooth="yes"/>
      <point x="430" y="642"/>
      <point x="410" y="645"/>
      <point x="382" y="649" type="curve" smooth="yes"/>
      <point x="356" y="652"/>
      <point x="328" y="653"/>
      <point x="298" y="654" type="curve" smooth="yes"/>
      <point x="225" y="654"/>
      <point x="171" y="641"/>
      <point x="135" y="615" type="curve" smooth="yes"/>
      <point x="100" y="589"/>
      <point x="83" y="549"/>
      <point x="82" y="494" type="curve" smooth="yes"/>
      <point x="81" y="132" type="line" smooth="yes"/>
      <point x="81" y="127"/>
      <point x="78" y="124"/>
      <point x="72" y="122" type="curve" smooth="yes"/>
      <point x="59" y="122"/>
      <point x="50" y="136"/>
      <point x="44" y="164" type="curve" smooth="yes"/>
      <point x="44" y="490" type="line" smooth="yes"/>
      <point x="44" y="546"/>
      <point x="59" y="589"/>
      <point x="91" y="621" type="curve" smooth="yes"/>
      <point x="131" y="660"/>
      <point x="198" y="679"/>
      <point x="292" y="680" type="curve" smooth="yes"/>
      <point x="364" y="680"/>
      <point x="424" y="670"/>
      <point x="472" y="650" type="curve" smooth="yes"/>
      <point x="516" y="632"/>
      <point x="542" y="612"/>
    </contour>
    <contour>
      <point x="177" y="110" type="curve" smooth="yes"/>
      <point x="194" y="112"/>
      <point x="208" y="107"/>
      <point x="221" y="95" type="curve" smooth="yes"/>
      <point x="231" y="83"/>
      <point x="236" y="68"/>
      <point x="237" y="48" type="curve" smooth="yes"/>
      <point x="237" y="36"/>
      <point x="229" y="25"/>
      <point x="211" y="14" type="curve" smooth="yes"/>
      <point x="195" y="4"/>
      <point x="180" y="-1"/>
      <point x="164" y="-2" type="curve" smooth="yes"/>
      <point x="122" y="-2"/>
      <point x="91" y="16"/>
      <point x="69" y="54" type="curve" smooth="yes"/>
      <point x="53" y="85"/>
      <point x="45" y="126"/>
      <point x="44" y="178" type="curve" smooth="yes"/>
      <point x="44" y="217"/>
      <point x="57" y="256"/>
      <point x="84" y="296" type="curve" smooth="yes"/>
      <point x="111" y="336"/>
      <point x="144" y="356"/>
      <point x="183" y="356" type="curve" smooth="yes"/>
      <point x="194" y="356"/>
      <point x="207" y="352"/>
      <point x="223" y="344" type="curve" smooth="yes"/>
      <point x="264" y="317" type="line" smooth="yes"/>
      <point x="277" y="327"/>
      <point x="291" y="336"/>
      <point x="307" y="344" type="curve" smooth="yes"/>
      <point x="322" y="352"/>
      <point x="336" y="356"/>
      <point x="349" y="356" type="curve" smooth="yes"/>
      <point x="391" y="356"/>
      <point x="425" y="340"/>
      <point x="451" y="307" type="curve" smooth="yes"/>
      <point x="477" y="275"/>
      <point x="490" y="233"/>
      <point x="490" y="179" type="curve" smooth="yes"/>
      <point x="490" y="146"/>
      <point x="487" y="119"/>
      <point x="481" y="98" type="curve" smooth="yes"/>
      <point x="476" y="78"/>
      <point x="467" y="61"/>
      <point x="453" y="45" type="curve" smooth="yes"/>
      <point x="450" y="42"/>
      <point x="443" y="38"/>
      <point x="431" y="32" type="curve" smooth="yes"/>
      <point x="402" y="20" type="line" smooth="yes"/>
      <point x="394" y="16" type="line" smooth="yes"/>
      <point x="386" y="15" type="line" smooth="yes"/>
      <point x="421" y="28" type="line" smooth="yes"/>
      <point x="446" y="35" type="line" smooth="yes"/>
      <point x="465" y="37" type="line" smooth="yes"/>
      <point x="442" y="13" type="line" smooth="yes"/>
      <point x="430" y="3"/>
      <point x="414" y="-2"/>
      <point x="393" y="-2" type="curve" smooth="yes"/>
      <point x="379" y="-2"/>
      <point x="369" y="-1"/>
      <point x="363" y="3" type="curve" smooth="yes"/>
      <point x="358" y="6"/>
      <point x="351" y="15"/>
      <point x="342" y="30" type="curve" smooth="yes"/>
      <point x="346" y="40"/>
      <point x="350" y="46"/>
      <point x="355" y="48" type="curve" smooth="yes"/>
      <point x="360" y="50"/>
      <point x="368" y="52"/>
      <point x="379" y="54" type="curve" smooth="yes"/>
      <point x="390" y="54"/>
      <point x="398" y="55"/>
      <point x="405" y="57" type="curve" smooth="yes"/>
      <point x="422" y="63"/>
      <point x="434" y="73"/>
      <point x="442" y="87" type="curve" smooth="yes"/>
      <point x="450" y="101"/>
      <point x="454" y="127"/>
      <point x="454" y="165" type="curve" smooth="yes"/>
      <point x="454" y="214"/>
      <point x="441" y="255"/>
      <point x="414" y="289" type="curve" smooth="yes"/>
      <point x="403" y="303"/>
      <point x="392" y="313"/>
      <point x="380" y="321" type="curve" smooth="yes"/>
      <point x="370" y="328"/>
      <point x="358" y="331"/>
      <point x="344" y="332" type="curve" smooth="yes"/>
      <point x="336" y="332"/>
      <point x="324" y="326"/>
      <point x="308" y="314" type="curve" smooth="yes"/>
      <point x="262" y="278" type="line" smooth="yes"/>
      <point x="215" y="313" type="line" smooth="yes"/>
      <point x="201" y="323"/>
      <point x="188" y="328"/>
      <point x="176" y="328" type="curve" smooth="yes"/>
      <point x="153" y="328"/>
      <point x="132" y="316"/>
      <point x="111" y="292" type="curve" smooth="yes"/>
      <point x="89" y="264"/>
      <point x="78" y="227"/>
      <point x="78" y="180" type="curve" smooth="yes"/>
      <point x="78" y="145"/>
      <point x="81" y="116"/>
      <point x="88" y="92" type="curve" smooth="yes"/>
      <point x="94" y="69"/>
      <point x="107" y="52"/>
      <point x="129" y="41" type="curve" smooth="yes"/>
      <point x="130" y="49"/>
      <point x="131" y="56"/>
      <point x="134" y="62" type="curve" smooth="yes"/>
      <point x="136" y="68"/>
      <point x="140" y="75"/>
      <point x="146" y="85" type="curve" smooth="yes"/>
      <point x="156" y="99"/>
      <point x="166" y="107"/>
    </contour>
    <contour>
      <point x="166" y="33" type="line" smooth="yes"/>
      <point x="192" y="31" type="line" smooth="yes"/>
      <point x="208" y="31"/>
      <point x="215" y="37"/>
      <point x="213" y="49" type="curve" smooth="yes"/>
      <point x="211" y="63"/>
      <point x="206" y="70"/>
      <point x="196" y="71" type="curve" smooth="yes"/>
      <point x="185" y="66" type="line" smooth="yes"/>
      <point x="181" y="64"/>
      <point x="177" y="60"/>
      <point x="173" y="54" type="curve" smooth="yes"/>
    </contour>
  </outline>
</glyph>
